<svg xmlns="http://www.w3.org/2000/svg" viewBox="0 0 79.35 120"><defs><style>.cls-1{fill:#f2ce5d;}.cls-2{fill:#24334e;}.cls-3{fill:#101823;}.cls-4{fill:none;}</style></defs><title>ape-jump</title><g id="Livello_2" data-name="Livello 2"><g id="Livello_1-2" data-name="Livello 1"><g id="back"><path class="cls-1" d="M75.28,36.73,61,13.87A8.26,8.26,0,0,0,54,10H30.08a16.13,16.13,0,0,0-13.65,7.54L4,37.25a11.37,11.37,0,0,0-1.72,6v68.52A8.24,8.24,0,0,0,10.53,120H69.08a8.24,8.24,0,0,0,8.24-8.24V43.85A13.48,13.48,0,0,0,75.28,36.73Z"/><polygon class="cls-2" points="32.21 0 22.38 14.99 56.91 14.99 47.58 0 32.21 0"/><rect class="cls-2" x="7.32" y="45" width="65" height="70" rx="3.27"/><rect class="cls-3" x="69.32" y="64.56" width="10.03" height="29.96" rx="4.01"/><rect class="cls-3" y="64.56" width="10.03" height="29.96" rx="4.01"/><line class="cls-4" x1="22.38" y1="14.99" x2="17.95" y2="14.99"/><rect class="cls-2" x="30.6" y="12.8" width="18.38" height="34.06"/><rect class="cls-3" x="34.81" y="0.01" width="10.03" height="29.96" rx="4.01"/><polygon class="cls-3" points="50.97 115 49.97 115 49.97 95.5 56.4 95.5 56.4 78.5 49.97 78.5 49.97 74.12 47.97 74.12 47.97 78.5 43.83 78.5 43.83 95.5 47.97 95.5 47.97 115 46.97 115 46.97 96.5 42.83 96.5 42.83 77.5 46.97 77.5 46.97 73.12 50.97 73.12 50.97 77.5 57.4 77.5 57.4 96.5 50.97 96.5 50.97 115"/><path class="cls-3" d="M51,71.12H47v-.79L34.51,57.87,33.9,18.81l4-.07.59,37.45L51,68.67Zm-3-1h2v-1L37.49,56.61l-.57-36.85-2,0,.59,37.66L48,69.91Z"/><polygon class="cls-3" points="21.32 60.37 17.32 60.37 17.32 46.74 19.58 46.74 19.58 45 20.58 45 20.58 47.74 18.32 47.74 18.32 59.37 20.32 59.37 20.32 49.74 22.58 49.74 22.58 45 23.58 45 23.58 50.74 21.32 50.74 21.32 60.37"/><path class="cls-3" d="M48,106.81H17.32V91.44H28.41V81.76L17.32,70.66V62.37h4V69L32.41,80.1V95.44H21.32v7.37H48Zm-29.65-1H47v-2H20.32V94.44H31.41V80.52L20.32,69.42V63.37h-2v6.87l11.09,11.1v11.1H18.32Z"/><path class="cls-3" d="M68.1,106.81H50v-4H64.1V74.12H39.58V61.52l4,4v4.6H68.1Zm-17.13-1H67.1V71.12H42.58V65.94l-2-2v9.18H65.1v30.69H51Z"/><polygon class="cls-3" points="43.58 62.7 39.58 58.7 39.58 52.75 59.95 52.75 59.95 45 60.95 45 60.95 53.75 40.58 53.75 40.58 58.28 42.58 60.28 42.58 55.75 62.95 55.75 62.95 45 63.95 45 63.95 56.75 43.58 56.75 43.58 62.7"/><polygon class="cls-3" points="35.38 76.9 27.79 76.9 23.81 72.9 31.38 72.9 31.38 63.37 11.25 63.37 7.32 59.43 7.32 58.01 11.67 62.37 32.38 62.37 32.38 73.9 26.21 73.9 28.21 75.9 34.38 75.9 34.38 60.37 12.5 60.37 7.32 55.19 7.32 53.77 12.92 59.37 35.38 59.37 35.38 76.9"/><polygon class="cls-3" points="15.28 115 14.28 115 14.28 75.9 22.56 75.9 20.56 73.9 12.28 73.9 12.28 115 11.28 115 11.28 72.9 20.98 72.9 24.96 76.9 15.28 76.9 15.28 115"/></g></g></g></svg>