<svg xmlns="http://www.w3.org/2000/svg" viewBox="0 0 82.53 120.75"><defs><style>.cls-1{fill:#24334e;}.cls-2{fill:#f2ce5d;}.cls-10,.cls-11,.cls-3,.cls-7,.cls-9{fill:none;}.cls-12,.cls-4,.cls-6{fill:#101823;}.cls-4{opacity:0.5;}.cls-12,.cls-4{isolation:isolate;}.cls-5{fill:#cc9637;}.cls-7,.cls-8{stroke:#cc9637;}.cls-10,.cls-11,.cls-7,.cls-8,.cls-9{stroke-miterlimit:10;}.cls-10,.cls-11,.cls-7,.cls-9{stroke-width:1.5px;}.cls-8{fill:#a9d1dc;stroke-width:0.75px;}.cls-9{stroke:#000;}.cls-10,.cls-11{stroke:#101823;}.cls-10{stroke-linecap:round;}.cls-12{opacity:0.49;}</style></defs><title>epe</title><g id="Livello_2" data-name="Livello 2"><g id="Livello_1-2" data-name="Livello 1"><g id="back"><path class="cls-1" d="M22.52,120,15,97.5a14.94,14.94,0,0,1-9-3,15,15,0,0,0,16.46,1Z"/><path class="cls-2" d="M72,120H22.52V95.48a15,15,0,0,1-16.46-1,17.14,17.14,0,0,1-1.64-1.43,15,15,0,0,1,0-21.19l.53-.5A13.54,13.54,0,0,1,6.64,70,15,15,0,0,1,15,67.5h0a14.86,14.86,0,0,1,7.5,2V48.74H15V30a14.85,14.85,0,0,1-9.5-3.43,14.54,14.54,0,0,1-2-2c-.3-.37-.59-.75-.86-1.15a15,15,0,0,1,.17-17c.16-.23.33-.45.49-.66A13.07,13.07,0,0,1,4.42,4.4,15,15,0,0,1,15,0h7.5L33,10.49h0l9.18-2.27a6.14,6.14,0,0,1,5.17,1L73,28.49a5,5,0,0,1,2,4.05V45H37.52v7.5H72A10.52,10.52,0,0,1,82.52,63v46.47a2.16,2.16,0,0,1,0,.36A10.54,10.54,0,0,1,75,119.55,10.69,10.69,0,0,1,72,120Z"/><path class="cls-1" d="M22.52,69.5a14.86,14.86,0,0,0-7.5-2V45h7.5Z"/><line class="cls-3" x1="75.02" y1="52.93" x2="75.02" y2="52.5"/><path class="cls-4" d="M22.52,120l-3.75-11.24V97a14.76,14.76,0,0,0,3.75-1.52Z"/><path class="cls-1" d="M7,95.18a15.94,15.94,0,0,0,3.2,1.53A14.7,14.7,0,0,1,7,95.18Z"/><path class="cls-4" d="M22.52,69.5A14,14,0,0,0,18.77,68V45h3.75Z"/><path class="cls-5" d="M22,90a7.51,7.51,0,0,1-2.73-.51v-14A7.49,7.49,0,0,1,22,75Z"/><path class="cls-6" d="M15,97.49a15,15,0,0,1-9-3,17.14,17.14,0,0,1-1.64-1.43,15,15,0,0,1,0-21.19l.53-.5A12.06,12.06,0,0,1,6.6,70a14.94,14.94,0,0,1,15.92-.54v13A7.5,7.5,0,1,0,15,90a7.5,7.5,0,0,0,7.5-7.5h0v13A15,15,0,0,1,15,97.49Z"/><rect class="cls-7" x="22.52" y="52.49" width="7.5" height="67.5"/><rect class="cls-7" x="30.02" y="52.5" width="7.5" height="67.5"/><path class="cls-6" d="M15,30A15,15,0,0,1,15,0Z"/><path class="cls-2" d="M15,22.5a7.5,7.5,0,0,1,0-15Z"/><path class="cls-8" d="M68.11,38.82H44.52A1.82,1.82,0,0,1,42.72,37h0V25a1.81,1.81,0,0,1,1.22-1.71l5.72-2a1.84,1.84,0,0,1,1.55.18L69.07,32.61a1.81,1.81,0,0,1,.85,1.54V37a1.81,1.81,0,0,1-1.8,1.82Z"/><line class="cls-9" x1="67.52" y1="30" x2="67.52" y2="30"/><line class="cls-10" x1="37.52" y1="30" x2="37.52" y2="37.5"/><line class="cls-7" x1="37.52" y1="45" x2="37.52" y2="52.5"/><polygon class="cls-1" points="15.02 15 15.02 0 22.52 0 33.02 10.5 29.57 11.37 22.3 13.18 15.02 15"/><path class="cls-1" d="M72,120H45V52.49H72A10.48,10.48,0,0,1,82.52,63v46.47A10.52,10.52,0,0,1,75,119.55,10.21,10.21,0,0,1,72,120Z"/><path class="cls-5" d="M15,22.49A7.49,7.49,0,0,1,12.29,22V8A7.51,7.51,0,0,1,15,7.49Z"/><line class="cls-11" x1="72.01" y1="52.49" x2="72.01" y2="119.99"/><path class="cls-12" d="M72,120H45V106.32H72A10.48,10.48,0,0,0,82.52,95.81v13.66A10.52,10.52,0,0,1,75,119.55,10.21,10.21,0,0,1,72,120Z"/><rect class="cls-7" x="37.52" y="52.5" width="7.5" height="67.5"/></g></g></g></svg>