<svg id="Livello_1" data-name="Livello 1" xmlns="http://www.w3.org/2000/svg" xmlns:xlink="http://www.w3.org/1999/xlink" viewBox="0 0 160 80"><defs><style>.cls-1{fill:#f2ce5d;}.cls-2{fill:url(#Sfumatura_senza_nome_7);}.cls-3{fill:url(#Sfumatura_senza_nome_7-2);}.cls-4{fill:url(#Sfumatura_senza_nome_7-3);}.cls-5{fill:url(#Sfumatura_senza_nome_7-4);}.cls-6{fill:url(#Sfumatura_senza_nome_7-5);}.cls-7{fill:url(#Sfumatura_senza_nome_7-6);}.cls-8{fill:url(#Sfumatura_senza_nome_7-7);}.cls-9{fill:#f7f8e4;}.cls-10{fill:#fff;}</style><radialGradient id="Sfumatura_senza_nome_7" cx="40.99" cy="618.11" r="0.32" gradientTransform="matrix(0.95, 0, 0, -0.94, 18.01, 658.26)" gradientUnits="userSpaceOnUse"><stop offset="0" stop-color="#fff" stop-opacity="0"/><stop offset="0.3" stop-color="#fff" stop-opacity="0.01"/><stop offset="0.48" stop-color="#fff" stop-opacity="0.04"/><stop offset="0.63" stop-color="#fff" stop-opacity="0.1"/><stop offset="0.77" stop-color="#fff" stop-opacity="0.18"/><stop offset="0.89" stop-color="#fff" stop-opacity="0.28"/><stop offset="1" stop-color="#fff" stop-opacity="0.4"/></radialGradient><radialGradient id="Sfumatura_senza_nome_7-2" cx="52.55" cy="685.57" r="0.26" xlink:href="#Sfumatura_senza_nome_7"/><radialGradient id="Sfumatura_senza_nome_7-3" cx="61.41" cy="673.06" r="0.05" xlink:href="#Sfumatura_senza_nome_7"/><radialGradient id="Sfumatura_senza_nome_7-4" cx="62.38" cy="670.74" r="0.1" xlink:href="#Sfumatura_senza_nome_7"/><radialGradient id="Sfumatura_senza_nome_7-5" cx="63.02" cy="668.94" r="0.32" xlink:href="#Sfumatura_senza_nome_7"/><radialGradient id="Sfumatura_senza_nome_7-6" cx="64.39" cy="663.58" r="0.43" xlink:href="#Sfumatura_senza_nome_7"/><radialGradient id="Sfumatura_senza_nome_7-7" cx="23.61" cy="655.73" r="41.57" xlink:href="#Sfumatura_senza_nome_7"/></defs><title>bubble3</title><g id="back"><rect class="cls-1" x="25.05" y="24.93" width="6.19" height="6.18"/><rect class="cls-1" x="18.85" y="18.74" width="6.19" height="6.18"/><rect class="cls-1" x="48.95" y="25.06" width="6.19" height="6.18"/><rect class="cls-1" x="55.14" y="18.89" width="6.19" height="6.18"/><rect class="cls-1" x="48.81" y="48.9" width="6.19" height="6.18"/><rect class="cls-1" x="55" y="55.09" width="6.19" height="6.18"/><rect class="cls-1" x="24.91" y="48.77" width="6.19" height="6.18"/><rect class="cls-1" x="18.71" y="54.95" width="6.19" height="6.18"/><path class="cls-1" d="M54.22,36.92c-6.87,0-11.09-5.1-11.09-13.5v-10h-6.2v10c0,8.4-4.23,13.5-11.1,13.5H13.33v6.17h12.5c6.87,0,11.1,5.1,11.1,13.5v10h6.2v-10c0-8.4,4.22-13.5,11.09-13.5H66.71V36.92ZM42.09,42.45,40,47,38,42.45,34,40l3.89-2.39L40,33l2.07,4.55L46,40Z"/><path class="cls-2" d="M57.11,75.18c.08,0,0,.08-.12.15a4.35,4.35,0,0,0-.61.2Z"/><path class="cls-3" d="M68,11.94c-.07,0-.22-.08-.53-.33,0,0,0-.1.09-.1Z"/><path class="cls-4" d="M76.11,23.59,76,23.5h0Z"/><path class="cls-5" d="M77,25.77a1.16,1.16,0,0,0,0-.18l.09.25A.18.18,0,0,0,77,25.77Z"/><path class="cls-6" d="M77.45,27.36V27c.09.26.19.53.27.81A1.29,1.29,0,0,1,77.45,27.36Z"/><path class="cls-7" d="M78.84,31.93c.06.36.14.72.21,1.09l-.32-.94c0-.12,0-.24.1-.19S78.84,31.92,78.84,31.93Z"/><path class="cls-8" d="M79.65,40v.1a.48.48,0,0,0-.22-.12c0,.1-.06.11-.09,0-.1.08-.19.34-.29.94l.08,1L79,42.2v-.84a2.36,2.36,0,0,0,0,1.12.78.78,0,0,0-.14.42l.16,1c-.11.11-.13-.46-.26.19,0,.48.27-.41.21.35-.17.46-.24.31-.24.89-.06.07-.08-.06-.07-.28a12,12,0,0,0-.1,1.59,5,5,0,0,0-.2,1c-.08.35-.18.62-.27.57a7.55,7.55,0,0,1-.17,1.35c0-.87-.44,1.67-.64,1.38.08.68-.66,2.15-1,3.23a.67.67,0,0,1,0-.2,10.62,10.62,0,0,1-.51,1c.14.14-.24,1-.37,1.55-.49.62,0-.51-.25-.37.15,0-.45,1.26-.22,1.08-.35.48-.27.43-.53.63.15.2-.18.52-.33.94-.54.67-.3.08-.72,1-.24.28,0-.18,0-.35-.44.72-.06.41-.08.63-.53,1-.37.38-.65.66a2.13,2.13,0,0,0-.39.88,5,5,0,0,1-.42.7s-.11.08-.08,0c-.34.67-1.3,1.78-1.71,2.56,0,0-.08.06-.11.06.16,0,.24,0,.27,0-.28.32-.44.66-.64.71a1,1,0,0,0,.22-.36l-.27.37c-.39.19.37-.49.28-.57a23.57,23.57,0,0,1-1.61,2c-.22,0,1-1.18.3-.63l.74-.71c-.72.4.43-.46-.26-.1-.94.95-.94,1.2-1.89,2.1-.16.26.17,0,0,.29-1.31,1.41-1.38.71-2.28,1.82a2.27,2.27,0,0,1-1.08,1.06l.16-.35c-1,.77-.44.67-1.61,1.38a5.41,5.41,0,0,1,.62-.55c-.8.4-.45.45-1,.86l-.21-.05c-.58.36-1.19.78-1.81,1.19a12.7,12.7,0,0,1-2,1.2c.06-.07.27-.23-.07-.12-.86.45-1.81.94-2.75,1.32s-1.95.63-2.83.94l-.64.38c-.15.06-.31,0-.15,0-.72.13,0,.09-.33.24s-.56,0-.31,0c-.61.21-1.48.5-2.38.76a6.14,6.14,0,0,1-1.34.28,9.25,9.25,0,0,1-1.18.12l.37-.14c-1,.11-1.14.47-2.14.48h.19c-1.15.09-2.36.12-3.5.19H40l-.8,0a8.85,8.85,0,0,1-1.44-.18,3.93,3.93,0,0,1-1.28,0c-.55,0-1.06-.14-1.16,0a22.93,22.93,0,0,0-2.71-.7c-.49-.08-.76,0-1.35-.09v-.16l-.83-.05-.39-.28-.49-.08c.2.07.37.16.34.19a8.07,8.07,0,0,1-1.38-.39,2.24,2.24,0,0,1-.69-.39l-2-.61a.86.86,0,0,1,.32,0c-.52-.15.09-.15-.79-.35.11.08-.1.06-.14.08a24.41,24.41,0,0,0-2.3-1.12h.2a42.44,42.44,0,0,1-4.43-2.44c.51.37.3.45-.16.19v-.08a.92.92,0,0,1-.27-.09c-.53-.39-.27-.4.07-.22l-.68-.43c0-.07.16,0,.23,0-.32-.12-1-.94-1.48-1.09v-.06L15.43,70c-.26-.21-.49-.42-.72-.61l-1.47-1.24c-.12.09-.5-.32-.9-.52-.68-.82-1.39-1.75-2.25-2.67-.63-.64-.26-.14-.57-.4.06-.13-.72-1.14-.25-.66L8.2,62.45l-.56-.69L7,60.81c.07.2.17.42.07.33-.19-.28-.36-.7-.29-.69a12.38,12.38,0,0,1-1.6-3c-.22-.56-.44-1.09-.67-1.59a6.3,6.3,0,0,0-.34-.69q-.12-.3-.24-.54l-.74-1.68c-.27-.77.25.43.11-.16-.21-.43-.38-.83-.53-1.21a6.67,6.67,0,0,1-.27-1.09,19.16,19.16,0,0,0-.57-2.1,19.17,19.17,0,0,0-.33-2.83c-.09-.56-.21-1.13-.27-1.67a8.9,8.9,0,0,1,0-1.46l-.08.09a2.3,2.3,0,0,1,0-.83c-.07.05-.06.47-.11.21a27.94,27.94,0,0,1,.12-5.56c.09-.94.32-1.88.47-2.77L2,32.16c.13-.45.25-.94.38-1.34.36-1.3-.23-.85.39-2.46v.52A32.63,32.63,0,0,1,4,24.93c.59-1.25,1.19-2.5,1.74-3.77a1.4,1.4,0,0,1-.1.45,7,7,0,0,0,1-1.89c.22-.34.12,0,.29-.23.36-.44.6-1.31.89-1.48v.1c.27-.41.94-1.21.64-1,.66-.76,1.09-1.6,1.67-2.15.23-.45,1.18-1.19,1.18-1.45.11.2,1.28-1.21,1.73-1.68-.12.19.45-.32.33-.08.54-.49,1-.94.83-.94,1.12-.75,2-1.89,2.77-2.06l1.22-1,1.29-.86L20.8,6l.63-.4.65-.34c0,.12-.47.32-.95.61s-.87.54-.77.61l1-.72.94-.56c.64-.36,1.28-.71,2.11-1.08.45-.18-.2.21-.33.31a14.57,14.57,0,0,1,2.48-1L27.8,3A9.63,9.63,0,0,1,29,2.52a1.3,1.3,0,0,1-.32.14c.31-.08.74-.16.67-.24l-.29.1c-.52,0,1-.53,1.19-.67-.38.36,1.61-.35.85.21.2-.07.44-.19.39-.23.31-.07.41,0,.12.1l1-.3a3.93,3.93,0,0,1,.84-.18c0,.05-.21.09-.3.17A8.14,8.14,0,0,1,35,1.17s0,.05-.07.07A21,21,0,0,1,39,.77c-.48.23.58,0,.67.21a6.76,6.76,0,0,1,.9,0L40.2.83c.79,0,1.49,0,2.17,0h-.59L43.27,1,42.43.84c.8,0,0-.22.94-.12A4.33,4.33,0,0,1,44.6,1,5.83,5.83,0,0,1,46,1.1c.14.07-.15.17-.06.23.39-.08,1.75.18,2.3.18-.12,0-.13.09-.09.12h.34c.35.13.39.16.32.21,1.07.3-.28-.3.94.12a1.22,1.22,0,0,1-.27,0,23.54,23.54,0,0,1,3.6,1c.28.3-1-.32-.67,0,.82.29,1.68.55,2.54.82a16.85,16.85,0,0,1,2.43.91l-.27-.15c.3-.11,1,.57,1.8.9h-.15c.94.64,2.06,1.15,3.57,2l-.21-.07c.51.45,1.41,1.1,2,1.56.22.08.55.34.39.12l1.21,1.16c.39.35.81.69,1.22,1a13,13,0,0,1,1.17,1.06A8.94,8.94,0,0,1,69,13.55c-.16-.18-.42-.39-.29-.25L70,14.53c0-.17-.1-.21-.28-.53a5.2,5.2,0,0,1,.86.76c-.58-.5-.13.1,0,.41,0-.05.08,0,.09,0,.39.84.26,0,1,1H71.5c.3.35.62.65,1,1.05,0,.24-.34-.36-.45-.32.42.55,1,.95,1.25,1.57a8.12,8.12,0,0,0-.62-.8,11.12,11.12,0,0,0,.55,1.09h0l.06.11a.19.19,0,0,0,.07.14h0l.06.14.32.59-.11-.27a3.82,3.82,0,0,1,.86,1.06l.39.64a5.64,5.64,0,0,0,.44.71c-.24-.34-.34-.44-.37-.43s.11.32,0,.31c.1.28.25.71.17.61.34.45.31.87.8,1.49,0,.05.25.54.09.47.34.63,0-.19.08-.16.62,1,.74,2.49,1.51,3.9.47,1.29.65,1.51,1.06,2.72,0,.44-.25-.3-.25-.3a16,16,0,0,0,.43,1.82c-.07-.12-.08,0-.09.23.09.51.21.31.25,1a3.2,3.2,0,0,1-.26-.48c.15.59.3,1.19.45,1.81-.06.18-.18-.36-.26-.58a17.73,17.73,0,0,0,.47,2V36c0,.08-.1,0-.13-.17-.2-.59-.1-.89-.06-.94l.1.45c.2-.5-.32-1.81-.44-2.72l.25.34A39.52,39.52,0,0,1,79.65,40Z"/><path class="cls-9" d="M79.42,39.93c0,.1-.06.11-.09,0h0l-.08-.55.17.24A.55.55,0,0,1,79.42,39.93Z"/><path class="cls-9" d="M79.51,37.54c-.1-.42-.26-.89-.39-.6.17.4.11.51.31.94,0,.36,0,.63-.07.57a2.1,2.1,0,0,0,.1.75,4.13,4.13,0,0,0,0-1.68C79.42,37.39,79.47,37.51,79.51,37.54Z"/><path class="cls-9" d="M63.12,7.63l.17.15Z"/><path class="cls-9" d="M42.7.29a.53.53,0,0,0,.25,0C42.79.27,42.66.27,42.7.29Z"/><path class="cls-9" d="M38.94,0h0Z"/><path class="cls-9" d="M63.12,7.63l-.44-.4C62.61,7.25,62.9,7.45,63.12,7.63Z"/><path class="cls-9" d="M78.56,32.8a1,1,0,0,0,.09.31l-.06-.3Z"/><path class="cls-9" d="M70.35,14l.12.13.15.07Z"/><path class="cls-9" d="M74.7,20.09c-.08-.15-.23-.13-.32-.16a.9.9,0,0,1,.28.27A.16.16,0,0,0,74.7,20.09Z"/><path class="cls-9" d="M78.75,31.08l.07.2Z"/><path class="cls-9" d="M66.62,10.23a.14.14,0,0,0,0-.09A.12.12,0,0,0,66.62,10.23Z"/><path class="cls-9" d="M78.1,48.31Z"/><path class="cls-9" d="M79.69,40v.13h.07Z"/><path class="cls-9" d="M32,.62Z"/><path class="cls-9" d="M.82,48.43c-.06-.72.44,1.1.3,0C1.1,48.56.67,47.55.82,48.43Z"/><path class="cls-9" d="M78.55,32.61v0Z"/><path class="cls-9" d="M17.44,6.84h.17S17.56,6.8,17.44,6.84Z"/><path class="cls-9" d="M28.17,1.9,27.88,2Z"/><path class="cls-9" d="M12.78,10.85a2.22,2.22,0,0,0-.33.28h.06A1.43,1.43,0,0,1,12.78,10.85Z"/><path class="cls-9" d="M8.51,15.56l.09-.08.12-.17Z"/><path class="cls-9" d="M69.83,65.09a1.51,1.51,0,0,1,.28-.15C70,65,70.56,64.28,69.83,65.09Z"/><path class="cls-9" d="M78.64,32.79a.34.34,0,0,1-.09-.18v.2S78.63,32.83,78.64,32.79Z"/><path class="cls-9" d="M13.3,11.78l-.73.65A9.33,9.33,0,0,0,13.3,11.78Z"/><path class="cls-9" d="M29.31,77.35h.22A.41.41,0,0,0,29.31,77.35Z"/><path class="cls-9" d="M10.6,14.61a3.94,3.94,0,0,0-.45.36.37.37,0,0,0-.05.11Z"/><path class="cls-9" d="M79.34,40c0,.08.07.07.09,0A.07.07,0,0,0,79.34,40ZM78.73,31l-.19-.57c0,.09.09-.08.15.13-.18-1.09-.59-1.67-.55-2.12-.34-.95-.28-.59-.4-.66a38.85,38.85,0,0,1,1.09,4.11h0a1.26,1.26,0,0,1,.1.27c0-.68-.2-.55-.22-1.13C78.71,31,78.72,31,78.73,31ZM77.23,26c-.27-.49-.08,0-.19-.12.15.38.29.77.43,1.17v-.52l-.2-.1C77.26,26.23,77.15,25.92,77.23,26Zm-1-2.45c-.21-.19.19.59-.11.12.29.64.57,1.3.83,2a8.16,8.16,0,0,0-.42-1.17C76.32,24,76.16,23.64,76.23,23.51ZM75.64,22a2.12,2.12,0,0,1-.47-.84,6.56,6.56,0,0,0-.49-1c-.06,0-.15-.08-.28-.26-.26-.38-.68-1.11-1.07-1.71a23.33,23.33,0,0,0-1.59-2.45c-.29-.11-.78-.94-1.28-1.38.1,0,.23,0,.51.29-.14-.18-.3-.34-.45-.51a3.22,3.22,0,0,1-.63-.54h.21c-.63-.65-1.31-1.27-2.1-2.14-.09,0,.15.42,0,.42a39.8,39.8,0,0,1,8.09,11.52c.08-.33-.49-.87-.69-1.56C75.57,22.06,75.81,22.71,75.64,22Zm-2.55-3.26.08.15,0-.11Zm-12,55.1ZM27.72,2.12a.52.52,0,0,0,.15-.07h0ZM18.47,72.54l-.06-.15C18.17,72.32,18.47,72.5,18.47,72.54ZM1.12,48.45h0v-.1S1.13,48.43,1.12,48.45Z"/><path class="cls-9" d="M78.57,30.83c.09.37.18.73.26,1.1,0-.05-.09.06-.1.19l.32.94-.26-.34c.12.94.64,2.22.44,2.72l-.1-.53a1.44,1.44,0,0,0,.06.94c0,.14.11.25.13.17v.34a20.11,20.11,0,0,1-.47-2c.08.22.21.76.26.58-.15-.63-.3-1.23-.45-1.81a2.77,2.77,0,0,0,.26.48c0-.7-.16-.5-.25-1,0-.21,0-.35.09-.23a18.52,18.52,0,0,1-.43-1.82S78.6,31.26,78.57,30.83Z"/><path class="cls-9" d="M79.85,40c0,.27-.08.67-.15.69v-.59h0a.71.71,0,0,0-.22-.13c0,.11-.07.12-.09,0-.1.09-.19.35-.3.95l.09,1-.12.31v-.84a2.36,2.36,0,0,0,0,1.12.79.79,0,0,0-.15.41l.16,1c-.1.12-.12-.45-.25.2,0,.47.26-.41.21.35-.17.46-.24.31-.24.89-.07.06-.08-.06-.08-.29a14.3,14.3,0,0,0-.09,1.6,5.85,5.85,0,0,0-.21,1c-.07.35-.17.62-.26.57A8.59,8.59,0,0,1,78,49.6c0-.88-.45,1.67-.65,1.38.09.68-.66,2.15-.94,3.23a.67.67,0,0,1,0-.2,9.4,9.4,0,0,1-.51,1c.14.15-.25,1-.37,1.56-.49.61,0-.51-.26-.37.16,0-.44,1.26-.21,1.08-.35.48-.27.43-.53.63.15.2-.18.52-.33.94-.54.67-.31.08-.72.95-.24.28,0-.18,0-.35-.45.72-.06.41-.08.63-.54,1-.38.38-.65.66a2.3,2.3,0,0,0-.4.88,3.69,3.69,0,0,1-.41.69s-.12.09-.08,0c-.34.68-1.3,1.79-1.71,2.57-.06,0-.09.06-.11.06.16,0,.24,0,.27,0-.28.32-.44.66-.64.71a.82.82,0,0,0,.21-.36l-.26.37c-.4.19.37-.49.27-.57a23.46,23.46,0,0,1-1.6,2c-.22,0,1-1.19.3-.63l.74-.72c-.72.41.43-.45-.26-.09-.94.94-.94,1.2-1.89,2.09-.16.27.17,0,0,.3-1.31,1.41-1.38.71-2.29,1.82A2.23,2.23,0,0,1,63.79,71L64,70.6c-1.05.77-.44.66-1.61,1.38a8.09,8.09,0,0,1,.61-.56c-.79.41-.44.46-1,.87l-.21-.06c-.58.37-1.19.79-1.81,1.2a13.2,13.2,0,0,1-2,1.2c.06-.08.26-.24-.08-.12-.86.45-1.8.94-2.74,1.32s-2,.63-2.84.94l-.63.38c-.15,0-.31,0-.15,0-.72.13,0,.09-.33.23s-.56.06-.31,0c-.61.22-1.49.5-2.39.77a6.06,6.06,0,0,1-1.33.28,11.51,11.51,0,0,1-1.18.12l.32-.17c-1,.11-1.14.47-2.14.48h.19c-1.15.09-2.36.12-3.5.19H40l-.8,0a8.85,8.85,0,0,1-1.44-.18,3.93,3.93,0,0,1-1.28,0c-.55,0-1.06-.14-1.16,0a22.93,22.93,0,0,0-2.71-.7c-.49-.08-.76,0-1.35-.09v-.16l-.83-.05-.39-.28-.49-.08c.2.07.37.16.34.19a8.07,8.07,0,0,1-1.38-.39,2.24,2.24,0,0,1-.69-.39l-2-.61a.86.86,0,0,1,.32,0c-.52-.15.09-.15-.79-.35.11.08-.1.06-.14.08a24.41,24.41,0,0,0-2.3-1.12h.2a42.44,42.44,0,0,1-4.43-2.44c.51.37.3.45-.16.19v-.08a.92.92,0,0,1-.27-.09c-.53-.39-.27-.4.07-.22l-.68-.43c0-.07.16,0,.23,0-.32-.12-1-.94-1.48-1.09v-.06L15.43,70c-.26-.21-.49-.42-.72-.61l-1.47-1.24c-.12.09-.5-.32-.9-.52-.68-.82-1.39-1.75-2.25-2.67-.63-.64-.26-.14-.57-.4.06-.13-.72-1.14-.25-.66L8.2,62.45l-.56-.69L7,60.81c.07.2.17.42.07.33-.19-.28-.36-.7-.29-.69a12.38,12.38,0,0,1-1.6-3c-.22-.56-.44-1.09-.67-1.59a6.3,6.3,0,0,0-.34-.69q-.12-.3-.24-.54l-.74-1.68c-.27-.77.25.43.11-.16-.21-.43-.38-.83-.53-1.21a6.67,6.67,0,0,1-.27-1.09,19.16,19.16,0,0,0-.57-2.1,19.17,19.17,0,0,0-.33-2.83c-.09-.56-.21-1.13-.27-1.67a8.9,8.9,0,0,1,0-1.46l-.08.09a2.3,2.3,0,0,1,0-.83c-.07.05-.06.47-.11.21a27.94,27.94,0,0,1,.12-5.56c.09-.94.32-1.88.47-2.77L2,32.16c.13-.45.25-.94.38-1.34.36-1.3-.23-.85.39-2.46v.52A32.63,32.63,0,0,1,4,24.93c.59-1.25,1.19-2.5,1.74-3.77a1.4,1.4,0,0,1-.1.45,7,7,0,0,0,1-1.89c.22-.34.12,0,.29-.23.36-.44.6-1.31.89-1.48v.1c.27-.41.94-1.21.64-1,.66-.76,1.09-1.6,1.67-2.15.23-.45,1.18-1.19,1.18-1.45.11.2,1.28-1.21,1.73-1.68-.12.19.45-.32.33-.08.54-.49,1-.94.83-.94,1.12-.75,2-1.89,2.77-2.06l1.22-1,1.29-.86L20.8,6l.63-.4.65-.34c0,.12-.47.32-.95.61s-.87.54-.77.61l1-.72.94-.56c.64-.36,1.28-.71,2.11-1.08.45-.18-.2.21-.33.31a14.57,14.57,0,0,1,2.48-1L27.8,3A9.63,9.63,0,0,1,29,2.52a1.3,1.3,0,0,1-.32.14c.31-.08.74-.16.67-.24l-.29.1c-.52,0,1-.53,1.19-.67-.38.36,1.61-.35.85.21.2-.07.44-.19.39-.23.31-.07.41,0,.12.1l1-.3a3.93,3.93,0,0,1,.84-.18c0,.05-.21.09-.3.17A8.14,8.14,0,0,1,35,1.17s0,.05-.07.07A21,21,0,0,1,39,.77c-.48.23.58,0,.67.21a6.76,6.76,0,0,1,.9,0L40.2.83c.79,0,1.49,0,2.17,0h-.59L43.27,1,42.43.84c.8,0,0-.22.94-.12A4.33,4.33,0,0,1,44.6,1,5.83,5.83,0,0,1,46,1.1c.14.07-.15.17-.06.23.39-.08,1.75.18,2.3.18-.12,0-.13.09-.09.12h.34c.35.13.39.16.32.21,1.07.3-.28-.3.94.12a1.22,1.22,0,0,1-.27,0,23.54,23.54,0,0,1,3.6,1c.28.3-1-.32-.67,0,.82.29,1.68.55,2.54.82a16.85,16.85,0,0,1,2.43.91l-.27-.15c.3-.11,1,.57,1.8.9h-.15c.94.64,2.06,1.15,3.57,2l-.21-.07c.51.45,1.41,1.1,2,1.56.22.08.55.34.39.12l1.21,1.16c.39.35.81.69,1.22,1a13,13,0,0,1,1.17,1.06A8.94,8.94,0,0,1,69,13.55c-.16-.18-.42-.39-.29-.25L70,14.53c0-.17-.1-.21-.28-.53a5.2,5.2,0,0,1,.86.76c-.58-.5-.13.1,0,.41,0-.05.08,0,.09,0,.39.84.26,0,1,1H71.5c.3.35.62.65,1,1.05,0,.24-.34-.36-.45-.32.42.55,1,.95,1.25,1.57a8.12,8.12,0,0,0-.62-.8,11.12,11.12,0,0,0,.55,1.09h0l.06.11a.19.19,0,0,0,.07.14h0l.06.14.32.59-.11-.27a3.82,3.82,0,0,1,.86,1.06l.39.64a5.64,5.64,0,0,0,.44.71c-.24-.34-.34-.44-.37-.43s.11.32,0,.31c.1.28.25.71.17.61.34.45.31.87.8,1.49,0,.05.25.54.09.47.34.63,0-.19.08-.16.62,1,.74,2.49,1.51,3.9.47,1.29.65,1.51,1.06,2.71-.24-1-.51-2-.83-3a1.2,1.2,0,0,1-.29-.45V27c-.14-.39-.28-.78-.43-1.16v-.07a1.21,1.21,0,0,0,0-.18c-.25-.66-.54-1.32-.82-2h0a.36.36,0,0,1-.07-.1h0A39.58,39.58,0,0,0,68,12c-.08,0-.23-.08-.53-.33,0,0,0-.1.09-.1a.37.37,0,0,1,.14,0,1.56,1.56,0,0,1-.37-.31l.44.26c-.37-.39-.27-.13-.58-.42.07-.05-.18-.25-.09-.27a3.51,3.51,0,0,0,.4.37,6.88,6.88,0,0,1-.84-.95c0,.07-.08.1-.35-.13-.68-.6-.16-.29-.52-.69-.19-.11-.63-.51-.72-.4a.81.81,0,0,1-.28-.33c-.4-.23-1.7-1.26-1.46-.9h0l.08.07-.1-.09h0a11.43,11.43,0,0,1-1-.65c-.3-.23-.66-.42-.94-.65-.67-.43-1.33-.89-2-1.25h0A19.86,19.86,0,0,0,57,4.2c-.27-.17-.59-.41-.47-.41-.65-.26-.72-.3-1.64-.71.23.06.29.06.29,0a1.33,1.33,0,0,1,.28.1,7.49,7.49,0,0,0-1.84-.66c.35,0-.59-.38-1-.49l.57.3c-.47-.15-.85-.31-1.26-.47h.26a10.58,10.58,0,0,0-2.48-.61A11.61,11.61,0,0,1,47.53.7c-.51,0,.95.23.53.3-.84-.16-1.73-.51-2-.55A18,18,0,0,0,43.78.3c.15.06.28.21-.64.22s-1-.28-.49-.3c.2,0,.3,0,.3.05.27,0,.64,0,.31-.09l-.13.05C42.72.15,41.54.1,41.81,0c-.51,0-.39.07-.08.11A15.92,15.92,0,0,0,39.15,0c.19,0,.35.08.17.09-1.66,0-.72.14-1.89.23-.64-.06.22-.22-.94-.1-.69,0-.16-.13.11-.2a4.93,4.93,0,0,1-.67.11,6.57,6.57,0,0,0-.67.07,5.21,5.21,0,0,0-1.11.07L34.46.2a4.37,4.37,0,0,0-.63.11l.33.06c-.32,0-.59.08-.59,0-.32.13.28.14-.35.34a8.8,8.8,0,0,1-1.44.15c1.22-.17,0-.14.72-.29l-.59.1L32,.62c-1.28.17-.54.34-1.78.62.11-.09-.17-.08-.4,0,.31-.05.08.12-.33.29a8.65,8.65,0,0,0-1.32.38l.51-.09c-.15.11-.56.2-1.11.45v0c-.56.24-1.31.29-2,.64-.42.1-.1-.13-.47,0a19.07,19.07,0,0,0-2,.87c.33,0,.37-.08-.27.35l1.58-.85-.95.65a12.31,12.31,0,0,1,1.29-.66c-.47.28-.41.26-.15.23-.72.16-1.26.71-2.08.94l-.09-.26A7.9,7.9,0,0,0,20.77,5,20.51,20.51,0,0,1,19,6.1l.48-.24a9.44,9.44,0,0,1-1.3.86c0-.1-.32,0-.55.11.07,0-.94.73-1,1L16,8.13a15,15,0,0,0-2,1.94c.21-.34-.26,0,.34-.63-.32.29-.63.53-.59.59-.23.12-.79.94-1.15,1.09a1.57,1.57,0,0,1-.44.58h0s-.48.57-.12.34a12.58,12.58,0,0,0-1.76,1.74l-.88,1a5.21,5.21,0,0,1-.71.78L6.89,17.86v-.09c-.6.87-.11.72-.87,1.78-.48.5.3-.66,0-.33-.34,0-.84,1.38-1.39,2.11l.1-.21c-.38.59-.62,1.53-1.12,2.57h0c-.24.73-.64,2.13-.94,3.15,0-.36.11-.49-.08-.33-.15.46.24-.07-.07.84a4.42,4.42,0,0,1-.63,1c.08-.3.2-.57.29-.86a2,2,0,0,0-.33.75,6.5,6.5,0,0,1-.17.82L1.63,29c-.33,1.36-.15,1.42-.54,2.83l.09-.14c0,.83-.23.66-.23,1.48l-.21.21c0,.54-.13,1.89-.19,2.83a15.76,15.76,0,0,1,0-2.38,13,13,0,0,0-.22,2.07,3.23,3.23,0,0,1,.07-.69c0,.66.08,1.53,0,2.59-.34-.17-.26,2.82-.4,3.58.12.94.13,1.89.18,2.83A29.48,29.48,0,0,0,.6,47.23c.16-.82.1.64.36.45.07.33.12.53.15.63v.1h0L1.34,50c0,.37-.19-.46-.23-.4.25,1.1,0,.49.11,1.24.06-.18.24.34.36.94l-.1-.94a8.32,8.32,0,0,1,.41,1.48,4.66,4.66,0,0,0,.43,1.45l-.26-.44c.17.37.43,1.08.71,1.78a5.72,5.72,0,0,0,1,1.66c0,.14,0,.35-.14,0a25.39,25.39,0,0,0,1.48,2.71,24.73,24.73,0,0,1,1.45,2.35l-.15-.08a8,8,0,0,1,.66.87s-.16-.07,0,.06A9.86,9.86,0,0,1,8,63.79l-.4-.29A15,15,0,0,0,9,65.39c.5.47,1,.89,1.56,1.46-.14.12.77,1.33,1.31,1.89h0a27.34,27.34,0,0,0,2.27,1.88c.72.53,1.53,1,2.36,1.6a9.39,9.39,0,0,0,.94.84c.4.3.89.58,1.38.89,1,.61,2.07,1.32,3,1.78-.26-.17.12-.12.45,0s1.26.45,1.11.59l-.15-.08a5,5,0,0,0,1.89,1l.21-.19a13.68,13.68,0,0,0,3.26,1.29,12.45,12.45,0,0,1,2.74.79,9.19,9.19,0,0,0,1.56.17v.13l1.71.3a12.79,12.79,0,0,0,1.95.22l-.35.08c1,0,1.22-.32,2.08-.3l.25.22a20.76,20.76,0,0,0,4.92-.1s-.07.09-.34.11c.78,0,3-.22,2.68-.44A8,8,0,0,0,48.34,79l-.1.16a6.93,6.93,0,0,1,1.69-.7c.2,0,.23,0,.06.06.64-.13.51-.26,1.43-.43l-.36.19a2.53,2.53,0,0,0,1.15-.47,4.74,4.74,0,0,1,1.68-.47,2.33,2.33,0,0,1,1-.49c.09,0-.08.1-.16.14.3-.09.6-.19.89-.3a6.29,6.29,0,0,0,.67-.37,7,7,0,0,1,1.24-.59.19.19,0,0,0,.18,0c-.95.46-1.73.82-1.76.82s.88-.26.29.21a17.39,17.39,0,0,1,2.43-1.43h.13l-.08,0a3.4,3.4,0,0,0,.5-.26c.25-.13.41-.21.64-.35a7.06,7.06,0,0,0,1.32-.73c-.11-.09.4-.37-.11-.19h0l-.33.21-.09.06a.13.13,0,0,0-.07.06h0l-.94.59a3.2,3.2,0,0,1,1-.68l.42-.51c.64-.15,1.71-.7,1.89-.73l1.76-1.43a8.59,8.59,0,0,0,.8-.69,5.49,5.49,0,0,0,.52-.65,1.09,1.09,0,0,1,.51-.32c-.15.17-.35.35-.43.47a14.2,14.2,0,0,0,1.73-1.83c.78-.62-.28.51.66-.48l-.08.18a16.47,16.47,0,0,0,2.33-2.67,18.76,18.76,0,0,1,2.15-2.88.49.49,0,0,1-.16.13,43.35,43.35,0,0,0,4.82-9.07A5.35,5.35,0,0,0,78,52l.21-.14a8.47,8.47,0,0,1,.1-1A9.51,9.51,0,0,1,78.84,49c.13-.31.24-.63.34-1a6.77,6.77,0,0,0,.13-1.19l-.13.2a9.15,9.15,0,0,1,.34-1.88.72.72,0,0,1,0-.46h.07a8.13,8.13,0,0,0,0-1.56c.12-1.2.29.22.39-1.56C80.05,40.94,79.92,39.74,79.85,40ZM60.39,74.4h0a.24.24,0,0,1-.06.11.88.88,0,0,1-.39.2Zm-3.28.78c.08,0,0,.08-.12.15a4.35,4.35,0,0,0-.61.2Z"/><path class="cls-9" d="M60.82,74l-.1.07-.09.06h-.05l.07-.08Z"/><polygon class="cls-9" points="31.28 77.83 31.28 77.86 31.44 77.87 31.28 77.83"/><path class="cls-9" d="M70.55,15.18a.61.61,0,0,0,0,.12A.55.55,0,0,1,70.55,15.18Z"/><path class="cls-9" d="M28.66,2.66h-.12C28.24,2.84,28.44,2.74,28.66,2.66Z"/><path class="cls-9" d="M44.6,1h-.52C44.36,1,44.58,1,44.6,1Z"/><polygon class="cls-9" points="13.39 11.72 13.39 11.72 13.3 11.78 13.39 11.72"/><path class="cls-9" d="M43.32.88a4.82,4.82,0,0,0,.76,0A4.82,4.82,0,0,0,43.32.88Z"/><path class="cls-9" d="M79.06,36v0Z"/><path class="cls-9" d="M79.13,36.54l-.06-.38A1.21,1.21,0,0,0,79.13,36.54Z"/><path class="cls-9" d="M78.32,31.35h0Z"/><path class="cls-9" d="M78,30a10.63,10.63,0,0,0,.25,1.25h0A8.85,8.85,0,0,0,78,30Z"/><path class="cls-9" d="M76.7,24.38c.14.36.25.74.37,1.11,0-.21,0-.49.15,0C76.85,24.05,77.23,25.82,76.7,24.38Z"/><path class="cls-9" d="M75.19,21.09c.29.56.06,0,.1,0C75.07,20.76,75,20.67,75.19,21.09Z"/><path class="cls-9" d="M56.32,3.64l.1-.09C56,3.36,56.4,3.6,56.32,3.64Z"/><path class="cls-9" d="M51.46,2.47l.41.2h.25A5.53,5.53,0,0,0,51.46,2.47Z"/><polygon class="cls-9" points="48.82 0.91 49.02 0.94 48.23 0.79 48.82 0.91"/><path class="cls-9" d="M9.07,14.58h.21C9.46,14.3,9.39,14.16,9.07,14.58Z"/><path class="cls-9" d="M1,31.61a1.94,1.94,0,0,0-.24,1C.83,32.22,1,31.81,1,31.61Z"/><polygon class="cls-9" points="26.15 77.53 25.77 77.45 26.48 77.66 26.15 77.53"/><path class="cls-10" d="M66.72,20.9l3.59,4.62a4.08,4.08,0,0,1-.72,5.73h0a4.1,4.1,0,0,1-5.75-.73l-3.59-4.61A4.08,4.08,0,0,1,61,20.18h0A4.1,4.1,0,0,1,66.72,20.9Z"/><ellipse class="cls-10" cx="52.66" cy="13.27" rx="3.94" ry="3.93"/></g><g id="back-2" data-name="back"><path class="cls-10" d="M92.37,38.58h-.06v-2h.05a23.6,23.6,0,0,0,4.82-.49l.4,2A26.12,26.12,0,0,1,92.37,38.58Z"/><path class="cls-10" d="M97.6,38.05l-.41-2A24.1,24.1,0,0,0,115.91,17.3l2,.4A26.1,26.1,0,0,1,97.6,38.05Z"/><path class="cls-10" d="M117.87,17.7l-2-.4a24.12,24.12,0,0,0,.48-4.8h2A26,26,0,0,1,117.87,17.7Z"/><path class="cls-10" d="M118.39,67.58h-2a23.5,23.5,0,0,0-.5-4.88l2-.4A26,26,0,0,1,118.39,67.58Z"/><path class="cls-10" d="M115.89,62.7A24.08,24.08,0,0,0,97.19,44l.41-2A26.09,26.09,0,0,1,117.85,62.3Z"/><path class="cls-10" d="M97.19,44a24.17,24.17,0,0,0-4.87-.5h0v-2h0A26.07,26.07,0,0,1,97.6,42Z"/><path class="cls-10" d="M142.6,44l-.41-2a26,26,0,0,1,5.28-.54h0v2h0A24.1,24.1,0,0,0,142.6,44Z"/><path class="cls-10" d="M123.89,62.7l-2-.4A26.12,26.12,0,0,1,142.19,42l.41,2A24.1,24.1,0,0,0,123.89,62.7Z"/><path class="cls-10" d="M121.39,67.58a26.07,26.07,0,0,1,.54-5.28l2,.4a24.35,24.35,0,0,0-.5,4.88Z"/><path class="cls-10" d="M121.91,17.7a26.74,26.74,0,0,1-.52-5.2h2a24.19,24.19,0,0,0,.48,4.8Z"/><path class="cls-10" d="M142.19,38.05A26.1,26.1,0,0,1,121.91,17.7l2-.4A24.1,24.1,0,0,0,142.6,36.09Z"/><path class="cls-10" d="M147.42,38.58a26.29,26.29,0,0,1-5.23-.53l.4-2a23.77,23.77,0,0,0,4.83.49h.05v2Z"/><path class="cls-10" d="M132.39,18.5a1,1,0,0,1-1-1V7.5a1,1,0,0,1,2,0v10A1,1,0,0,1,132.39,18.5Z"/><path class="cls-10" d="M152.39,28.5h-10a1,1,0,0,1,0-2h10a1,1,0,0,1,0,2Z"/><path class="cls-10" d="M137.39,23.5a1,1,0,0,1-.7-1.71l7.07-7.07a1,1,0,0,1,1.41,0,1,1,0,0,1,0,1.42l-7.07,7.07A1,1,0,0,1,137.39,23.5Z"/><path class="cls-10" d="M107.39,73.5a1,1,0,0,1-1-1v-10a1,1,0,1,1,2,0v10A1,1,0,0,1,107.39,73.5Z"/><path class="cls-10" d="M97.39,53.5h-10a1,1,0,1,1,0-2h10a1,1,0,0,1,0,2Z"/><path class="cls-10" d="M95.32,65.57a1,1,0,0,1-.7-1.71l7.07-7.07a1,1,0,0,1,1.41,0,1,1,0,0,1,0,1.42L96,65.28A1,1,0,0,1,95.32,65.57Z"/></g></svg>