<svg id="Livello_1" data-name="Livello 1" xmlns="http://www.w3.org/2000/svg" xmlns:xlink="http://www.w3.org/1999/xlink" viewBox="0 0 160 80"><defs><style>.cls-1{fill:#a9d1dc;}.cls-2{fill:url(#Sfumatura_senza_nome_7);}.cls-3{fill:url(#Sfumatura_senza_nome_7-2);}.cls-4{fill:url(#Sfumatura_senza_nome_7-3);}.cls-5{fill:url(#Sfumatura_senza_nome_7-4);}.cls-6{fill:url(#Sfumatura_senza_nome_7-5);}.cls-7{fill:url(#Sfumatura_senza_nome_7-6);}.cls-8{fill:url(#Sfumatura_senza_nome_7-7);}.cls-9{fill:#f7f8e4;}.cls-10{fill:#fff;}</style><radialGradient id="Sfumatura_senza_nome_7" cx="56.63" cy="426.95" r="0.3" gradientTransform="matrix(1, 0, 0, -1, 0, 502.3)" gradientUnits="userSpaceOnUse"><stop offset="0" stop-color="#fff" stop-opacity="0"/><stop offset="0.3" stop-color="#fff" stop-opacity="0.01"/><stop offset="0.48" stop-color="#fff" stop-opacity="0.04"/><stop offset="0.63" stop-color="#fff" stop-opacity="0.1"/><stop offset="0.77" stop-color="#fff" stop-opacity="0.18"/><stop offset="0.89" stop-color="#fff" stop-opacity="0.28"/><stop offset="1" stop-color="#fff" stop-opacity="0.4"/></radialGradient><radialGradient id="Sfumatura_senza_nome_7-2" cx="67.53" cy="490.57" r="0.24" xlink:href="#Sfumatura_senza_nome_7"/><radialGradient id="Sfumatura_senza_nome_7-3" cx="75.88" cy="478.77" r="0.05" xlink:href="#Sfumatura_senza_nome_7"/><radialGradient id="Sfumatura_senza_nome_7-4" cx="76.8" cy="476.59" r="0.09" xlink:href="#Sfumatura_senza_nome_7"/><radialGradient id="Sfumatura_senza_nome_7-5" cx="77.4" cy="474.9" r="0.31" xlink:href="#Sfumatura_senza_nome_7"/><radialGradient id="Sfumatura_senza_nome_7-6" cx="78.69" cy="469.84" r="0.41" xlink:href="#Sfumatura_senza_nome_7"/><radialGradient id="Sfumatura_senza_nome_7-7" cx="40.23" cy="462.38" r="39.22" xlink:href="#Sfumatura_senza_nome_7"/></defs><title>bubble1</title><g id="back"><rect class="cls-1" x="34.56" y="45.37" width="10.72" height="10.72"/><rect class="cls-1" x="23.85" y="34.65" width="10.72" height="10.72"/><rect class="cls-1" x="34.56" y="23.93" width="10.72" height="10.72"/><rect class="cls-1" x="45.28" y="34.65" width="10.72" height="10.72"/><path class="cls-2" d="M57,75.17c.09,0,0,.09-.12.15s-.36.13-.61.2Z"/><path class="cls-3" d="M67.79,12c-.07,0-.23-.09-.53-.34,0,0,0-.1.09-.1S67.65,11.8,67.79,12Z"/><path class="cls-4" d="M75.92,23.59a.18.18,0,0,1-.07-.1h0A.36.36,0,0,0,75.92,23.59Z"/><path class="cls-5" d="M76.84,25.77a.54.54,0,0,0,0-.18,1.06,1.06,0,0,1,.09.25Z"/><path class="cls-6" d="M77.25,27.38V27c.09.26.19.54.27.81A1.53,1.53,0,0,1,77.25,27.38Z"/><path class="cls-7" d="M78.64,32,78.85,33l-.31-.9c0-.12,0-.24.09-.19S78.64,32,78.64,32Z"/><path class="cls-8" d="M79.45,39.93V40a.71.71,0,0,0-.22-.13c0,.11-.06.12-.09,0a2.09,2.09,0,0,0-.3,1l.08,1-.12.3V41.4a2.32,2.32,0,0,0,0,1.11.73.73,0,0,0-.14.42l.16,1c-.11.11-.13-.45-.26.2,0,.47.27-.42.21.35-.17.46-.24.31-.24.89-.06.06-.08-.06-.07-.29a12.17,12.17,0,0,0-.1,1.6,5.6,5.6,0,0,0-.2,1c-.08.35-.17.62-.27.58a8.74,8.74,0,0,1-.17,1.35c0-.88-.44,1.67-.64,1.38.08.67-.66,2.14-.9,3.23V54a8.35,8.35,0,0,1-.5,1c.14.14-.25,1-.37,1.55-.49.62,0-.5-.26-.37.16,0-.44,1.26-.21,1.08-.35.48-.27.44-.53.63.15.2-.18.52-.33,1-.54.67-.31.07-.72.9-.24.29,0-.18,0-.35-.45.73-.06.42-.08.64-.54,1-.38.38-.65.66a2.2,2.2,0,0,0-.4.87,3.77,3.77,0,0,1-.41.7s-.12.08-.08,0c-.33.68-1.29,1.78-1.7,2.57-.06,0-.09.06-.11.06.16,0,.24,0,.27,0-.28.32-.44.65-.64.7a1,1,0,0,0,.22-.35l-.27.36c-.4.19.37-.48.27-.56a23.6,23.6,0,0,1-1.6,2c-.22,0,1-1.19.3-.63l.74-.72c-.72.4.43-.45-.26-.1-1,1-.91,1.2-1.93,2.1-.16.27.17,0,0,.29-1.3,1.42-1.37.72-2.27,1.83A2.31,2.31,0,0,1,63.58,71l.16-.35c-1,.76-.43.66-1.61,1.38a7.67,7.67,0,0,1,.74-.53c-.79.4-.45.45-1,.87l-.21-.06c-.59.37-1.19.79-1.82,1.2a13.63,13.63,0,0,1-2,1.2c0-.07.26-.24-.08-.12-.85.44-1.79.9-2.73,1.31s-2,.63-2.83.92l-.64.38h-.15c-.72.13,0,.09-.33.24s-.56,0-.31,0c-.61.22-1.48.5-2.38.76a6.62,6.62,0,0,1-1.32.29c-.44.06-.85.1-1.19.12l.26-.09c-1,.11-1.14.47-2.14.49h.19c-1.14.08-2.35.11-3.49.19h-.85l-.81-.06a7.64,7.64,0,0,1-1.42-.18,4,4,0,0,1-1.29,0c-.55,0-1.06-.14-1.15,0a25.49,25.49,0,0,0-2.7-.7c-.5-.07-.76,0-1.36-.09v-.28h-.8l-.42-.33-.49-.08c.2.07.38.16.34.19a8.5,8.5,0,0,1-1.37-.39,2.24,2.24,0,0,1-.69-.39l-2-.61a.86.86,0,0,1,.32,0c-.52-.15.09-.15-.79-.35.11.07-.11,0-.14.07a23.84,23.84,0,0,0-2.29-1.11H23a38.62,38.62,0,0,1-4.41-2.44c.51.37.29.45-.17.19v-.08a.71.71,0,0,1-.28-.09c-.53-.4-.26-.41.07-.22l-.67-.43c0-.07.15,0,.22,0-.32-.13-1-1-1.48-1.1v-.06c-.35-.27-.66-.48-.93-.68s-.49-.43-.71-.62l-1.41-1.24c-.11.09-.5-.32-.9-.53-.71-.78-1.38-1.68-2.27-2.67-.62-.64-.25-.13-.56-.4.05-.13-.72-1.14-.26-.66L8.18,62.44c-.17-.2-.35-.42-.55-.69l-.68-1c.06.19.17.41.07.32-.2-.27-.37-.7-.29-.69a12.5,12.5,0,0,1-1.59-3c-.23-.56-.44-1.1-.67-1.58a7.56,7.56,0,0,0-.34-.7c-.13-.21-.13-.4-.25-.56L3.15,52.9c-.27-.78.25.43.11-.16s-.38-.83-.53-1.21a6.67,6.67,0,0,1-.27-1.09,16.87,16.87,0,0,0-.58-2.11,16.7,16.7,0,0,0-.33-2.82c-.09-.56-.2-1.14-.26-1.67a9,9,0,0,1,0-1.47l-.08.1a2.3,2.3,0,0,1,0-.83c-.07,0-.06.48-.11.21a27.09,27.09,0,0,1,.12-5.55c.09-.94.31-1.86.46-2.78L2,32.17c.13-.46.25-.9.37-1.34.36-1.31-.22-.86.4-2.47v.52a33.17,33.17,0,0,1,1.3-4c.6-1.26,1.19-2.5,1.74-3.73a2,2,0,0,1-.13.41,6.73,6.73,0,0,0,1-1.85c.23-.35.12,0,.29-.24.36-.44.61-1.3.89-1.47v.1c.27-.41.92-1.22.64-1,.66-.76,1.08-1.6,1.67-2.15.25-.49,1.21-1.23,1.17-1.48.12.19,1.29-1.22,1.73-1.69-.11.19.45-.32.33-.08.54-.49,1-1,.83-1,1.13-.74,2-1.84,2.76-2.05l1.22-1c.44-.29.87-.57,1.29-.86s.84-.54,1.24-.82l.63-.4.6-.33c0,.12-.47.32-.91.61s-.87.54-.77.61l1-.72,1-.56c.63-.36,1.28-.7,2.11-1.08.43-.18-.2.21-.33.31a14.58,14.58,0,0,1,2.46-1L27.72,3A10.69,10.69,0,0,1,29,2.52a1.61,1.61,0,0,1-.33.15c.32-.09.74-.17.68-.25l-.3.1c-.52,0,1-.53,1.18-.67-.37.36,1.61-.35.85.21.2-.07.45-.19.39-.24.31-.06.42,0,.12.11.54-.18.72-.25.9-.3a3.4,3.4,0,0,1,.84-.18,1.81,1.81,0,0,0-.3.17,8.76,8.76,0,0,1,1.9-.45s0,.05-.07.07A21,21,0,0,1,38.92.77c-.47.22.58,0,.68.2.3,0,.6,0,.89,0L40.1.82h3.07l-.85,0c.81,0,0-.23,1-.12a5,5,0,0,1,1.21.22,7,7,0,0,1,1.38.14c.14.07-.15.17-.06.22.39-.07,1.75.19,2.29.19-.11,0-.12.09-.09.12h.33c.35.13.4.16.33.22,1.06.29-.29-.31,1,.11a1.22,1.22,0,0,1-.27,0,24.82,24.82,0,0,1,3.59,1c.27.29-1-.32-.67,0,.82.29,1.68.55,2.54.82a18,18,0,0,1,2.41,1L57,4.61c.31-.11,1,.57,1.79.89h-.15c1,.64,2.06,1.15,3.56,2L62,7.43c.5.45,1.4,1.1,2,1.56.21.08.54.34.39.12.43.39.82.77,1.2,1.15a12.08,12.08,0,0,0,1.21,1,10.27,10.27,0,0,1,1.17,1,8.75,8.75,0,0,1,1,1.19c-.16-.18-.43-.39-.29-.24l1.19,1.21c0-.17-.1-.2-.28-.51a4.66,4.66,0,0,1,.85.75c-.57-.51-.12.1,0,.41h.1c.38.84.26,0,.88,1h-.07c.29.36.6.65.89,1.06,0,.23-.34-.36-.45-.32a7.14,7.14,0,0,1,1.25,1.57,9.65,9.65,0,0,0-.62-.81c.17.37.35.74.55,1.1h0l.06.11a.34.34,0,0,1,.06.12h0l.07.14.32.6-.11-.28a4.45,4.45,0,0,1,.86,1.07c.12.21.25.42.39.64a4,4,0,0,0,.44.71c-.25-.34-.34-.44-.37-.43s.11.32,0,.31c.09.28.25.71.16.62.34.44.31.86.8,1.48,0,0,.26.54.1.47.34.62,0-.19.07-.16.62.95.73,2.5,1.51,3.9.46,1.29.65,1.51,1,2.72,0,.44-.25-.3-.25-.3a16.21,16.21,0,0,0,.43,1.83c-.06-.13-.07,0-.09.22.09.5.22.31.25,1a2.77,2.77,0,0,1-.26-.48c.15.6.3,1.2.45,1.82,0,.18-.18-.36-.26-.58a20,20,0,0,0,.47,2V36c0,.08-.09,0-.13-.17-.2-.59-.1-.89-.06-.92l.11.45c.19-.5-.33-1.82-.45-2.71l.26.33A40,40,0,0,1,79.45,39.93Z"/><path class="cls-9" d="M79.23,39.93c0,.11-.06.12-.09,0h0l-.08-.54.17.25A.71.71,0,0,1,79.23,39.93Z"/><path class="cls-9" d="M79.31,37.54c-.1-.41-.26-.89-.39-.6.17.4.12.51.32,1,0,.35,0,.62-.08.57a2.07,2.07,0,0,0,.1.74,4.27,4.27,0,0,0-.06-1.67C79.23,37.39,79.28,37.51,79.31,37.54Z"/><path class="cls-9" d="M63,7.62l.17.16A1.29,1.29,0,0,0,63,7.62Z"/><path class="cls-9" d="M42.59.28h.25A1,1,0,0,0,42.59.28Z"/><path class="cls-9" d="M38.84,0h.22A.41.41,0,0,0,38.84,0Z"/><path class="cls-9" d="M63,7.62l-.44-.39C62.45,7.25,62.74,7.44,63,7.62Z"/><path class="cls-9" d="M78.37,32.8c0,.1,0,.2.08.3l-.06-.29Z"/><path class="cls-9" d="M70.18,14l.12.12.15.07Z"/><path class="cls-9" d="M74.48,20.09c-.08-.15-.22-.13-.31-.16a.87.87,0,0,1,.27.27A.2.2,0,0,0,74.48,20.09Z"/><path class="cls-9" d="M78.55,31.08l.07.2Z"/><path class="cls-9" d="M66.46,10.23a.14.14,0,0,0,0-.09A.12.12,0,0,0,66.46,10.23Z"/><path class="cls-9" d="M77.91,48.3Z"/><path class="cls-9" d="M79.49,39.93v.12h.07Z"/><path class="cls-9" d="M31.94.61h0C32.17.57,32.07.58,31.94.61Z"/><path class="cls-9" d="M.83,48.43c-.06-.72.44,1.1.3,0C1.1,48.56.68,47.54.83,48.43Z"/><path class="cls-9" d="M78.35,32.61v-.29A.69.69,0,0,0,78.35,32.61Z"/><path class="cls-9" d="M1.13,48.45h0v0Z"/><path class="cls-9" d="M17.41,6.85h.16S17.52,6.8,17.41,6.85Z"/><path class="cls-9" d="M28.1,1.87,27.82,2Z"/><path class="cls-9" d="M12.75,10.85c-.11.09-.22.18-.32.28h.06A1.16,1.16,0,0,1,12.75,10.85Z"/><path class="cls-9" d="M8.46,15.56l.09-.08.12-.17Z"/><path class="cls-9" d="M69.65,65.12a.78.78,0,0,1,.29-.14C69.8,65,70.39,64.29,69.65,65.12Z"/><path class="cls-9" d="M78.44,32.79a.65.65,0,0,1-.09-.18v.2S78.43,32.82,78.44,32.79Z"/><path class="cls-9" d="M13.28,11.79l-.74.65A7.27,7.27,0,0,1,13.28,11.79Z"/><path class="cls-9" d="M29.2,77.38h0Z"/><path class="cls-9" d="M10.58,14.61a4,4,0,0,0-.44.35.91.91,0,0,0-.06.11Z"/><path class="cls-9" d="M79.14,39.93c0,.08.08.07.09,0A.08.08,0,0,0,79.14,39.93ZM78.54,31l-.2-.57c0,.09.09-.08.15.13-.18-1.09-.59-1.67-.55-2.13-.34-1-.27-.57-.4-.65A34.84,34.84,0,0,1,78.63,32h0a.84.84,0,0,1,.1.27c0-.68-.2-.55-.22-1.13,0-.06,0-.07,0-.05ZM77,26c-.27-.49-.07,0-.19-.12.15.38.3.77.43,1.17v-.52l-.2-.1C77.06,26.23,77,26,77,26ZM76,23.5c-.21-.18.18.6-.1.12.27.65.55,1.31.81,2a7.1,7.1,0,0,0-.42-1.17C76.13,24,76,23.63,76,23.5ZM75.41,22a1.9,1.9,0,0,1-.47-.84,7.77,7.77,0,0,0-.5-1,.84.84,0,0,1-.27-.26c-.26-.38-.68-1.11-1.08-1.7a19.86,19.86,0,0,0-1.59-2.46c-.27-.11-.76-.91-1.26-1.39.09,0,.23,0,.51.3-.14-.18-.3-.34-.45-.5a3.32,3.32,0,0,1-.63-.54h.21c-.63-.65-1.31-1.27-2.1-2.14-.09,0,.15.42,0,.42a39.4,39.4,0,0,1,8.07,11.6c.09-.32-.48-.86-.69-1.55C75.38,22.07,75.63,22.72,75.41,22ZM72.9,18.72l.09.14-.06-.1Zm-12,55.14ZM27.66,2.12,27.81,2h0ZM18.43,72.54l-.06-.16C18.13,72.32,18.43,72.5,18.43,72.54ZM1.13,48.45h0v0Z"/><path class="cls-9" d="M78.37,30.84c.09.36.19.72.26,1.09,0-.05-.09.07-.09.19l.31.9-.26-.33c.12.89.64,2.21.45,2.71l-.11-.46a1.39,1.39,0,0,0,.06.92c0,.14.11.25.13.17v.34a20,20,0,0,1-.47-2c.08.22.21.76.26.58-.15-.62-.3-1.22-.45-1.82a2.77,2.77,0,0,0,.26.48c0-.7-.16-.5-.25-1,0-.2,0-.35.09-.22a16.21,16.21,0,0,1-.43-1.83S78.4,31.26,78.37,30.84Z"/><path class="cls-9" d="M79.65,40c0,.27-.08.67-.15.69v-.59h0a.71.71,0,0,0-.22-.13c0,.11-.06.12-.09,0a2,2,0,0,0-.35,1l.08,1-.12.3V41.4a2.32,2.32,0,0,0,0,1.11.73.73,0,0,0-.14.42l.16,1c-.11.11-.13-.45-.26.2,0,.47.27-.42.21.35-.17.46-.24.31-.24.89-.06.06-.08-.06-.07-.29a12.17,12.17,0,0,0-.1,1.6,5.6,5.6,0,0,0-.2,1c-.08.35-.17.62-.27.58a8.74,8.74,0,0,1-.17,1.35c0-.88-.44,1.67-.64,1.38.08.67-.66,2.14-.9,3.23V54a8.35,8.35,0,0,1-.5,1c.14.14-.25,1-.37,1.55-.49.62,0-.5-.26-.37.16,0-.44,1.26-.21,1.08-.35.48-.27.44-.53.63.15.2-.18.52-.33,1-.54.67-.31.07-.72.9-.24.29,0-.18,0-.35-.45.73-.06.42-.08.64-.54,1-.38.38-.65.66a2.2,2.2,0,0,0-.4.87,3.77,3.77,0,0,1-.41.7s-.12.08-.08,0c-.33.68-1.29,1.78-1.7,2.57-.06,0-.09.06-.11.06.16,0,.24,0,.27,0-.28.32-.44.65-.64.7a1,1,0,0,0,.22-.35l-.27.36c-.4.19.37-.48.27-.56a23.6,23.6,0,0,1-1.6,2c-.22,0,1-1.19.3-.63l.74-.72c-.72.4.43-.45-.26-.1-1,1-.91,1.2-1.93,2.1-.16.27.17,0,0,.29-1.3,1.42-1.37.72-2.27,1.83A2.31,2.31,0,0,1,63.58,71l.16-.35c-1,.76-.43.66-1.61,1.38a7.67,7.67,0,0,1,.74-.53c-.79.4-.45.45-1,.87l-.21-.06c-.59.37-1.19.79-1.82,1.2a13.63,13.63,0,0,1-2,1.2c0-.07.26-.24-.08-.12-.85.44-1.79.9-2.73,1.31s-2,.63-2.83.92l-.64.38h-.15c-.72.13,0,.09-.33.24s-.56,0-.31,0c-.61.22-1.48.5-2.38.76a6.62,6.62,0,0,1-1.32.29c-.44.06-.85.1-1.19.12l.26-.09c-1,.11-1.14.47-2.14.49h.19c-1.14.08-2.35.11-3.49.19h-.85l-.81-.06a7.64,7.64,0,0,1-1.42-.18,4,4,0,0,1-1.29,0c-.55,0-1.06-.14-1.15,0a25.49,25.49,0,0,0-2.7-.7c-.5-.07-.76,0-1.36-.09v-.28h-.8l-.42-.33-.49-.08c.2.07.38.16.34.19a8.5,8.5,0,0,1-1.37-.39,2.24,2.24,0,0,1-.69-.39l-2-.61a.86.86,0,0,1,.32,0c-.52-.15.09-.15-.79-.35.11.07-.11,0-.14.07a23.84,23.84,0,0,0-2.29-1.11H23a38.62,38.62,0,0,1-4.41-2.44c.51.37.29.45-.17.19v-.08a.71.71,0,0,1-.28-.09c-.53-.4-.26-.41.07-.22l-.67-.43c0-.07.15,0,.22,0-.32-.13-1-1-1.48-1.1v-.06c-.35-.27-.66-.48-.93-.68s-.49-.43-.71-.62l-1.41-1.24c-.11.09-.5-.32-.9-.53-.71-.78-1.38-1.68-2.27-2.67-.62-.64-.25-.13-.56-.4.05-.13-.72-1.14-.26-.66L8.18,62.44c-.17-.2-.35-.42-.55-.69l-.68-1c.06.19.17.41.07.32-.2-.27-.37-.7-.29-.69a12.5,12.5,0,0,1-1.59-3c-.23-.56-.44-1.1-.67-1.58a7.56,7.56,0,0,0-.34-.7c-.13-.21-.13-.4-.25-.56L3.15,52.9c-.27-.78.25.43.11-.16s-.38-.83-.53-1.21a6.67,6.67,0,0,1-.27-1.09,16.87,16.87,0,0,0-.58-2.11,16.7,16.7,0,0,0-.33-2.82c-.09-.56-.2-1.14-.26-1.67a9,9,0,0,1,0-1.47l-.08.1a2.3,2.3,0,0,1,0-.83c-.07,0-.06.48-.11.21a27.09,27.09,0,0,1,.12-5.55c.09-.94.31-1.86.46-2.78L2,32.17c.13-.46.25-.9.37-1.34.36-1.31-.22-.86.4-2.47v.52a33.17,33.17,0,0,1,1.3-4c.6-1.26,1.19-2.5,1.74-3.73a2,2,0,0,1-.13.41,6.73,6.73,0,0,0,1-1.85c.23-.35.12,0,.29-.24.36-.44.61-1.3.89-1.47v.1c.27-.41.92-1.22.64-1,.66-.76,1.08-1.6,1.67-2.15.25-.49,1.21-1.23,1.17-1.48.12.19,1.29-1.22,1.73-1.69-.11.19.45-.32.33-.08.54-.49,1-1,.83-1,1.13-.74,2-1.84,2.76-2.05l1.22-1c.44-.29.87-.57,1.29-.86s.84-.54,1.24-.82l.63-.4.6-.33c0,.12-.47.32-.91.61s-.87.54-.77.61l1-.72,1-.56c.63-.36,1.28-.7,2.11-1.08.43-.18-.2.21-.33.31a14.58,14.58,0,0,1,2.46-1L27.72,3A10.69,10.69,0,0,1,29,2.52a1.61,1.61,0,0,1-.33.15c.32-.09.74-.17.68-.25l-.3.1c-.52,0,1-.53,1.18-.67-.37.36,1.61-.35.85.21.2-.07.45-.19.39-.24.31-.06.42,0,.12.11.54-.18.72-.25.9-.3a3.4,3.4,0,0,1,.84-.18,1.81,1.81,0,0,0-.3.17,8.76,8.76,0,0,1,1.9-.45s0,.05-.07.07A21,21,0,0,1,38.92.77c-.47.22.58,0,.68.2.3,0,.6,0,.89,0L40.1.82h3.07l-.85,0c.81,0,0-.23,1-.12a5,5,0,0,1,1.21.22,7,7,0,0,1,1.38.14c.14.07-.15.17-.06.22.39-.07,1.75.19,2.29.19-.11,0-.12.09-.09.12h.33c.35.13.4.16.33.22,1.06.29-.29-.31,1,.11a1.22,1.22,0,0,1-.27,0,24.82,24.82,0,0,1,3.59,1c.27.29-1-.32-.67,0,.82.29,1.68.55,2.54.82a18,18,0,0,1,2.41,1L57,4.61c.31-.11,1,.57,1.79.89h-.15c1,.64,2.06,1.15,3.56,2L62,7.43c.5.45,1.4,1.1,2,1.56.21.08.54.34.39.12.43.39.82.77,1.2,1.15a12.08,12.08,0,0,0,1.21,1,10.27,10.27,0,0,1,1.17,1,8.75,8.75,0,0,1,1,1.19c-.16-.18-.43-.39-.29-.24l1.19,1.21c0-.17-.1-.2-.28-.51a4.66,4.66,0,0,1,.85.75c-.57-.51-.12.1,0,.41h.1c.38.84.26,0,.88,1h-.07c.29.36.6.65.89,1.06,0,.23-.34-.36-.45-.32a7.14,7.14,0,0,1,1.25,1.57,9.65,9.65,0,0,0-.62-.81c.17.37.35.74.55,1.1h0l.06.11a.34.34,0,0,1,.06.12h0l.07.14.32.6-.11-.28a4.45,4.45,0,0,1,.86,1.07c.12.21.25.42.39.64a4,4,0,0,0,.44.71c-.25-.34-.34-.44-.37-.43s.11.32,0,.31c.09.28.25.71.16.62.34.44.31.86.8,1.48,0,0,.26.54.1.47.34.62,0-.19.07-.16.62.95.73,2.5,1.51,3.9.46,1.28.65,1.51,1,2.71-.24-1-.51-2-.83-3a1.6,1.6,0,0,1-.29-.44v-.37c-.13-.4-.28-.79-.43-1.17v-.07a.54.54,0,0,0,0-.18c-.26-.66-.54-1.32-.81-2h0a.2.2,0,0,1-.07-.09h0A39.34,39.34,0,0,0,67.79,12c-.07,0-.23-.09-.53-.34,0,0,0-.1.09-.1a.34.34,0,0,1,.14,0,2.64,2.64,0,0,1-.37-.31l.44.25c-.36-.39-.27-.12-.58-.41.07-.06-.18-.26-.09-.28a4.61,4.61,0,0,0,.4.37,6.12,6.12,0,0,1-.83-1c0,.07-.08.1-.35-.13-.68-.6-.16-.29-.52-.68C65.4,9.3,65,8.9,64.87,9a.72.72,0,0,1-.27-.33c-.41-.23-1.7-1.26-1.47-.9h0l.09.06h-.07c-.32-.2-.64-.42-.95-.66s-.66-.42-1-.65c-.67-.43-1.33-.89-2-1.26h0a18.41,18.41,0,0,0-2.45-1.08c-.24-.11-.54-.35-.41-.35-.66-.26-.72-.3-1.65-.71.24.06.29.06.29,0l.29.1a7.71,7.71,0,0,0-1.85-.66c.35,0-.59-.38-1-.49l.56.3c-.45-.15-.84-.31-1.25-.47L52,1.83a11.19,11.19,0,0,0-2.49-.61A10.17,10.17,0,0,1,47.42.7c-.51,0,1,.23.53.29-.84-.15-1.69-.51-2-.55A21.82,21.82,0,0,0,43.67.29c.15.07.28.22-.63.23s-1-.28-.49-.3c.2,0,.29,0,.29.05.28,0,.64,0,.32-.1L43,.23C42.62.14,41.44.11,41.71,0c-.51,0-.39.07-.08.09A15.74,15.74,0,0,0,39.06,0c.18,0,.34.07.17.08-1.66,0-.72.14-1.84.22-.64-.06.22-.21-.91-.09-.69,0-.17-.13.11-.19-.25,0-.5.06-.75.07s-.46.05-.67.07l-1.1.06.31-.07a4.14,4.14,0,0,0-.63.1l.33.07a1.47,1.47,0,0,1-.59,0c-.31.12.28.14-.35.34A8.8,8.8,0,0,1,31.7.83c1.22-.17,0-.14.72-.29l-.58.13.1-.06c-1.29.17-.55.31-1.84.63.12-.1-.17-.09-.39,0,.31-.05.07.12-.32.29a10,10,0,0,0-1.32.38l.5-.09c-.14.11-.55.21-1.1.45v0c-.56.24-1.32.3-2,.65-.41.09-.09-.14-.46,0a18.44,18.44,0,0,0-2,.87c.33,0,.37-.09-.27.35l1.57-.85-1,.65a9.78,9.78,0,0,1,1.29-.66c-.47.28-.41.25-.15.22-.72.17-1.26.72-2.08,1l-.09-.27A8.67,8.67,0,0,0,20.65,5,16.35,16.35,0,0,1,19,6.06l.48-.24a10,10,0,0,1-1.29.86c0-.1-.33,0-.55.12.06,0-1,.72-1,1L16,8.15a15.59,15.59,0,0,0-2,2c.22-.34-.25,0,.34-.64-.32.3-.62.54-.58.6-.23.12-.8.9-1.16,1.09a1.38,1.38,0,0,1-.43.58h0s-.48.58-.12.34a12.06,12.06,0,0,0-1.75,1.75l-.88,1a4.45,4.45,0,0,1-.71.79L6.88,17.86v-.08c-.61.86-.11.71-.86,1.76-.48.5.28-.65,0-.32-.34,0-.84,1.38-1.39,2.11l.08-.21c-.39.58-.63,1.57-1.13,2.56h0c-.24.74-.64,2.14-1,3.16,0-.36.11-.48-.08-.33-.15.46.24-.07-.06.85-.16.27-.47.89-.61.94.08-.28.2-.55.3-.85a2,2,0,0,0-.33.75c-.06.29-.11.59-.18.82V29c-.32,1.36-.15,1.42-.53,2.87l.09-.14c0,.83-.22.66-.22,1.47l-.22.22c0,.54-.13,1.9-.19,2.85a15.89,15.89,0,0,1,0-2.39,10.71,10.71,0,0,0-.21,2.11,3.23,3.23,0,0,1,.07-.69c0,.66.08,1.53,0,2.58-.34-.26-.26,2.73-.4,3.5.12,1,.13,1.88.18,2.87a27.14,27.14,0,0,0,.42,3.07c.16-.82.1.63.36.44.07.33.12.53.15.63v.11h0L1.34,50c0,.38-.19-.46-.23-.4.25,1.1,0,.49.11,1.24.06-.18.23.34.35,1l-.09-.92a7,7,0,0,1,.37,1.41,5,5,0,0,0,.47,1.41l-.26-.44c.17.38.43,1.08.71,1.78a5.9,5.9,0,0,0,.93,1.66c0,.14,0,.35-.13,0a24,24,0,0,0,1.48,2.73A24.39,24.39,0,0,1,6.48,61.8l-.14-.09a6.88,6.88,0,0,1,.65.88s-.15-.07,0,.06a9.06,9.06,0,0,1,.93,1.12l-.31-.29a14.65,14.65,0,0,0,1.47,1.86c.5.47,1,.89,1.56,1.46-.14.12.77,1.33,1.31,1.84h0c.81.76,1.55,1.36,2.27,1.93s1.51,1,2.34,1.59a12.49,12.49,0,0,0,.93.85c.39.3.88.58,1.38.89,1,.62,2.06,1.32,3,1.78-.26-.17.13-.12.46,0s1.25.44,1.1.59l-.15-.08a4.89,4.89,0,0,0,1.88,1l.21-.19a13.5,13.5,0,0,0,3.3,1.27,11.85,11.85,0,0,1,2.73.79,10.06,10.06,0,0,0,1.56.17v.14l1.69.28a12.26,12.26,0,0,0,2,.23l-.35.07c.94.06,1.22-.32,2.08-.29l.24.22a20.15,20.15,0,0,0,4.72,0s-.07.1-.33.12c.76,0,3-.22,2.66-.44a8.19,8.19,0,0,0,2.51-.46l-.09.16a6.36,6.36,0,0,1,1.68-.7c.2,0,.23,0,.06.07a11.81,11.81,0,0,1,1.43-.44l-.34.18a2.72,2.72,0,0,0,1.15-.48,4.82,4.82,0,0,1,1.66-.45,2.34,2.34,0,0,1,1-.49c.08,0-.08.11-.17.14a7.16,7.16,0,0,0,.89-.3,3.66,3.66,0,0,0,.67-.37,7.79,7.79,0,0,1,1.24-.58.17.17,0,0,0,.17,0c-1,.45-1.72.82-1.75.82s.88-.27.3.21a17.05,17.05,0,0,1,2.47-1.46h.13l-.08.06c.19-.09.35-.17.5-.26s.41-.21.64-.34a9.42,9.42,0,0,0,1.32-.73c-.11-.1.4-.38-.11-.2h0l-.33.22-.09,0a.13.13,0,0,0-.07.06h0c-.26.16-.59.36-1,.6a3.11,3.11,0,0,1,1-.68l.38-.59c.63-.16,1.69-.71,1.87-.74.54-.45,1.17-1,1.76-1.43a7.36,7.36,0,0,0,.79-.69,4.55,4.55,0,0,0,.52-.64,1,1,0,0,1,.51-.32c-.15.17-.35.35-.42.45a13.47,13.47,0,0,0,1.72-1.82c.77-.62-.29.51.66-.47l-.09.18a16.9,16.9,0,0,0,2.33-2.67,19,19,0,0,1,2.14-2.89.4.4,0,0,1-.16.13,42.93,42.93,0,0,0,4.79-9A4.8,4.8,0,0,0,77.72,52l.21-.14c0-.33.06-.66.1-1A10.23,10.23,0,0,1,78.61,49,10.54,10.54,0,0,0,79,48a7.87,7.87,0,0,0,.13-1.2L79,47a9.18,9.18,0,0,1,.34-1.87.72.72,0,0,1,0-.46h.07a10.29,10.29,0,0,0,0-1.57c.12-1.19.29.21.39-1.55C79.84,40.93,79.72,39.74,79.65,40ZM60.24,74.41h0l-.06.1a1.11,1.11,0,0,1-.39.2ZM57,75.17c.09,0,0,.09-.12.15s-.36.13-.61.2Z"/><path class="cls-9" d="M60.67,74l-.1.08-.09.05h0L60.5,74Z"/><polygon class="cls-9" points="31.2 77.83 31.2 77.86 31.36 77.87 31.2 77.83"/><path class="cls-9" d="M70.37,15.17a.28.28,0,0,0,0,.13A.16.16,0,0,0,70.37,15.17Z"/><path class="cls-9" d="M28.59,2.66h-.12C28.18,2.81,28.38,2.74,28.59,2.66Z"/><path class="cls-9" d="M44.49.94a4.51,4.51,0,0,1-.52,0C44.25,1,44.47,1,44.49.94Z"/><polygon class="cls-9" points="13.36 11.72 13.36 11.71 13.28 11.79 13.36 11.72"/><path class="cls-9" d="M43.23.88a3.05,3.05,0,0,0,.74,0C43.72.87,43.47.87,43.23.88Z"/><path class="cls-9" d="M78.84,35.94v.18A.54.54,0,0,0,78.84,35.94Z"/><path class="cls-9" d="M78.93,36.54v-.38A1.21,1.21,0,0,0,78.93,36.54Z"/><path class="cls-9" d="M78.12,31.35h0Z"/><path class="cls-9" d="M77.76,30A10.63,10.63,0,0,0,78,31.28h0A8.33,8.33,0,0,0,77.76,30Z"/><path class="cls-9" d="M76.5,24.38c.14.36.25.74.38,1.11,0-.21,0-.49.14,0C76.65,24.05,77,25.82,76.5,24.38Z"/><path class="cls-9" d="M75,21.1c.29.55.06-.05.1,0C74.85,20.74,74.85,20.66,75,21.1Z"/><path class="cls-9" d="M56.18,3.64l.1-.08C55.89,3.36,56.26,3.6,56.18,3.64Z"/><path class="cls-9" d="M51.33,2.47a4,4,0,0,1,.42.2H52A5.53,5.53,0,0,0,51.33,2.47Z"/><polygon class="cls-9" points="48.69 0.91 48.9 0.94 48.12 0.78 48.69 0.91"/><path class="cls-9" d="M9.05,14.57h.21C9.46,14.3,9.37,14.13,9.05,14.57Z"/><path class="cls-9" d="M1,31.61a1.83,1.83,0,0,0-.24,1C.84,32.23,1,31.82,1,31.61Z"/><polygon class="cls-9" points="26.09 77.53 25.71 77.44 26.41 77.66 26.09 77.53"/><path class="cls-10" d="M65.71,21.3l3.58,4.62a4.07,4.07,0,0,1-.72,5.72h0a4.08,4.08,0,0,1-5.72-.72L59.26,26.3A4.09,4.09,0,0,1,60,20.57h0A4.09,4.09,0,0,1,65.71,21.3Z"/><circle class="cls-10" cx="51.68" cy="13.68" r="3.93"/></g><g id="back-2" data-name="back"><path class="cls-10" d="M92.37,38.58h-.06v-2h.05a23.6,23.6,0,0,0,4.82-.49l.4,2A26.12,26.12,0,0,1,92.37,38.58Z"/><path class="cls-10" d="M97.6,38.05l-.41-2A24.1,24.1,0,0,0,115.91,17.3l2,.4A26.1,26.1,0,0,1,97.6,38.05Z"/><path class="cls-10" d="M117.87,17.7l-2-.4a24.12,24.12,0,0,0,.48-4.8h2A26,26,0,0,1,117.87,17.7Z"/><path class="cls-10" d="M118.39,67.58h-2a23.5,23.5,0,0,0-.5-4.88l2-.4A26,26,0,0,1,118.39,67.58Z"/><path class="cls-10" d="M115.89,62.7A24.08,24.08,0,0,0,97.19,44l.41-2A26.09,26.09,0,0,1,117.85,62.3Z"/><path class="cls-10" d="M97.19,44a24.17,24.17,0,0,0-4.87-.5h0v-2h0A26.07,26.07,0,0,1,97.6,42Z"/><path class="cls-10" d="M142.6,44l-.41-2a26,26,0,0,1,5.28-.54h0v2h0A24.1,24.1,0,0,0,142.6,44Z"/><path class="cls-10" d="M123.89,62.7l-2-.4A26.12,26.12,0,0,1,142.19,42l.41,2A24.1,24.1,0,0,0,123.89,62.7Z"/><path class="cls-10" d="M121.39,67.58a26.07,26.07,0,0,1,.54-5.28l2,.4a24.35,24.35,0,0,0-.5,4.88Z"/><path class="cls-10" d="M121.91,17.7a26.74,26.74,0,0,1-.52-5.2h2a24.19,24.19,0,0,0,.48,4.8Z"/><path class="cls-10" d="M142.19,38.05A26.1,26.1,0,0,1,121.91,17.7l2-.4A24.1,24.1,0,0,0,142.6,36.09Z"/><path class="cls-10" d="M147.42,38.58a26.29,26.29,0,0,1-5.23-.53l.4-2a23.77,23.77,0,0,0,4.83.49h.05v2Z"/><path class="cls-10" d="M132.39,18.5a1,1,0,0,1-1-1V7.5a1,1,0,0,1,2,0v10A1,1,0,0,1,132.39,18.5Z"/><path class="cls-10" d="M152.39,28.5h-10a1,1,0,0,1,0-2h10a1,1,0,0,1,0,2Z"/><path class="cls-10" d="M137.39,23.5a1,1,0,0,1-.7-1.71l7.07-7.07a1,1,0,0,1,1.41,0,1,1,0,0,1,0,1.42l-7.07,7.07A1,1,0,0,1,137.39,23.5Z"/><path class="cls-10" d="M107.39,73.5a1,1,0,0,1-1-1v-10a1,1,0,1,1,2,0v10A1,1,0,0,1,107.39,73.5Z"/><path class="cls-10" d="M97.39,53.5h-10a1,1,0,1,1,0-2h10a1,1,0,0,1,0,2Z"/><path class="cls-10" d="M95.32,65.57a1,1,0,0,1-.7-1.71l7.07-7.07a1,1,0,0,1,1.41,0,1,1,0,0,1,0,1.42L96,65.28A1,1,0,0,1,95.32,65.57Z"/></g></svg>