<svg xmlns="http://www.w3.org/2000/svg" xmlns:xlink="http://www.w3.org/1999/xlink" viewBox="0 0 158.25 80"><defs><style>.cls-1{fill:none;}.cls-2{fill:#6b3527;}.cls-3{fill:#d78381;}.cls-4{fill:#c66861;}.cls-5{fill:#274d79;}.cls-6{fill:#9a9a9a;}.cls-7{fill:#fff;}.cls-8{fill:#3c3c3b;}.cls-9{fill:#434342;}.cls-10{fill:#b87468;}.cls-11{fill:#d8d8d8;}.cls-12{fill:#f2ce5c;}.cls-13{fill:#c4c4c4;}.cls-14{fill:#3e3e3d;}.cls-15{fill:#6a98a3;}.cls-16{fill:#a9d1dc;}.cls-17{clip-path:url(#clip-path);}.cls-18{fill:#6f6e6e;}.cls-19{fill:#e3ab95;}.cls-20{fill:#862e1d;}.cls-21{fill:#222221;}</style><clipPath id="clip-path"><path class="cls-1" d="M129.34,71A14.36,14.36,0,1,1,135,46.81a9.92,9.92,0,0,1,2.7-1.72,10.36,10.36,0,0,1-.29-1.92,10.46,10.46,0,0,1-5.65-4.35,10.39,10.39,0,1,1,1-15.08,2.29,2.29,0,0,0,2.8.42,10.38,10.38,0,0,1,14.09,4.07,10.17,10.17,0,0,1,1,2.72,3.53,3.53,0,0,0,1.8,2.31,10.41,10.41,0,0,1,4.56,14,10.56,10.56,0,0,1-3.37,3.84,3.26,3.26,0,0,0-1.46,2.85v.61a10.38,10.38,0,0,1-5.36,9.09A2.66,2.66,0,0,0,145.63,65a10.43,10.43,0,0,1-9.73,6.79,10.25,10.25,0,0,1-4-.83A3.61,3.61,0,0,0,129.34,71Z"/></clipPath></defs><title>nonna</title><g id="Livello_2" data-name="Livello 2"><g id="Livello_1-2" data-name="Livello 1"><g id="Livello_1-2-2" data-name="Livello 1-2"><g id="bonus"><path class="cls-2" d="M93.74,13.3H0V6H93.74a4.08,4.08,0,0,0,4.08-4.08V0h7.3V1.92A11.38,11.38,0,0,1,93.74,13.3Z"/><path class="cls-3" d="M35.41,45.82h-30A3.84,3.84,0,0,1,1.61,42h0V24.41a7.45,7.45,0,0,1,7.46,7.42V35.1a4.19,4.19,0,0,0,4.17,4.18H35.41Z"/><path class="cls-4" d="M35.41,45.82h-30A3.84,3.84,0,0,1,1.61,42h0V37.92a3.83,3.83,0,0,0,3.83,3.83h30Z"/><path class="cls-5" d="M6.94,38.74H1.61v-3H6.94a2.11,2.11,0,0,0,2.13-1.92v3A2.07,2.07,0,0,1,6.94,38.74Z"/><path class="cls-5" d="M1.09,45.82H.56A.54.54,0,0,1,0,45.3v-3a.57.57,0,0,0,.54.54h.53a.56.56,0,0,0,.54-.54v3A.54.54,0,0,1,1.09,45.82Z"/><path class="cls-5" d="M1.09,42.85H.56A.57.57,0,0,1,0,42.31V24.37a.54.54,0,0,1,.54-.53h.53a.54.54,0,0,1,.54.53V33h5A2.42,2.42,0,0,0,9.1,30.68h0v3.1A2.11,2.11,0,0,1,6.94,35.7H1.63v6.53a.56.56,0,0,1-.54.56Z"/><path class="cls-5" d="M1.09,42.85H.56A.57.57,0,0,1,0,42.31V24.37a.54.54,0,0,1,.54-.53h.53a.54.54,0,0,1,.54.53V33h5A2.42,2.42,0,0,0,9.1,30.68h0v3.1A2.11,2.11,0,0,1,6.94,35.7H1.63v6.53a.56.56,0,0,1-.54.56Z"/><path class="cls-6" d="M6.94,38.74H1.61v-3H6.94a2.11,2.11,0,0,0,2.13-1.92v3A2.07,2.07,0,0,1,6.94,38.74Z"/><path class="cls-6" d="M1.09,45.82H.56A.54.54,0,0,1,0,45.3v-3a.57.57,0,0,0,.54.54h.53a.56.56,0,0,0,.54-.54v3A.54.54,0,0,1,1.09,45.82Z"/><path class="cls-7" d="M99.26,36.64v29.6A9.27,9.27,0,0,1,90,75.5H50.91V30.08h41.8A6.56,6.56,0,0,1,99.26,36.64Z"/><path class="cls-8" d="M56.3,72.11H48.14a7.73,7.73,0,0,1-4.55-1.48L43,70.19l-.13-.13-.44-.43-.27-.28a8.44,8.44,0,0,1-.83-1.46,6.89,6.89,0,0,1-.34-.73l-.21-.53a7.61,7.61,0,0,1-.4-2.5V40.05a7.91,7.91,0,0,1,7.89-7.9h8.12Z"/><path class="cls-9" d="M56.3,68.66H48.17a7.91,7.91,0,0,1-7.89-7.9h0V40.05a7.91,7.91,0,0,1,7.89-7.9H56.3Z"/><circle class="cls-7" cx="93.34" cy="35.58" r="5.61"/><circle class="cls-7" cx="92.65" cy="35.41" r="5.61"/><circle class="cls-7" cx="90.77" cy="34.95" r="5.61"/><circle class="cls-7" cx="88.07" cy="34.22" r="5.61"/><circle class="cls-7" cx="84.83" cy="33.25" r="5.61"/><circle class="cls-7" cx="81.4" cy="32.06" r="5.61"/><circle class="cls-7" cx="78.11" cy="30.68" r="5.61"/><circle class="cls-7" cx="75.25" cy="29.13" r="5.61"/><circle class="cls-7" cx="73.01" cy="27.27" r="5.61"/><circle class="cls-7" cx="70.73" cy="23.95" r="5.61"/><circle class="cls-7" cx="69.48" cy="20.58" r="5.61"/><circle class="cls-7" cx="68.95" cy="17.63" r="5.61"/><circle class="cls-7" cx="68.85" cy="15.54" r="5.61"/><circle class="cls-7" cx="68.87" cy="14.74" r="5.61"/><path class="cls-3" d="M44.84,66.63H40.16a7.33,7.33,0,0,1-.46-2.5V62H3.59A4.26,4.26,0,0,1,5.1,58.75a5.89,5.89,0,0,1,1.67-1,6.12,6.12,0,0,1,2-.34H44.84Z"/><path class="cls-4" d="M3.59,62.14V62H39.7v2.12a7.33,7.33,0,0,0,.46,2.5H9C8.76,66.63,3.59,66.36,3.59,62.14Z"/><path class="cls-3" d="M43.25,66.63H40.16a7.33,7.33,0,0,1-.46-2.5V62h3.55Z"/><path class="cls-10" d="M5.16,65.4H1.61V55.82H5.16a4.86,4.86,0,0,1,.61,9.69,3.11,3.11,0,0,1-.61,0Z"/><path class="cls-3" d="M5.16,68.27H1.61V55.72H5.16a5.12,5.12,0,0,1,5.07,4.89v2.68A5.1,5.1,0,0,1,5.16,68.27Z"/><path class="cls-5" d="M6.57,65.21A5.09,5.09,0,0,0,7,63.29V60.61a5.13,5.13,0,0,0-5.1-4.85H5.16a5.12,5.12,0,0,1,5.09,4.85h0A5.09,5.09,0,0,1,6.57,65.21Z"/><path class="cls-5" d="M5.16,68.27H1.88a5.12,5.12,0,0,0,4.69-3.12,5.07,5.07,0,0,0,3.66-4.54v2.68a5.08,5.08,0,0,1-1.47,3.53h-.1l-.32.28L8,67.33a3.69,3.69,0,0,1-.88.46H6.86A5,5,0,0,1,5.16,68.27Z"/><path class="cls-11" d="M7.9,67.51A5.67,5.67,0,0,0,8.59,67,5.67,5.67,0,0,1,7.9,67.51Z"/><path class="cls-4" d="M1.88,68.27H1.61V65.4H5.16a5.16,5.16,0,0,0,1.41-.19A5.13,5.13,0,0,1,1.88,68.27Z"/><path class="cls-5" d="M.94,68.83A.94.94,0,0,1,0,67.89H0V64.44a1,1,0,0,0,1.92,0v3.41A1,1,0,0,1,.94,68.83Z"/><path class="cls-5" d="M.94,65.4A.92.92,0,0,1,0,64.5H0V56.14a.94.94,0,0,1,.88-1h0a1,1,0,0,1,.67.28,1,1,0,0,1,.27.68v8.33a.93.93,0,0,1-.86,1h0Z"/><path class="cls-6" d="M.94,68.79a.92.92,0,0,1-.94-.9H0V64.44a1,1,0,0,0,.27.67.94.94,0,0,0,1.33,0v0a.89.89,0,0,0,.27-.63v3.41a.94.94,0,0,1-.94.94h0Z"/><path class="cls-12" d="M72,75.5H26.58V30.08H72A5.76,5.76,0,0,0,77.62,36H93.74V64.31H83.18A11.21,11.21,0,0,0,72,75.5Z"/><path class="cls-13" d="M72,75.5H26.58v-6H72A11.17,11.17,0,0,1,83.14,58.33H93.78v6H83.18A11.19,11.19,0,0,0,72,75.5Z"/><path class="cls-14" d="M93.82,61.72v-2.8a9.58,9.58,0,1,0,0-19.16V36.94a12.4,12.4,0,0,1,0,24.78Z"/><path class="cls-5" d="M57.41,37.61V61.18H55.34A11.8,11.8,0,0,1,43.56,49.4h0A11.78,11.78,0,0,1,55.34,37.61Z"/><path class="cls-13" d="M57.41,61.13H55.32A11.81,11.81,0,0,1,43.56,49.34h0a11.88,11.88,0,0,1,.28-2.59A11.77,11.77,0,0,0,55.34,56h2.07Z"/><path class="cls-15" d="M129.34,71a14.36,14.36,0,0,1-17.93-9.52,14.52,14.52,0,0,1-.62-3.59v-.19A14.34,14.34,0,0,1,135,46.81a9.92,9.92,0,0,1,2.7-1.72,10.36,10.36,0,0,1-.29-1.92,10.52,10.52,0,0,1-5.46-4.06l-.19-.29h0a10.4,10.4,0,1,1,1.07-15.19,2.32,2.32,0,0,0,2.82.42,10.37,10.37,0,0,1,14.09,4.12v0a11.28,11.28,0,0,1,1,2.64,3.5,3.5,0,0,0,1.8,2.32A10.41,10.41,0,0,1,153.74,51a3.23,3.23,0,0,0-1.46,2.85v.62a10.34,10.34,0,0,1-5.37,9.08,2.63,2.63,0,0,0-1.2,1.42A10.44,10.44,0,0,1,136,71.76a10.19,10.19,0,0,1-4-.82A3.62,3.62,0,0,0,129.34,71Z"/><path class="cls-16" d="M131.66,39a10.39,10.39,0,0,1-14.45-1.35A14.35,14.35,0,0,1,131.66,39Z"/><path class="cls-16" d="M127.56,64.29a14.31,14.31,0,0,1-16.69-6.63A14.33,14.33,0,0,1,135,46.81a9.92,9.92,0,0,1,2.7-1.72,10.36,10.36,0,0,1-.29-1.92,10.52,10.52,0,0,1-5.46-4.06,12.35,12.35,0,0,1,1.17,1,10.92,10.92,0,0,1,2.72-1.73,10.36,10.36,0,0,1-.29-1.92,10.54,10.54,0,0,1-5.75-4.36,10.38,10.38,0,0,1-14.6-1.32l0,0a7.89,7.89,0,0,1-.49-.65,10.4,10.4,0,0,1,18-6.38,2.29,2.29,0,0,0,2.8.42,10.41,10.41,0,0,1,14.12,4.14h0a11,11,0,0,1,1,2.65,3.48,3.48,0,0,0,1.81,2.32,10.14,10.14,0,0,1,3.83,3.29,10.38,10.38,0,0,1-4.47,7.86,3.3,3.3,0,0,0-1.47,2.81v.6a10.37,10.37,0,0,1-5.37,9.1,2.69,2.69,0,0,0-1.19,1.42,10.42,10.42,0,0,1-13.39,6.16h0l-.32,0A3.72,3.72,0,0,0,127.56,64.29Z"/><g class="cls-17"><path class="cls-9" d="M133.44,73.49l-.65-1.92a4.44,4.44,0,0,1,0-2.65l.56-1.66a3.15,3.15,0,0,0,0-1.92l-.56-1.7a3.69,3.69,0,0,1,.21-2.71l.6-1.22a2.4,2.4,0,0,0,0-2.09L132.41,55l1.09-.5,1.21,2.66a3.7,3.7,0,0,1,0,3.12l-.6,1.23a2.49,2.49,0,0,0-.15,1.8l.56,1.71a4.21,4.21,0,0,1,0,2.58L134,69.23a3.3,3.3,0,0,0,0,1.92l.65,1.91Z"/><path class="cls-9" d="M127.16,73.6l-.42-1.92a4.83,4.83,0,0,1,.3-3l.71-1.59a2.45,2.45,0,0,0,.18-1.46l-.37-1.84a4.24,4.24,0,0,1,.58-3.16l.74-1.17a1.84,1.84,0,0,0,.2-1.53l-.91-2.78,2.36-.77.86,2.82a4.29,4.29,0,0,1-.48,3.62L130.19,62a1.86,1.86,0,0,0-.25,1.3L130.3,65a4.81,4.81,0,0,1-.32,3l-.71,1.58a2.37,2.37,0,0,0-.16,1.51l.43,1.92Z"/><path class="cls-9" d="M156.44,59.46l-1.92-.69a4.91,4.91,0,0,1-2.39-1.92l-1-1.43a2.39,2.39,0,0,0-1.17-1l-1.69-.65A4.23,4.23,0,0,1,146,51.64l-.58-1.24a1.79,1.79,0,0,0-1.21-1L139.27,48l.67-2.38L144.85,47a4.38,4.38,0,0,1,2.79,2.34l.58,1.25a1.7,1.7,0,0,0,1,.9l1.68.65a4.75,4.75,0,0,1,2.34,1.92l1,1.43a2.45,2.45,0,0,0,1.19,1l1.91.67Z"/><path class="cls-9" d="M139.69,33l-1.55-1.92,2.28-1.92a4.45,4.45,0,0,1,3.52-.88l1.37.29a1.86,1.86,0,0,0,1.3-.25l1.49-1a4.81,4.81,0,0,1,2.9-.77h1.74a2.5,2.5,0,0,0,1.46-.4l1.68-1.1,1.34,2.09-1.68,1.08a5,5,0,0,1-2.92.8l-1.74-.09a2.17,2.17,0,0,0-1.44.38l-1.49,1a4.19,4.19,0,0,1-3.12.59l-1.36-.27A1.92,1.92,0,0,0,142,31Z"/><path class="cls-7" d="M137.53,29.41l-.81-.67,1.92-2.24a3.61,3.61,0,0,1,2.76-1.26h1.38a2.41,2.41,0,0,0,1.7-.71l1.3-1.25a4.22,4.22,0,0,1,2.28-1.13l1.75-.25a3.08,3.08,0,0,0,1.7-.86L153,19.6l.75.75-1.46,1.44A4,4,0,0,1,150,22.94l-1.74.25a3.11,3.11,0,0,0-1.71.86l-1.28,1.24a3.64,3.64,0,0,1-2.45,1H141.4a2.59,2.59,0,0,0-1.92.88Z"/><path class="cls-7" d="M151.34,63.89l-1.7-1A4.35,4.35,0,0,1,147.91,61l-.67-1.61A3.21,3.21,0,0,0,146,57.91l-1.55-1.13a3.58,3.58,0,0,1-1.57-2.05l-.34-1.33a2.42,2.42,0,0,0-1.36-1.64l-2.65-1.25.44-1,2.65,1.25a3.42,3.42,0,0,1,1.91,2.34l.37,1.34A2.42,2.42,0,0,0,145,56l1.53,1a4.14,4.14,0,0,1,1.65,1.91l.67,1.61A3.15,3.15,0,0,0,150.11,62l1.73,1Z"/></g><path class="cls-4" d="M114.36,54.86a11.94,11.94,0,0,1-1.46-.1,10,10,0,0,1-1.34.1H101.31a5.75,5.75,0,0,1-5.75-5.75h0a5.81,5.81,0,0,1,.52-2.39,5.74,5.74,0,0,1,5.17-3.3h1V36.75a7.66,7.66,0,0,1,6.38-7.66,9.26,9.26,0,0,1,5.75-1.92h17.59a9.27,9.27,0,0,1,9.27,9.28v9.19A9.29,9.29,0,0,1,132,54.86Z"/><path class="cls-3" d="M114.36,50.13A7.14,7.14,0,0,1,112.9,50a7.5,7.5,0,0,1-1.34.12H101.31a5.76,5.76,0,0,1-5.17-3.32,5.73,5.73,0,0,1,5.17-3.29h1V36.75a7.65,7.65,0,0,1,6.38-7.66,9.24,9.24,0,0,1,5.75-1.92H132a9.27,9.27,0,0,1,9.27,9.28h0v4.4a9.3,9.3,0,0,1-9.27,9.3H114.36Z"/><rect class="cls-18" x="125.95" y="28.82" width="1.99" height="3.77" rx="0.67"/><rect class="cls-18" x="126.05" y="42.73" width="1.82" height="3.45" rx="0.73"/><rect class="cls-8" x="119.26" y="41.58" width="2.78" height="6.11" rx="1.3"/><rect class="cls-7" x="118.63" y="41.58" width="2.78" height="6.11" rx="1.3"/><circle class="cls-8" cx="120.2" cy="46.03" r="1.84"/><rect class="cls-8" x="119.57" y="27.84" width="2.78" height="6.11" rx="1.3"/><rect class="cls-7" x="118.92" y="27.84" width="2.78" height="6.11" rx="1.3"/><circle class="cls-8" cx="120.51" cy="32.29" r="1.84"/><path class="cls-19" d="M133.52,42.63a.56.56,0,0,1-.55-.57V36a.57.57,0,0,1,.46-.67.58.58,0,0,1,.67.46.74.74,0,0,1,0,.21v6.11A.57.57,0,0,1,133.52,42.63Z"/><path class="cls-19" d="M134.94,34.82a.58.58,0,0,1-.58-.58h0V32.59a.58.58,0,0,1,.58-.57h0a.55.55,0,0,1,.55.55v1.67a.56.56,0,0,1-.53.58Z"/><path class="cls-19" d="M131.57,38.92a.58.58,0,0,1-.58-.58h0V31.29a.58.58,0,0,1,.67-.46.56.56,0,0,1,.46.46v7.05A.57.57,0,0,1,131.57,38.92Z"/><path class="cls-19" d="M131.66,42.63a.56.56,0,0,1-.57-.57h0V40.14a.58.58,0,0,1,.46-.67.58.58,0,0,1,.67.46.74.74,0,0,1,0,.21v1.92A.57.57,0,0,1,131.66,42.63Z"/><rect class="cls-20" x="107.77" y="31.2" width="1.69" height="11.94"/><path class="cls-21" d="M121.14,51.58h-3.83a3,3,0,0,1-3-3h0V42a3,3,0,0,1,3-3h3.83a3,3,0,0,1,3,3h0v6.65a3,3,0,0,1-3,3Zm-3.83-10.9A1.28,1.28,0,0,0,116,42v6.65a1.28,1.28,0,0,0,1.28,1.29h3.83a1.29,1.29,0,0,0,1.29-1.29V42a1.29,1.29,0,0,0-1.29-1.28Z"/><path class="cls-21" d="M121.26,34.36h-4a2.79,2.79,0,0,1-2.78-2.78V26a2.79,2.79,0,0,1,2.78-2.78h4A2.8,2.8,0,0,1,124.05,26v5.6A2.8,2.8,0,0,1,121.26,34.36Zm-4-9.58a1.2,1.2,0,0,0-1.2,1.2v5.6a1.21,1.21,0,0,0,1.2,1.21h4a1.22,1.22,0,0,0,1.22-1.21V26a1.21,1.21,0,0,0-1.22-1.2Z"/><path class="cls-4" d="M121.54,39.53h-4.71a5.19,5.19,0,0,1-5.25-5.13h0a3.83,3.83,0,0,1,3.83-3.7,3.62,3.62,0,0,1,2.32.88l5.06,4.12a3,3,0,0,1-.65,3.33Z"/><path class="cls-21" d="M122,40.34l-1.19-1.19.78-.79a2.17,2.17,0,0,0,0-3.06l-1.07-1.06L121.66,33l1,1a3.85,3.85,0,0,1,.1,5.42.94.94,0,0,0-.1.1Z"/><rect class="cls-21" x="122.08" y="50.46" width="1.69" height="7.91" transform="translate(-11.46 50.97) rotate(-22.41)"/><rect class="cls-3" x="113.63" y="56.76" width="11.78" height="5.25" rx="2.63"/><path class="cls-4" d="M116,58.52h2.43a.6.6,0,0,1,.6.59h0a.6.6,0,0,1-.6.6H116a.6.6,0,0,1-.6-.6h0A.6.6,0,0,1,116,58.52Z"/><path class="cls-4" d="M76,5.77v10A3.83,3.83,0,0,1,72.2,19.6H63.7a3.83,3.83,0,0,1-3.84-3.83h0v-13H73.1A3,3,0,0,1,76,5.77Z"/><rect class="cls-4" x="61.53" y="4.39" width="12.78" height="10.52"/><path class="cls-4" d="M73.6,20.37H66.51A2.43,2.43,0,0,1,64.08,18h0a2.51,2.51,0,0,1,.11-.72A2.4,2.4,0,0,1,65,16.06a2.37,2.37,0,0,1,1.49-.52H73.6a2.39,2.39,0,0,1,2.3,1.71A2.22,2.22,0,0,1,76,18a2.54,2.54,0,0,1-.71,1.71A2.43,2.43,0,0,1,73.6,20.37Z"/><path class="cls-3" d="M73.6,18.89H66.51a2.39,2.39,0,0,1-2.32-1.68A2.44,2.44,0,0,1,65,16a2.37,2.37,0,0,1,1.49-.52H73.6a2.39,2.39,0,0,1,2.3,1.71,2.45,2.45,0,0,1-.59,1A2.47,2.47,0,0,1,73.6,18.89Z"/><path class="cls-19" d="M66.47,19.33H64.56a2.39,2.39,0,0,1-.44-1.39,2.53,2.53,0,0,1,.11-.73A2.44,2.44,0,0,1,65.06,16h1.45a1.23,1.23,0,0,1,1.23,1.23h0v.82a1.16,1.16,0,0,1-.31.8A1.22,1.22,0,0,1,66.47,19.33Z"/><path class="cls-4" d="M72.87,15.33h-1A1.92,1.92,0,0,1,70,13.41h0V3a1.92,1.92,0,0,1,1.92-1.92h1A1.93,1.93,0,0,1,74.64,3V13.47a1.93,1.93,0,0,1-1.77,1.92Z"/><path class="cls-3" d="M73,15.33a1.91,1.91,0,0,1-1.78-1.92V3a1.78,1.78,0,0,1,3.52-.52,1.06,1.06,0,0,1,0,.25.61.61,0,0,1,0,.27V13.47A1.91,1.91,0,0,1,73,15.33Z"/><rect class="cls-4" x="65.21" width="4.6" height="14.97" rx="1.76"/><rect class="cls-3" x="66.13" width="3.66" height="14.97" rx="1.76"/><path class="cls-4" d="M63.12,15h-.33a1.92,1.92,0,0,1-1.91-1.92h0V2.63A1.92,1.92,0,0,1,62.79.71h.33A1.92,1.92,0,0,1,65,2.63V13.11A1.92,1.92,0,0,1,63.12,15Z"/><path class="cls-3" d="M63.52,14.91a1.92,1.92,0,0,1-1.43-1.8V2.63A1.48,1.48,0,1,1,65,1.94h0a1.34,1.34,0,0,1,0,.69V13.11A1.92,1.92,0,0,1,63.52,14.91Z"/><path class="cls-4" d="M58.92,15.33A1.92,1.92,0,0,1,57,13.41h0V4.2A2.16,2.16,0,0,1,59.4,2.28a1.59,1.59,0,0,1,.83.48,1.77,1.77,0,0,1,.55,1.32v9.39a1.9,1.9,0,0,1-1.38,1.78A1.27,1.27,0,0,1,58.92,15.33Z"/><path class="cls-3" d="M59.4,15.25a1.8,1.8,0,0,1-.82-.48,1.77,1.77,0,0,1-.56-1.3V4.2A1.92,1.92,0,0,1,59.4,2.4a1.77,1.77,0,0,1,.83.47,1.93,1.93,0,0,1,.53,1.33v9.27A1.91,1.91,0,0,1,59.4,15.25Z"/><path class="cls-7" d="M93.07,79.89H66.84a6.18,6.18,0,0,1-6.21-6.14v0h0a6.1,6.1,0,0,1,6.11-6h22a5.39,5.39,0,0,0,5.42-4.68V61.74h5v12a6.07,6.07,0,0,1-6.07,6h0Z"/><path class="cls-4" d="M68.16,74.19a2.9,2.9,0,0,0-.29-1.39,3.06,3.06,0,0,0-2.72-1.92H55.78a3.11,3.11,0,0,0-2.85,1.59,2.89,2.89,0,0,0-.39,1.4,3.14,3.14,0,0,0,3,3.26h9.3A3.14,3.14,0,0,0,68.16,74.19Z"/><path class="cls-3" d="M68.16,74.19a2.9,2.9,0,0,0-.29-1.39,2.17,2.17,0,0,0-.51,0H63.83a.81.81,0,0,0-.31,0H62a.76.76,0,0,0-.3,0H54.48a.81.81,0,0,0-.31,0H53a3.07,3.07,0,0,0-.4,1.39,3.14,3.14,0,0,0,3,3.24h.73a.31.31,0,0,0,.19,0h1.67a.25.25,0,0,0,.17,0h.56a.31.31,0,0,0,.19,0h1.64a.34.34,0,0,0,.2,0h2.37a.31.31,0,0,0,.19,0h1.33a3.11,3.11,0,0,0,3.32-2.9.41.41,0,0,0,0-.11Z"/><path class="cls-4" d="M46.62,67.56,56.2,68a2.85,2.85,0,0,1,2.74,3l-.23,6.25a2.87,2.87,0,0,1-3,2.74h0l-7.41-.29a2.18,2.18,0,0,1-2.11-2.26h0l.38-9.76Z"/><rect class="cls-4" x="46.75" y="69.85" width="9.43" height="7.76" transform="translate(-24.2 122.31) rotate(-87.79)"/><path class="cls-4" d="M59.13,78.22,59.35,73a2,2,0,0,0-.69-1.5,1.93,1.93,0,0,0-1-.36,2.62,2.62,0,0,0-.56,0,1.8,1.8,0,0,0-1.3,1.65L55.59,78a1.79,1.79,0,1,0,3.56.36v-.23Z"/><path class="cls-3" d="M58.08,78.18,58.27,73a1.78,1.78,0,0,0-1.19-1.77,1.82,1.82,0,0,0-1.3,1.65l-.21,5.23a1.78,1.78,0,0,0,1.19,1.75A1.78,1.78,0,0,0,58.08,78.18Z"/><path class="cls-19" d="M58.58,72.93V71.51a1.9,1.9,0,0,0-1-.36,2.53,2.53,0,0,0-.55,0,1.73,1.73,0,0,0-.88.59V72.8a.91.91,0,0,0,.82,1h.65a1,1,0,0,0,.61-.21A.94.94,0,0,0,58.58,72.93Z"/><path class="cls-4" d="M55.46,77.55v-.77a1.36,1.36,0,0,0-1.27-1.42h0l-7.66-.3a1.36,1.36,0,0,0-1.42,1.3h0v.79h0a1.37,1.37,0,0,0,1.3,1.36l7.67.3a1.38,1.38,0,0,0,1.42-1.26Z"/><path class="cls-3" d="M55.46,77.6a1.38,1.38,0,0,0-1.31-1.36l-7.66-.3a1.31,1.31,0,0,0-.35,2.6h.25l7.67.29A1.37,1.37,0,0,0,55.46,77.6Z"/><rect class="cls-4" x="48.15" y="67.85" width="3.39" height="11.02" rx="1.3" transform="translate(-25.38 120.34) rotate(-87.79)"/><rect class="cls-3" x="48.47" y="68.19" width="2.7" height="11.02" rx="1.3" transform="translate(-25.74 120.65) rotate(-87.79)"/><path class="cls-4" d="M55.48,70.34v-.15a1.36,1.36,0,0,0-1.31-1.42h0l-7.66-.29a1.36,1.36,0,0,0-1.44,1.28h0v.42a1.43,1.43,0,0,0,1.3,1.11l7.67.29a1.36,1.36,0,0,0,1.36-1A1,1,0,0,0,55.48,70.34Z"/><path class="cls-3" d="M55.4,70.67a1.34,1.34,0,0,0-1.29-1.11l-7.66-.31a1.36,1.36,0,0,0-1.38,1,1.39,1.39,0,0,0,1.3,1.11l7.67.3A1.37,1.37,0,0,0,55.4,70.67Z"/><path class="cls-4" d="M55.86,67.28a1.41,1.41,0,0,0-.37-1,1.26,1.26,0,0,0-1-.44l-6.82-.27a1.36,1.36,0,0,0-1.42,1.3h0a1.15,1.15,0,0,0,0,.37,1.4,1.4,0,0,0,.32.63,1.36,1.36,0,0,0,1,.44l6.84.27a1.39,1.39,0,0,0,1.36-1A1.47,1.47,0,0,0,55.86,67.28Z"/><path class="cls-3" d="M55.8,67.64a1.4,1.4,0,0,0-.32-.63,1.37,1.37,0,0,0-1-.44l-6.82-.21a1.35,1.35,0,0,0-1.37,1,1.86,1.86,0,0,0,.33.64,1.38,1.38,0,0,0,1,.42l6.84.27A1.37,1.37,0,0,0,55.8,67.64Z"/></g></g></g></g></svg>