<svg xmlns="http://www.w3.org/2000/svg" viewBox="0 0 80 80"><defs><style>.cls-1{fill:#d78381;}.cls-2{fill:#c66861;}</style></defs><title>ICona Punti</title><g id="Livello_2" data-name="Livello 2"><g id="back"><polygon class="cls-1" points="41.97 37.7 45.68 39.99 41.97 42.3 40 46.66 38.04 42.3 34.32 39.99 38.04 37.7 40 33.34 41.97 37.7"/><path class="cls-1" d="M40,0A40,40,0,1,0,80,40,40,40,0,0,0,40,0Zm8.54,25.68h5.92V19.76h5.92v5.92H54.46V31.6H48.54ZM19.76,19.62h5.92v5.92h5.93v5.93H25.68V25.54H19.76Zm11.71,34.7H25.55v5.92H19.63V54.32h5.92V48.4h5.92Zm28.78,6.06H54.33V54.46H48.4V48.53h5.93v5.93h5.92ZM65.52,43H53.58C47,43,43,47.85,43,55.89v9.62H37.05V55.89c0-8-4-12.93-10.61-12.93h-12V37h12C33,37,37.05,32.15,37.05,24.11V14.49H43v9.62C43,32.15,47,37,53.58,37H65.52Z"/><path class="cls-1" d="M64.71,8.54h0A40,40,0,0,0,9.52,65.91,40,40,0,0,0,64.71,8.54ZM48.54,25.68h5.92V19.76h5.92v5.92H54.46V31.6H48.54ZM19.76,19.62h5.92v5.92h5.93v5.93H25.68V25.54H19.76Zm11.71,34.7H25.55v5.92H19.63V54.32h5.92V48.4h5.92Zm28.78,6.06H54.33V54.46H48.4V48.53h5.93v5.93h5.92ZM53.58,43C47,43,43,47.85,43,55.89v9.62H37.05V55.89c0-8-4-12.93-10.61-12.93h-12V37h12C33,37,37.05,32.15,37.05,24.11V14.49H43v9.62C43,32.15,47,37,53.58,37H65.52V43Z"/><path class="cls-2" d="M80,40A40,40,0,0,1,9.52,65.91,40,40,0,0,0,64.71,8.54,39.92,39.92,0,0,1,80,40Z"/></g></g></svg>