<svg xmlns="http://www.w3.org/2000/svg" viewBox="0 0 83.5 121"><defs><style>.cls-1{fill:#fff;}.cls-2,.cls-3{fill:none;}.cls-3{stroke:#010101;stroke-miterlimit:10;}</style></defs><title>ape</title><g id="Livello_2" data-name="Livello 2"><g id="Livello_1-2" data-name="Livello 1"><g id="back"><path class="cls-1" d="M72.49,120.5H23L15.49,98a15,15,0,0,1,0-30V30.5a15,15,0,0,1,0-30H23L33.49,11l12-3,30,22.5v15H38V53h34.5A10.51,10.51,0,0,1,83,63.5V110A10.51,10.51,0,0,1,72.49,120.5Z"/><line class="cls-2" x1="75.5" y1="53.43" x2="75.5" y2="53"/><rect class="cls-3" x="23" y="53" width="7.5" height="67.5"/><rect class="cls-3" x="30.5" y="53" width="7.5" height="67.5"/><rect class="cls-3" x="38" y="53" width="7.5" height="67.5"/><path class="cls-3" d="M15.5,98A15,15,0,1,1,23,70V83a7.5,7.5,0,1,0-7.5,7.5A7.5,7.5,0,0,0,23,83V96A15,15,0,0,1,15.5,98Z"/><circle class="cls-3" cx="15.5" cy="83" r="7.5"/><path class="cls-3" d="M15.5,30.5a15,15,0,0,1,0-30Z"/><path class="cls-3" d="M15.5,23a7.5,7.5,0,0,1,0-15Z"/><path class="cls-3" d="M75.5,30.5,45.5,8l-12,3-3.45.87-7.27,1.81L15.5,15.5v30h60ZM45.5,38V19.25L68,33.3V38Z"/><polygon class="cls-3" points="68 38 45.5 38 45.5 19.25 68 33.3 68 38"/><line class="cls-3" x1="68" y1="30.5" x2="68" y2="30.5"/><line class="cls-3" x1="15.5" y1="45.5" x2="15.5" y2="68"/><line class="cls-3" x1="15.5" y1="98" x2="23" y2="120.5"/><line class="cls-3" x1="38" y1="30.5" x2="38" y2="38"/><line class="cls-3" x1="38" y1="45.5" x2="38" y2="53"/><line class="cls-3" x1="23" y1="45.5" x2="23" y2="53"/><polygon class="cls-3" points="15.5 15.5 15.5 0.5 23 0.5 33.5 11 30.05 11.87 22.78 13.69 15.5 15.5"/><path class="cls-3" d="M72.49,120.5h-27V53h27a10.93,10.93,0,0,1,3,.43v66.63A10.58,10.58,0,0,1,72.49,120.5Z"/><path class="cls-3" d="M75.5,120.06V53.43A10.5,10.5,0,0,1,83,63.52V110A10.48,10.48,0,0,1,75.5,120.06Z"/><line class="cls-3" x1="75.5" y1="120.5" x2="75.5" y2="120.06"/><line class="cls-3" x1="75.5" y1="53.43" x2="75.5" y2="53"/></g></g></g></svg>