<svg id="Livello_1" data-name="Livello 1" xmlns="http://www.w3.org/2000/svg" xmlns:xlink="http://www.w3.org/1999/xlink" viewBox="0 0 160 80"><defs><style>.cls-1{fill:#d78381;}.cls-2{fill:url(#Sfumatura_senza_nome_7);}.cls-3{fill:url(#Sfumatura_senza_nome_7-2);}.cls-4{fill:url(#Sfumatura_senza_nome_7-3);}.cls-5{fill:url(#Sfumatura_senza_nome_7-4);}.cls-6{fill:url(#Sfumatura_senza_nome_7-5);}.cls-7{fill:url(#Sfumatura_senza_nome_7-6);}.cls-8{fill:url(#Sfumatura_senza_nome_7-7);}.cls-9{fill:#f7f8e4;}.cls-10{fill:#fff;}</style><radialGradient id="Sfumatura_senza_nome_7" cx="37.57" cy="239.5" r="0.32" gradientTransform="matrix(0.95, 0, 0, -0.94, 21.14, 301.21)" gradientUnits="userSpaceOnUse"><stop offset="0" stop-color="#fff" stop-opacity="0"/><stop offset="0.3" stop-color="#fff" stop-opacity="0.01"/><stop offset="0.48" stop-color="#fff" stop-opacity="0.04"/><stop offset="0.63" stop-color="#fff" stop-opacity="0.1"/><stop offset="0.77" stop-color="#fff" stop-opacity="0.18"/><stop offset="0.89" stop-color="#fff" stop-opacity="0.28"/><stop offset="1" stop-color="#fff" stop-opacity="0.4"/></radialGradient><radialGradient id="Sfumatura_senza_nome_7-2" cx="49.13" cy="306.96" r="0.26" xlink:href="#Sfumatura_senza_nome_7"/><radialGradient id="Sfumatura_senza_nome_7-3" cx="57.99" cy="294.45" r="0.05" xlink:href="#Sfumatura_senza_nome_7"/><radialGradient id="Sfumatura_senza_nome_7-4" cx="58.96" cy="292.13" r="0.1" xlink:href="#Sfumatura_senza_nome_7"/><radialGradient id="Sfumatura_senza_nome_7-5" cx="59.6" cy="290.33" r="0.32" xlink:href="#Sfumatura_senza_nome_7"/><radialGradient id="Sfumatura_senza_nome_7-6" cx="60.97" cy="284.97" r="0.43" xlink:href="#Sfumatura_senza_nome_7"/><radialGradient id="Sfumatura_senza_nome_7-7" cx="20.19" cy="277.12" r="41.57" xlink:href="#Sfumatura_senza_nome_7"/></defs><title>bubble2</title><g id="back"><path class="cls-1" d="M58.39,36C49.45,36,44,29.37,44,18.43v-5H35.88v5C35.88,29.34,30.38,36,21.43,36H13.24V44h8.19c9,0,14.45,6.6,14.45,17.56v5H44v-5C44,50.65,49.45,44,58.39,44h8.19V36Zm-15.8,7.15-2.66,5.93-2.7-5.91-5-3.11,5-3.14L39.93,31l2.66,5.91L47.66,40Z"/><path class="cls-2" d="M57,75.18c.09,0,0,.08-.12.15a4.22,4.22,0,0,0-.6.2Z"/><path class="cls-3" d="M67.86,11.94c-.08,0-.23-.08-.53-.33,0,0,0-.1.08-.1Z"/><path class="cls-4" d="M76,23.59l-.07-.09h0Z"/><path class="cls-5" d="M76.89,25.77a1.21,1.21,0,0,0,0-.18,1.06,1.06,0,0,1,.09.25A.16.16,0,0,0,76.89,25.77Z"/><path class="cls-6" d="M77.34,27.36V27c.1.26.19.53.28.81A1.18,1.18,0,0,1,77.34,27.36Z"/><path class="cls-7" d="M78.73,31.93,78.94,33l-.31-.94c0-.12,0-.24.09-.19S78.73,31.92,78.73,31.93Z"/><path class="cls-8" d="M79.54,40v.1a.45.45,0,0,0-.21-.12c0,.1-.07.11-.1,0a2,2,0,0,0-.29.94l.08,1-.12.31v-.84a2.64,2.64,0,0,0,0,1.12.87.87,0,0,0-.14.42l.16,1c-.1.11-.12-.46-.25.19,0,.48.26-.41.2.35-.17.46-.23.31-.23.89-.07.07-.09-.06-.08-.28a10.53,10.53,0,0,0-.09,1.59,5.85,5.85,0,0,0-.21,1c-.08.35-.17.62-.27.57a6.74,6.74,0,0,1-.17,1.35c0-.87-.44,1.67-.64,1.38.09.68-.66,2.15-.94,3.23a.67.67,0,0,1,0-.2c-.16.34-.33.68-.52,1,.15.14-.24,1-.36,1.55-.5.62,0-.51-.26-.37.15,0-.44,1.26-.22,1.08-.35.48-.26.43-.53.63.16.2-.18.52-.33.94-.54.67-.3.08-.72,1-.23.28,0-.18,0-.35-.44.72,0,.41-.07.63-.54,1-.38.38-.65.66a2,2,0,0,0-.4.88,3.61,3.61,0,0,1-.42.7s-.11.08-.07,0c-.34.67-1.31,1.78-1.71,2.56-.06,0-.09.06-.12.06.16,0,.25,0,.28,0-.29.32-.45.66-.65.71a.84.84,0,0,0,.22-.36l-.26.37c-.4.19.37-.49.27-.57a23.57,23.57,0,0,1-1.61,2c-.21,0,1-1.18.31-.63l.73-.71c-.72.4.44-.46-.25-.1-1,.95-1,1.2-1.89,2.1-.16.26.17,0,0,.29-1.32,1.41-1.38.71-2.29,1.82a2.27,2.27,0,0,1-1.08,1.06l.16-.35c-1,.77-.43.67-1.61,1.38a6.42,6.42,0,0,1,.62-.55c-.8.4-.45.45-1,.86l-.21-.05c-.59.36-1.19.78-1.82,1.19a13.1,13.1,0,0,1-1.95,1.2c0-.07.26-.23-.08-.12-.86.45-1.81.94-2.74,1.32s-2,.63-2.84.94l-.63.38c-.15.06-.31,0-.15,0-.72.13,0,.09-.33.24s-.56,0-.32,0c-.6.21-1.48.5-2.38.76A6.06,6.06,0,0,1,47,78.4a9.43,9.43,0,0,1-1.18.12l.36-.14c-1,.11-1.14.47-2.13.48h.19c-1.16.09-2.37.12-3.51.19h-.85l-.81,0a8.58,8.58,0,0,1-1.43-.18,4,4,0,0,1-1.29,0c-.55,0-1.06-.14-1.15,0a23.09,23.09,0,0,0-2.72-.7c-.49-.08-.75,0-1.35-.09v-.16l-.83-.05L30,77.54l-.49-.08c.2.07.38.16.34.19a8.33,8.33,0,0,1-1.38-.39,2.36,2.36,0,0,1-.69-.39l-2-.61a.86.86,0,0,1,.32,0c-.52-.15.08-.15-.8-.35.12.08-.1.06-.14.08a23.27,23.27,0,0,0-2.3-1.12H23a41.3,41.3,0,0,1-4.42-2.44c.51.37.29.45-.16.19v-.08a.9.9,0,0,1-.28-.09c-.53-.39-.26-.4.07-.22l-.67-.43c0-.07.15,0,.22,0-.32-.12-1-.94-1.48-1.09v-.06L15.32,70c-.26-.21-.49-.42-.71-.61l-1.48-1.24c-.11.09-.5-.32-.9-.52-.68-.82-1.39-1.75-2.25-2.67-.62-.64-.25-.14-.56-.4.05-.13-.72-1.14-.26-.66L8.09,62.45l-.56-.69-.68-.95c.07.2.17.42.08.33-.2-.28-.37-.7-.29-.69a12.38,12.38,0,0,1-1.6-3c-.23-.56-.45-1.09-.67-1.59-.1-.23-.22-.47-.34-.69s-.17-.38-.25-.54L3,52.92c-.26-.77.26.43.12-.16-.21-.43-.38-.83-.53-1.21a6.73,6.73,0,0,1-.28-1.09,19.16,19.16,0,0,0-.57-2.1,19.17,19.17,0,0,0-.33-2.83c-.09-.56-.2-1.13-.27-1.67a11.85,11.85,0,0,1,0-1.46l-.08.09a2.3,2.3,0,0,1,0-.83c-.06.05-.05.47-.11.21a28.71,28.71,0,0,1,.12-5.56c.1-.94.32-1.88.48-2.77l.25-1.38c.13-.45.26-.94.38-1.34.36-1.3-.23-.85.4-2.46v.52a32.58,32.58,0,0,1,1.3-3.95c.6-1.25,1.19-2.5,1.74-3.77a1.71,1.71,0,0,1-.09.45,7.28,7.28,0,0,0,1-1.89c.23-.34.12,0,.29-.23.36-.44.61-1.31.89-1.48v.1c.28-.41.95-1.21.64-1,.67-.76,1.09-1.6,1.68-2.15.22-.45,1.17-1.19,1.17-1.45.11.2,1.29-1.21,1.73-1.68-.11.19.45-.32.33-.08.54-.49,1-.94.83-.94,1.13-.75,2-1.89,2.77-2.06l1.22-1,1.29-.86L20.7,6l.62-.4L22,5.25c0,.12-.47.32-.94.61s-.87.54-.78.61l1-.72.95-.56a22.45,22.45,0,0,1,2.1-1.08c.45-.18-.19.21-.33.31a15.27,15.27,0,0,1,2.48-1L27.69,3a9.63,9.63,0,0,1,1.17-.43,1.15,1.15,0,0,1-.32.14c.32-.08.74-.16.67-.24l-.29.1c-.52,0,1-.53,1.19-.67-.38.36,1.61-.35.85.21.2-.07.45-.19.39-.23.31-.07.42,0,.12.1l1-.3a3.93,3.93,0,0,1,.84-.18c0,.05-.21.09-.3.17a8.14,8.14,0,0,1,1.89-.45s0,.05-.07.07A21,21,0,0,1,38.89.77c-.49.23.57,0,.67.21a6.76,6.76,0,0,1,.9,0L40.1.83c.78,0,1.48,0,2.16,0h-.58L43.16,1,42.32.84c.8,0,0-.22.94-.12A4.26,4.26,0,0,1,44.49,1a5.77,5.77,0,0,1,1.38.14c.15.07-.15.17,0,.23.39-.08,1.75.18,2.3.18-.13,0-.14.09-.1.12h.34c.35.13.4.16.32.21,1.07.3-.28-.3,1,.12a1.31,1.31,0,0,1-.28,0A24,24,0,0,1,53,3c.27.3-1-.32-.67,0,.82.29,1.68.55,2.54.82a17.78,17.78,0,0,1,2.43.91L57,4.58c.31-.11,1,.57,1.8.9h-.15c.95.64,2.06,1.15,3.57,2L62,7.44c.51.45,1.4,1.1,2,1.56.22.08.55.34.4.12l1.2,1.16c.4.35.81.69,1.22,1A13,13,0,0,1,68,12.36a9,9,0,0,1,1,1.19c-.16-.18-.43-.39-.3-.25l1.24,1.23c0-.17-.09-.21-.27-.53a5.13,5.13,0,0,1,.85.76c-.58-.5-.12.1,0,.41,0-.05.08,0,.09,0,.39.84.27,0,1,1h-.09c.31.35.62.65,1,1.05,0,.24-.34-.36-.44-.32.41.55,1,.95,1.24,1.57a8.12,8.12,0,0,0-.62-.8,9.35,9.35,0,0,0,.56,1.09h0l0,.11a.19.19,0,0,0,.07.14h0l.07.14.32.59-.12-.27a3.82,3.82,0,0,1,.86,1.06l.39.64a4.73,4.73,0,0,0,.45.71c-.25-.34-.34-.44-.37-.43s.1.32,0,.31c.09.28.24.71.16.61.34.45.31.87.8,1.49,0,.05.26.54.1.47.34.63,0-.19.07-.16.63,1,.74,2.49,1.52,3.9.46,1.29.65,1.51,1,2.72,0,.44-.25-.3-.25-.3a18.52,18.52,0,0,0,.43,1.82c-.06-.12-.07,0-.09.23.09.51.22.31.25,1a3.2,3.2,0,0,1-.26-.48c.15.59.3,1.19.45,1.81,0,.18-.18-.36-.26-.58a20.11,20.11,0,0,0,.47,2V36c0,.08-.09,0-.13-.17a1.27,1.27,0,0,1-.06-.94l.11.45c.2-.5-.32-1.81-.45-2.72L79,33A39.51,39.51,0,0,1,79.54,40Z"/><path class="cls-9" d="M79.32,39.93c0,.1-.07.11-.1,0h0l-.07-.55.17.24A.81.81,0,0,1,79.32,39.93Z"/><path class="cls-9" d="M79.4,37.54c-.1-.42-.25-.89-.38-.6.17.4.11.51.31.94,0,.36,0,.63-.08.57a1.92,1.92,0,0,0,.11.75,4.52,4.52,0,0,0,0-1.68C79.32,37.39,79.37,37.51,79.4,37.54Z"/><path class="cls-9" d="M63,7.63l.17.15Z"/><path class="cls-9" d="M42.59.29a.53.53,0,0,0,.25,0C42.68.27,42.56.27,42.59.29Z"/><path class="cls-9" d="M38.83,0h0Z"/><path class="cls-9" d="M63,7.63l-.45-.4C62.51,7.25,62.79,7.45,63,7.63Z"/><path class="cls-9" d="M78.46,32.8a1,1,0,0,0,.08.31l-.05-.3Z"/><path class="cls-9" d="M70.24,14l.12.13.15.07Z"/><path class="cls-9" d="M74.59,20.09c-.08-.15-.23-.13-.31-.16a.87.87,0,0,1,.27.27A.16.16,0,0,0,74.59,20.09Z"/><path class="cls-9" d="M78.65,31.08l.06.2Z"/><path class="cls-9" d="M66.52,10.23a.14.14,0,0,0,0-.09A.12.12,0,0,0,66.52,10.23Z"/><path class="cls-9" d="M78,48.31Z"/><path class="cls-9" d="M79.58,40v.13h.08Z"/><path class="cls-9" d="M31.94.62h0C32.15.57,32,.59,31.94.62Z"/><path class="cls-9" d="M.72,48.43c-.07-.72.43,1.1.29,0C1,48.56.56,47.55.72,48.43Z"/><path class="cls-9" d="M78.45,32.61v-.3A1.5,1.5,0,0,0,78.45,32.61Z"/><path class="cls-9" d="M17.34,6.84h.16S17.45,6.8,17.34,6.84Z"/><path class="cls-9" d="M28.06,1.9,27.78,2Z"/><path class="cls-9" d="M12.68,10.85a2.22,2.22,0,0,0-.33.28h.05A1.48,1.48,0,0,1,12.68,10.85Z"/><path class="cls-9" d="M8.4,15.56l.1-.08.11-.17Z"/><path class="cls-9" d="M69.72,65.09a1.91,1.91,0,0,1,.28-.15C69.86,65,70.46,64.28,69.72,65.09Z"/><path class="cls-9" d="M78.53,32.79a.42.42,0,0,1-.08-.18v.2S78.52,32.83,78.53,32.79Z"/><path class="cls-9" d="M13.2,11.78l-.74.65A9.3,9.3,0,0,0,13.2,11.78Z"/><path class="cls-9" d="M29.2,77.35h.22A.41.41,0,0,0,29.2,77.35Z"/><path class="cls-9" d="M10.49,14.61A3.94,3.94,0,0,0,10,15a.37.37,0,0,0,0,.11Z"/><path class="cls-9" d="M79.23,40c0,.08.08.07.1,0A.09.09,0,0,0,79.23,40ZM78.63,31l-.2-.57c.06.09.09-.08.15.13-.18-1.09-.59-1.67-.55-2.12-.34-.95-.27-.59-.4-.66a36.58,36.58,0,0,1,1.09,4.11h0a1,1,0,0,1,.11.27c0-.68-.2-.55-.23-1.13Q78.62,31,78.63,31ZM77.12,26c-.27-.49-.07,0-.18-.12q.23.57.42,1.17v-.52l-.2-.1C77.15,26.23,77.05,25.92,77.12,26Zm-1-2.45c-.21-.19.19.59-.1.12.28.64.57,1.3.82,2a6.29,6.29,0,0,0-.42-1.17C76.22,24,76.06,23.64,76.12,23.51ZM75.54,22a2,2,0,0,1-.48-.84,5.69,5.69,0,0,0-.49-1c-.06,0-.15-.08-.27-.26-.27-.38-.68-1.11-1.08-1.71a21.83,21.83,0,0,0-1.59-2.45c-.28-.11-.77-.94-1.28-1.38.1,0,.23,0,.51.29-.14-.18-.3-.34-.45-.51a2.9,2.9,0,0,1-.62-.54H70c-.63-.65-1.31-1.27-2.09-2.14-.1,0,.15.42,0,.42A39.58,39.58,0,0,1,76,23.46c.09-.33-.48-.87-.69-1.56C75.46,22.06,75.71,22.71,75.54,22ZM73,18.75l.09.15L73,18.79ZM61,73.85ZM27.62,2.12l.15-.07h0ZM18.36,72.54l-.06-.15C18.07,72.32,18.36,72.5,18.36,72.54ZM1,48.45H1v-.1S1,48.43,1,48.45Z"/><path class="cls-9" d="M78.47,30.83c.08.37.18.73.25,1.1,0-.05-.08.06-.09.19l.31.94-.26-.34c.13.94.65,2.22.45,2.72L79,34.91a1.44,1.44,0,0,0,.06.94c0,.14.11.25.13.17v.34a20.11,20.11,0,0,1-.47-2c.09.22.21.76.27.58-.16-.63-.31-1.23-.46-1.81a2.27,2.27,0,0,0,.27.48c0-.7-.16-.5-.26-1,0-.21,0-.35.1-.23a16.08,16.08,0,0,1-.44-1.82S78.5,31.26,78.47,30.83Z"/><path class="cls-9" d="M79.74,40c0,.27-.07.67-.15.69v-.59h0a.61.61,0,0,0-.22-.13c0,.11-.06.12-.09,0a2.07,2.07,0,0,0-.29.95l.08,1-.12.31v-.84a2.36,2.36,0,0,0,0,1.12.87.87,0,0,0-.14.41l.16,1c-.11.12-.13-.45-.26.2,0,.47.27-.41.21.35-.17.46-.24.31-.24.89-.06.06-.08-.06-.07-.29a12.28,12.28,0,0,0-.1,1.6,6.94,6.94,0,0,0-.2,1c-.08.35-.17.62-.27.57a7.55,7.55,0,0,1-.17,1.35c0-.88-.44,1.67-.64,1.38.08.68-.66,2.15-1,3.23a.67.67,0,0,1,0-.2,9.4,9.4,0,0,1-.51,1c.14.15-.24,1-.37,1.56-.49.61,0-.51-.25-.37.15,0-.45,1.26-.22,1.08-.35.48-.26.43-.53.63.15.2-.18.52-.33.94-.54.67-.3.08-.72.95-.23.28,0-.18,0-.35-.44.72-.06.41-.07.63-.54,1-.38.38-.66.66a2.13,2.13,0,0,0-.39.88,4.38,4.38,0,0,1-.42.69s-.11.09-.08,0c-.34.68-1.3,1.79-1.71,2.57,0,0-.08.06-.11.06.16,0,.25,0,.27,0-.28.32-.44.66-.64.71a1,1,0,0,0,.22-.36l-.27.37c-.39.19.37-.49.28-.57a23.57,23.57,0,0,1-1.61,2c-.22,0,1-1.19.3-.63l.74-.72c-.72.41.44-.45-.25-.09-1,.94-1,1.2-1.9,2.09-.16.27.17,0,0,.3-1.31,1.41-1.38.71-2.28,1.82A2.31,2.31,0,0,1,63.69,71l.16-.35c-1.05.77-.44.66-1.61,1.38a6.66,6.66,0,0,1,.62-.56c-.8.41-.45.46-1,.87l-.2-.06c-.59.37-1.2.79-1.82,1.2a12.7,12.7,0,0,1-2,1.2c.06-.08.27-.24-.07-.12-.86.45-1.81.94-2.74,1.32s-2,.63-2.84.94l-.64.38c-.15,0-.31,0-.15,0-.71.13,0,.09-.33.23s-.56.06-.31,0c-.6.22-1.48.5-2.38.77a6,6,0,0,1-1.34.28,11.51,11.51,0,0,1-1.18.12l.32-.17c-1,.11-1.14.47-2.13.48h.19c-1.16.09-2.37.12-3.51.19h-.85l-.81,0a8.58,8.58,0,0,1-1.43-.18,4,4,0,0,1-1.29,0c-.55,0-1.06-.14-1.15,0a23.09,23.09,0,0,0-2.72-.7c-.49-.08-.75,0-1.35-.09v-.16l-.83-.05L30,77.54l-.49-.08c.2.07.38.16.34.19a8.33,8.33,0,0,1-1.38-.39,2.36,2.36,0,0,1-.69-.39l-2-.61a.86.86,0,0,1,.32,0c-.52-.15.08-.15-.8-.35.12.08-.1.06-.14.08a23.27,23.27,0,0,0-2.3-1.12H23a41.3,41.3,0,0,1-4.42-2.44c.51.37.29.45-.16.19v-.08a.9.9,0,0,1-.28-.09c-.53-.39-.26-.4.07-.22l-.67-.43c0-.07.15,0,.22,0-.32-.12-1-.94-1.48-1.09v-.06L15.32,70c-.26-.21-.49-.42-.71-.61l-1.48-1.24c-.11.09-.5-.32-.9-.52-.68-.82-1.39-1.75-2.25-2.67-.62-.64-.25-.14-.56-.4.05-.13-.72-1.14-.26-.66L8.09,62.45l-.56-.69-.68-.95c.07.2.17.42.08.33-.2-.28-.37-.7-.29-.69a12.38,12.38,0,0,1-1.6-3c-.23-.56-.45-1.09-.67-1.59-.1-.23-.22-.47-.34-.69s-.17-.38-.25-.54L3,52.92c-.26-.77.26.43.12-.16-.21-.43-.38-.83-.53-1.21a6.73,6.73,0,0,1-.28-1.09,19.16,19.16,0,0,0-.57-2.1,19.17,19.17,0,0,0-.33-2.83c-.09-.56-.2-1.13-.27-1.67a11.85,11.85,0,0,1,0-1.46l-.08.09a2.3,2.3,0,0,1,0-.83c-.06.05-.05.47-.11.21a28.71,28.71,0,0,1,.12-5.56c.1-.94.32-1.88.48-2.77l.25-1.38c.13-.45.26-.94.38-1.34.36-1.3-.23-.85.4-2.46v.52a32.58,32.58,0,0,1,1.3-3.95c.6-1.25,1.19-2.5,1.74-3.77a1.71,1.71,0,0,1-.09.45,7.28,7.28,0,0,0,1-1.89c.23-.34.12,0,.29-.23.36-.44.61-1.31.89-1.48v.1c.28-.41.95-1.21.64-1,.67-.76,1.09-1.6,1.68-2.15.22-.45,1.17-1.19,1.17-1.45.11.2,1.29-1.21,1.73-1.68-.11.19.45-.32.33-.08.54-.49,1-.94.83-.94,1.13-.75,2-1.89,2.77-2.06l1.22-1,1.29-.86L20.7,6l.62-.4L22,5.25c0,.12-.47.32-.94.61s-.87.54-.78.61l1-.72.95-.56a22.45,22.45,0,0,1,2.1-1.08c.45-.18-.19.21-.33.31a15.27,15.27,0,0,1,2.48-1L27.69,3a9.63,9.63,0,0,1,1.17-.43,1.15,1.15,0,0,1-.32.14c.32-.08.74-.16.67-.24l-.29.1c-.52,0,1-.53,1.19-.67-.38.36,1.61-.35.85.21.2-.07.45-.19.39-.23.31-.07.42,0,.12.1l1-.3a3.93,3.93,0,0,1,.84-.18c0,.05-.21.09-.3.17a8.14,8.14,0,0,1,1.89-.45s0,.05-.07.07A21,21,0,0,1,38.89.77c-.49.23.57,0,.67.21a6.76,6.76,0,0,1,.9,0L40.1.83c.78,0,1.48,0,2.16,0h-.58L43.16,1,42.32.84c.8,0,0-.22.94-.12A4.26,4.26,0,0,1,44.49,1a5.77,5.77,0,0,1,1.38.14c.15.07-.15.17,0,.23.39-.08,1.75.18,2.3.18-.13,0-.14.09-.1.12h.34c.35.13.4.16.32.21,1.07.3-.28-.3,1,.12a1.31,1.31,0,0,1-.28,0A24,24,0,0,1,53,3c.27.3-1-.32-.67,0,.82.29,1.68.55,2.54.82a17.78,17.78,0,0,1,2.43.91L57,4.58c.31-.11,1,.57,1.8.9h-.15c.95.64,2.06,1.15,3.57,2L62,7.44c.51.45,1.4,1.1,2,1.56.22.08.55.34.4.12l1.2,1.16c.4.35.81.69,1.22,1A13,13,0,0,1,68,12.36a9,9,0,0,1,1,1.19c-.16-.18-.43-.39-.3-.25l1.24,1.23c0-.17-.09-.21-.27-.53a5.13,5.13,0,0,1,.85.76c-.58-.5-.12.1,0,.41,0-.05.08,0,.09,0,.39.84.27,0,1,1h-.09c.31.35.62.65,1,1.05,0,.24-.34-.36-.44-.32.41.55,1,.95,1.24,1.57a8.12,8.12,0,0,0-.62-.8,9.35,9.35,0,0,0,.56,1.09h0l0,.11a.19.19,0,0,0,.07.14h0l.07.14.32.59-.12-.27a3.82,3.82,0,0,1,.86,1.06l.39.64a4.73,4.73,0,0,0,.45.71c-.25-.34-.34-.44-.37-.43s.1.32,0,.31c.09.28.24.71.16.61.34.45.31.87.8,1.49,0,.05.26.54.1.47.34.63,0-.19.07-.16.63,1,.74,2.49,1.52,3.9.46,1.29.65,1.51,1,2.71-.24-1-.51-2-.83-3a1.2,1.2,0,0,1-.29-.45V27c-.13-.39-.27-.78-.43-1.16a.08.08,0,0,0,0-.07,1.16,1.16,0,0,0,0-.18c-.26-.66-.54-1.32-.83-2h0a.33.33,0,0,1-.06-.1h0A39.61,39.61,0,0,0,67.93,12c-.07,0-.22-.08-.53-.33,0,0,0-.1.09-.1a.33.33,0,0,1,.14,0,1.79,1.79,0,0,1-.37-.31l.45.26c-.37-.39-.28-.13-.59-.42.08-.05-.18-.25-.08-.27a3.41,3.41,0,0,0,.39.37,6.88,6.88,0,0,1-.84-.95c0,.07-.07.1-.35-.13-.68-.6-.16-.29-.52-.69-.19-.11-.62-.51-.72-.4a.79.79,0,0,1-.27-.33c-.41-.23-1.7-1.26-1.47-.9h0l.09.07-.11-.09h0a9.84,9.84,0,0,1-.94-.65c-.3-.23-.66-.42-.95-.65-.67-.43-1.33-.89-2-1.25h0A20.69,20.69,0,0,0,56.89,4.2c-.26-.17-.59-.41-.46-.41-.66-.26-.72-.3-1.65-.71.24.06.29.06.29,0a1.42,1.42,0,0,1,.29.1,7.41,7.41,0,0,0-1.85-.66c.35,0-.59-.38-1-.49l.57.3c-.46-.15-.85-.31-1.26-.47h.27a10.67,10.67,0,0,0-2.49-.61A11.51,11.51,0,0,1,47.43.7c-.52,0,.94.23.52.3-.84-.16-1.73-.51-2-.55A18.11,18.11,0,0,0,43.67.3c.15.06.29.21-.63.22s-1-.28-.49-.3c.19,0,.29,0,.29.05.27,0,.64,0,.31-.09L43,.23C42.61.15,41.43.1,41.7,0c-.51,0-.38.07-.08.11A15.75,15.75,0,0,0,39.05,0c.19,0,.35.08.17.09-1.67,0-.73.14-1.89.23-.65-.06.21-.22-.95-.1-.69,0-.16-.13.11-.2a4.93,4.93,0,0,1-.67.11c-.23,0-.46,0-.67.07a5.11,5.11,0,0,0-1.1.07L34.36.2a4.27,4.27,0,0,0-.64.11l.34.06c-.33,0-.6.08-.6,0-.31.13.28.14-.35.34a8.57,8.57,0,0,1-1.44.15c1.22-.17,0-.14.72-.29l-.58.1.13-.05c-1.29.17-.55.34-1.79.62.11-.09-.17-.08-.4,0,.32-.05.08.12-.33.29a8.87,8.87,0,0,0-1.31.38l.5-.09c-.14.11-.56.2-1.11.45v0c-.55.24-1.31.29-2,.64-.42.1-.09-.13-.46,0a18.38,18.38,0,0,0-2,.87c.33,0,.37-.08-.27.35l1.58-.85-1,.65a11.43,11.43,0,0,1,1.3-.66c-.47.28-.42.26-.15.23-.73.16-1.27.71-2.08.94l-.1-.26A7.82,7.82,0,0,0,20.67,5,20.67,20.67,0,0,1,18.89,6.1l.48-.24a10,10,0,0,1-1.29.86c0-.1-.33,0-.55.11.06,0-1,.73-1,1l-.66.35a16.23,16.23,0,0,0-2,1.94c.22-.34-.25,0,.34-.63-.32.29-.62.53-.59.59-.22.12-.79.94-1.15,1.09a1.66,1.66,0,0,1-.43.58h0s-.49.57-.13.34a12.58,12.58,0,0,0-1.76,1.74l-.87,1a5.82,5.82,0,0,1-.71.78L6.79,17.86v-.09c-.61.87-.12.72-.87,1.78-.49.5.29-.66,0-.33-.34,0-.84,1.38-1.39,2.11l.09-.21c-.38.59-.61,1.53-1.11,2.57h0c-.25.73-.65,2.13-.95,3.15,0-.36.11-.49-.08-.33-.15.46.24-.07-.06.84a4.12,4.12,0,0,1-.64,1c.08-.3.2-.57.3-.86a1.87,1.87,0,0,0-.33.75c-.06.3-.11.6-.17.82L1.52,29c-.33,1.36-.15,1.42-.54,2.83l.1-.14c0,.83-.23.66-.23,1.48l-.22.21c0,.54-.13,1.89-.19,2.83a15.76,15.76,0,0,1,0-2.38,13,13,0,0,0-.22,2.07,4,4,0,0,1,.07-.69,24.53,24.53,0,0,1,0,2.59C0,37.58,0,40.57-.11,41.33c.13.94.14,1.89.18,2.83a29.48,29.48,0,0,0,.42,3.07c.16-.82.1.64.37.45a6.26,6.26,0,0,0,.14.63v.1H1L1.24,50c0,.37-.19-.46-.24-.4.26,1.1,0,.49.11,1.24.06-.18.24.34.36.94l-.09-.94a8.29,8.29,0,0,1,.4,1.48,4.94,4.94,0,0,0,.43,1.45L2,53.33c.18.37.43,1.08.71,1.78a6.22,6.22,0,0,0,.95,1.66c0,.14.05.35-.13,0A23.65,23.65,0,0,0,5,59.48,24.73,24.73,0,0,1,6.4,61.83l-.14-.08a7.87,7.87,0,0,1,.65.87s-.15-.07,0,.06a9.86,9.86,0,0,1,.94,1.11l-.39-.29a15,15,0,0,0,1.47,1.89c.5.47,1,.89,1.56,1.46-.14.12.78,1.33,1.32,1.89h0a25.8,25.8,0,0,0,2.27,1.88c.72.53,1.52,1,2.35,1.6a9.5,9.5,0,0,0,.95.84c.39.3.89.58,1.38.89,1,.61,2.07,1.32,3,1.78-.26-.17.13-.12.46,0s1.26.45,1.1.59l-.15-.08a5,5,0,0,0,1.89,1l.21-.19a13.84,13.84,0,0,0,3.26,1.29,12.38,12.38,0,0,1,2.75.79,9,9,0,0,0,1.56.17v.13l1.7.3a12.78,12.78,0,0,0,2,.22l-.35.08c.94,0,1.22-.32,2.08-.3l.24.22a20.76,20.76,0,0,0,4.92-.1s-.07.09-.33.11c.77,0,3-.22,2.67-.44A8,8,0,0,0,48.24,79l-.11.16a7,7,0,0,1,1.7-.7c.2,0,.22,0,.05.06.65-.13.51-.26,1.43-.43l-.36.19a2.57,2.57,0,0,0,1.16-.47,4.63,4.63,0,0,1,1.68-.47,2.3,2.3,0,0,1,.94-.49c.09,0-.07.1-.16.14.31-.09.6-.19.89-.3a5.44,5.44,0,0,0,.67-.37,7.4,7.4,0,0,1,1.24-.59.19.19,0,0,0,.18,0c-.94.46-1.73.82-1.76.82s.88-.26.3.21a16.83,16.83,0,0,1,2.43-1.43h.12l-.08,0a3,3,0,0,0,.5-.26c.25-.13.41-.21.65-.35A7.3,7.3,0,0,0,61,74.05c-.1-.09.41-.37-.1-.19h0l-.33.21-.1.06a.12.12,0,0,0-.06.06h0l-1,.59a3.31,3.31,0,0,1,1-.68c.16-.2.33-.4.43-.51.63-.15,1.7-.7,1.89-.73l1.76-1.43a8.48,8.48,0,0,0,.79-.69,4.63,4.63,0,0,0,.52-.65,1.09,1.09,0,0,1,.51-.32,5,5,0,0,0-.42.47,14.2,14.2,0,0,0,1.73-1.83c.77-.62-.29.51.66-.48l-.09.18a16.47,16.47,0,0,0,2.33-2.67,18.83,18.83,0,0,1,2.16-2.88.62.62,0,0,1-.17.13,43.86,43.86,0,0,0,4.83-9.07A5,5,0,0,0,77.84,52l.21-.14c0-.33.07-.67.1-1A10.23,10.23,0,0,1,78.73,49c.13-.31.24-.63.34-1a6.77,6.77,0,0,0,.13-1.19l-.13.2a9.88,9.88,0,0,1,.34-1.88.72.72,0,0,1,0-.46h.08a10.16,10.16,0,0,0,0-1.56c.11-1.2.28.22.39-1.56C79.94,40.94,79.81,39.74,79.74,40ZM60.28,74.4h0a.37.37,0,0,1-.05.11c-.25.17-.35.2-.4.2ZM57,75.18c.09,0,0,.08-.12.15a4.22,4.22,0,0,0-.6.2Z"/><path class="cls-9" d="M60.71,74l-.09.07-.1.06h-.05l.07-.08Z"/><polygon class="cls-9" points="31.17 77.83 31.17 77.86 31.33 77.87 31.17 77.83"/><path class="cls-9" d="M70.44,15.18a.34.34,0,0,0,.06.12Z"/><path class="cls-9" d="M28.55,2.66h-.12C28.14,2.84,28.34,2.74,28.55,2.66Z"/><path class="cls-9" d="M44.49,1H44C44.26,1,44.48,1,44.49,1Z"/><polygon class="cls-9" points="13.28 11.72 13.28 11.72 13.2 11.78 13.28 11.72"/><path class="cls-9" d="M43.22.88a4.69,4.69,0,0,0,.75,0A4.69,4.69,0,0,0,43.22.88Z"/><path class="cls-9" d="M79,36v.19A.6.6,0,0,0,79,36Z"/><path class="cls-9" d="M79,36.54l0-.38A1,1,0,0,0,79,36.54Z"/><path class="cls-9" d="M78.21,31.35h0Z"/><path class="cls-9" d="M77.85,30a10.67,10.67,0,0,0,.26,1.25h0A10.83,10.83,0,0,0,77.85,30Z"/><path class="cls-9" d="M76.59,24.38c.15.36.25.74.37,1.11,0-.21,0-.49.15,0C76.75,24.05,77.12,25.82,76.59,24.38Z"/><path class="cls-9" d="M75.08,21.09c.29.56.07,0,.11,0C75,20.76,74.89,20.67,75.08,21.09Z"/><path class="cls-9" d="M56.21,3.64l.1-.09C55.87,3.36,56.29,3.6,56.21,3.64Z"/><path class="cls-9" d="M51.35,2.47l.42.2H52A4.6,4.6,0,0,0,51.35,2.47Z"/><polygon class="cls-9" points="48.71 0.91 48.92 0.94 48.13 0.79 48.71 0.91"/><path class="cls-9" d="M9,14.58h.21C9.35,14.3,9.28,14.16,9,14.58Z"/><path class="cls-9" d="M.9,31.61a1.94,1.94,0,0,0-.25,1C.73,32.22.84,31.81.9,31.61Z"/><polygon class="cls-9" points="26.05 77.53 25.67 77.45 26.37 77.66 26.05 77.53"/><path class="cls-10" d="M65.76,21.3l3.59,4.61a4.08,4.08,0,0,1-.73,5.73h0a4.1,4.1,0,0,1-5.74-.72l-3.59-4.61A4.08,4.08,0,0,1,60,20.58h0A4.1,4.1,0,0,1,65.76,21.3Z"/><ellipse class="cls-10" cx="51.7" cy="13.67" rx="3.94" ry="3.93"/></g><g id="back-2" data-name="back"><path class="cls-10" d="M92.37,38.58h-.06v-2h.05a23.6,23.6,0,0,0,4.82-.49l.4,2A26.12,26.12,0,0,1,92.37,38.58Z"/><path class="cls-10" d="M97.6,38.05l-.41-2A24.1,24.1,0,0,0,115.91,17.3l2,.4A26.1,26.1,0,0,1,97.6,38.05Z"/><path class="cls-10" d="M117.87,17.7l-2-.4a24.12,24.12,0,0,0,.48-4.8h2A26,26,0,0,1,117.87,17.7Z"/><path class="cls-10" d="M118.39,67.58h-2a23.5,23.5,0,0,0-.5-4.88l2-.4A26,26,0,0,1,118.39,67.58Z"/><path class="cls-10" d="M115.89,62.7A24.08,24.08,0,0,0,97.19,44l.41-2A26.09,26.09,0,0,1,117.85,62.3Z"/><path class="cls-10" d="M97.19,44a24.17,24.17,0,0,0-4.87-.5h0v-2h0A26.07,26.07,0,0,1,97.6,42Z"/><path class="cls-10" d="M142.6,44l-.41-2a26,26,0,0,1,5.28-.54h0v2h0A24.1,24.1,0,0,0,142.6,44Z"/><path class="cls-10" d="M123.89,62.7l-2-.4A26.12,26.12,0,0,1,142.19,42l.41,2A24.1,24.1,0,0,0,123.89,62.7Z"/><path class="cls-10" d="M121.39,67.58a26.07,26.07,0,0,1,.54-5.28l2,.4a24.35,24.35,0,0,0-.5,4.88Z"/><path class="cls-10" d="M121.91,17.7a26.74,26.74,0,0,1-.52-5.2h2a24.19,24.19,0,0,0,.48,4.8Z"/><path class="cls-10" d="M142.19,38.05A26.1,26.1,0,0,1,121.91,17.7l2-.4A24.1,24.1,0,0,0,142.6,36.09Z"/><path class="cls-10" d="M147.42,38.58a26.29,26.29,0,0,1-5.23-.53l.4-2a23.77,23.77,0,0,0,4.83.49h.05v2Z"/><path class="cls-10" d="M132.39,18.5a1,1,0,0,1-1-1V7.5a1,1,0,0,1,2,0v10A1,1,0,0,1,132.39,18.5Z"/><path class="cls-10" d="M152.39,28.5h-10a1,1,0,0,1,0-2h10a1,1,0,0,1,0,2Z"/><path class="cls-10" d="M137.39,23.5a1,1,0,0,1-.7-1.71l7.07-7.07a1,1,0,0,1,1.41,0,1,1,0,0,1,0,1.42l-7.07,7.07A1,1,0,0,1,137.39,23.5Z"/><path class="cls-10" d="M107.39,73.5a1,1,0,0,1-1-1v-10a1,1,0,1,1,2,0v10A1,1,0,0,1,107.39,73.5Z"/><path class="cls-10" d="M97.39,53.5h-10a1,1,0,1,1,0-2h10a1,1,0,0,1,0,2Z"/><path class="cls-10" d="M95.32,65.57a1,1,0,0,1-.7-1.71l7.07-7.07a1,1,0,0,1,1.41,0,1,1,0,0,1,0,1.42L96,65.28A1,1,0,0,1,95.32,65.57Z"/></g></svg>