<svg id="Livello_1" data-name="Livello 1" xmlns="http://www.w3.org/2000/svg" viewBox="0 0 160 80"><defs><style>.cls-1{fill:#f7f8e4;}.cls-2{fill:#d78381;}.cls-3{fill:#c66861;}.cls-4{fill:#aa5452;}</style></defs><title>pause</title><rect class="cls-1" x="24.7" y="20.81" width="31.89" height="38.42"/><g id="back"><path class="cls-2" d="M40,5A35,35,0,1,0,75,40,35,35,0,0,0,40,5ZM35.62,57.5H26.88v-35h8.74Zm17.5,0H44.38v-35h8.74Z"/></g><path class="cls-3" d="M35.29,70.31a34.68,34.68,0,0,1-22.23-8A35,35,0,1,0,62.19,12.93a35.09,35.09,0,0,1-26.9,57.38Z"/><rect class="cls-1" x="109.68" y="24.14" width="35.01" height="38.42"/><g id="back-2" data-name="back"><path class="cls-3" d="M120,5a35,35,0,1,0,35,35A35,35,0,0,0,120,5Zm-2.11,54.76h-8.75v-35h8.75Zm17.5,0h-8.75v-35h8.75Z"/></g><path class="cls-4" d="M124.69,9.69a34.83,34.83,0,0,1,22.29,8A35,35,0,1,0,97.71,67a35,35,0,0,1,27-57.29Z"/></svg>