<svg id="Livello_1" data-name="Livello 1" xmlns="http://www.w3.org/2000/svg" viewBox="0 0 360 120.75"><defs><style>.cls-1{fill:#24334e;}.cls-2{fill:#f2ce5d;}.cls-3{fill:none;}.cls-4{opacity:0.5;}.cls-4,.cls-8{isolation:isolate;}.cls-5{fill:#101823;}.cls-6{fill:#cc9637;}.cls-7{fill:#a9d1dc;}.cls-8{opacity:0.49;}</style></defs><title>sprites-ape</title><g id="Livello_1-2" data-name="Livello 1-2"><g id="back"><path class="cls-1" d="M318.79,95.5a15,15,0,0,0,16.46-1,15,15,0,0,1-9,3L318.73,120Z"/><path class="cls-2" d="M266.25,119.55a10.55,10.55,0,0,1-7.52-9.72,2.16,2.16,0,0,1,0-.36V63a10.52,10.52,0,0,1,10.52-10.5h34.48V45H266.25V32.54a5,5,0,0,1,2-4.05L293.9,9.22a6.16,6.16,0,0,1,5.17-1l9.18,2.27h0L318.75,0h7.5a15,15,0,0,1,10.58,4.4A12.07,12.07,0,0,1,338,5.76c.16.21.33.43.49.66a15,15,0,0,1,.17,17c-.27.4-.56.78-.86,1.15a14.54,14.54,0,0,1-2,2,14.85,14.85,0,0,1-9.5,3.43V48.74h-7.5V69.5a14.86,14.86,0,0,1,7.5-2h0a15,15,0,0,1,8.36,2.5,13.06,13.06,0,0,1,1.69,1.36l.53.5a15,15,0,0,1,0,21.19,16,16,0,0,1-1.64,1.43,15,15,0,0,1-16.46,1V120H269.25A11,11,0,0,1,266.25,119.55Z"/><path class="cls-1" d="M318.73,45h7.5V67.5a14.86,14.86,0,0,0-7.5,2Z"/><line class="cls-3" x1="266.23" y1="52.5" x2="266.23" y2="52.93"/><g class="cls-4"><path class="cls-5" d="M318.73,95.48A14.69,14.69,0,0,0,322.48,97v11.76L318.73,120Z"/></g><path class="cls-1" d="M331.05,96.71a15.68,15.68,0,0,0,3.2-1.53A14.48,14.48,0,0,1,331.05,96.71Z"/><g class="cls-4"><path class="cls-5" d="M318.73,45h3.75V68a14.15,14.15,0,0,0-3.75,1.5Z"/></g><path class="cls-6" d="M319.25,75a7.45,7.45,0,0,1,2.73.49v14a7.47,7.47,0,0,1-2.73.51Z"/><path class="cls-5" d="M318.75,95.5v-13h0a7.49,7.49,0,1,0,7.52-7.5,7.5,7.5,0,0,0-7.52,7.5v-13a14.94,14.94,0,0,1,15.92.54,11.29,11.29,0,0,1,1.71,1.37l.53.5a15,15,0,0,1,0,21.19,16,16,0,0,1-1.64,1.43,15.06,15.06,0,0,1-16.5,1Z"/><path class="cls-6" d="M310.48,51.74h9v69h-9Zm7.5,1.5h-6v66h6Z"/><path class="cls-6" d="M303,51.75h9v69h-9Zm7.5,1.5h-6v66h6Z"/><path class="cls-5" d="M326.25,0a15,15,0,0,1,0,30Z"/><path class="cls-2" d="M326.25,7.5a7.5,7.5,0,0,1,0,15Z"/><path class="cls-7" d="M273.13,38.82h0a1.82,1.82,0,0,1-1.8-1.82V34.15a1.81,1.81,0,0,1,.85-1.54L290,21.47a1.84,1.84,0,0,1,1.55-.18l5.72,2A1.81,1.81,0,0,1,298.53,25V37h0a1.82,1.82,0,0,1-1.8,1.82h-23.6Z"/><path class="cls-6" d="M271.59,38.55A2.16,2.16,0,0,1,271,37V34.15a2.19,2.19,0,0,1,1-1.86l17.87-11.14a2.19,2.19,0,0,1,1.87-.21l5.71,2A2.18,2.18,0,0,1,298.91,25V37a2.2,2.2,0,0,1-2.18,2.19h-23.6A2.17,2.17,0,0,1,271.59,38.55Zm18.65-16.76L272.38,32.93a1.43,1.43,0,0,0-.67,1.22V37a1.42,1.42,0,0,0,1.42,1.44h23.6A1.44,1.44,0,0,0,298.16,37V25a1.44,1.44,0,0,0-1-1.36l-5.72-2a1.24,1.24,0,0,0-.46-.08A1.41,1.41,0,0,0,290.24,21.79Z"/><path class="cls-5" d="M303.73,38.25a.75.75,0,0,0,.75-.75V30a.75.75,0,0,0-1.5,0v7.5A.76.76,0,0,0,303.73,38.25Z"/><rect class="cls-6" x="302.98" y="45" width="1.5" height="7.5"/><polygon class="cls-1" points="318.95 13.18 311.68 11.37 308.23 10.5 318.73 0 326.23 0 326.23 15 318.95 13.18"/><path class="cls-1" d="M266.25,119.55a10.52,10.52,0,0,1-7.52-10.08V62.93a10.48,10.48,0,0,1,10.52-10.44h27V120h-27A10.19,10.19,0,0,1,266.25,119.55Z"/><path class="cls-6" d="M326.25,7.49A7.37,7.37,0,0,1,329,8V22a7.35,7.35,0,0,1-2.71.49Z"/><rect class="cls-5" x="268.49" y="52.49" width="1.5" height="67.5"/><g class="cls-8"><path class="cls-5" d="M266.25,119.55a10.52,10.52,0,0,1-7.52-10.08V95.88a10.48,10.48,0,0,0,10.52,10.44h27V120h-27A10.19,10.19,0,0,1,266.25,119.55Z"/></g><path class="cls-6" d="M295.48,51.75h9v69h-9Zm7.5,1.5h-6v66h6Z"/></g></g><g id="Livello_1-2-2" data-name="Livello 1-2"><g id="back-2" data-name="back"><path class="cls-1" d="M41.27,120,33.75,97.5a15,15,0,0,1-9-3,15,15,0,0,0,16.46,1Z"/><path class="cls-2" d="M90.75,120H41.27V95.48a15,15,0,0,1-16.46-1,16,16,0,0,1-1.64-1.43,15,15,0,0,1,0-21.19l.53-.5A13.06,13.06,0,0,1,25.39,70a15,15,0,0,1,8.36-2.5h0a14.86,14.86,0,0,1,7.5,2V48.74h-7.5V30a14.85,14.85,0,0,1-9.5-3.43,14.54,14.54,0,0,1-2-2c-.3-.37-.59-.75-.86-1.15a15,15,0,0,1,.17-17c.16-.23.33-.45.49-.66A12.07,12.07,0,0,1,23.17,4.4,15,15,0,0,1,33.75,0h7.5l10.5,10.49h0l9.18-2.27a6.16,6.16,0,0,1,5.17,1L91.75,28.49a5,5,0,0,1,2,4.05V45H56.27v7.5H90.75A10.52,10.52,0,0,1,101.27,63v46.47a2.16,2.16,0,0,1,0,.36,10.55,10.55,0,0,1-7.52,9.72A11,11,0,0,1,90.75,120Z"/><path class="cls-1" d="M41.27,69.5a14.86,14.86,0,0,0-7.5-2V45h7.5Z"/><g class="cls-4"><path class="cls-5" d="M41.27,120l-3.75-11.24V97a14.69,14.69,0,0,0,3.75-1.52Z"/></g><path class="cls-1" d="M25.75,95.18A15.68,15.68,0,0,0,29,96.71,14.48,14.48,0,0,1,25.75,95.18Z"/><g class="cls-4"><path class="cls-5" d="M41.27,69.5A14.15,14.15,0,0,0,37.52,68V45h3.75Z"/></g><path class="cls-6" d="M40.75,90A7.47,7.47,0,0,1,38,89.49v-14A7.45,7.45,0,0,1,40.75,75Z"/><path class="cls-5" d="M33.75,97.49a15,15,0,0,1-9-3,16,16,0,0,1-1.64-1.43,15,15,0,0,1,0-21.19l.53-.5A11.29,11.29,0,0,1,25.35,70a14.94,14.94,0,0,1,15.92-.54v13A7.5,7.5,0,1,0,33.75,90a7.5,7.5,0,0,0,7.52-7.54h0v13A15,15,0,0,1,33.75,97.49Z"/><path class="cls-6" d="M49.52,120.74h-9v-69h9Zm-7.5-1.5h6v-66H42Z"/><path class="cls-6" d="M57,120.75H48v-69h9Zm-7.5-1.5h6v-66h-6Z"/><path class="cls-5" d="M33.75,30a15,15,0,0,1,0-30Z"/><path class="cls-2" d="M33.75,22.5a7.5,7.5,0,0,1,0-15Z"/><path class="cls-7" d="M86.86,38.82H63.27A1.82,1.82,0,0,1,61.47,37h0V25a1.81,1.81,0,0,1,1.22-1.71l5.72-2a1.84,1.84,0,0,1,1.55.18L87.82,32.61a1.81,1.81,0,0,1,.85,1.54V37a1.82,1.82,0,0,1-1.8,1.82h0Z"/><path class="cls-6" d="M86.87,39.19H63.27A2.2,2.2,0,0,1,61.09,37V25a2.18,2.18,0,0,1,1.48-2.06l5.71-2a2.19,2.19,0,0,1,1.87.21L88,32.29a2.19,2.19,0,0,1,1,1.86V37a2.17,2.17,0,0,1-2.17,2.19ZM69,21.57a1.24,1.24,0,0,0-.46.08l-5.72,2a1.44,1.44,0,0,0-1,1.36V37a1.44,1.44,0,0,0,1.43,1.44h23.6A1.42,1.42,0,0,0,88.29,37V34.15a1.43,1.43,0,0,0-.67-1.22L69.76,21.79A1.41,1.41,0,0,0,69,21.57Z"/><path class="cls-5" d="M56.27,38.25a.75.75,0,0,1-.75-.75V30A.75.75,0,0,1,57,30v7.5A.76.76,0,0,1,56.27,38.25Z"/><rect class="cls-6" x="55.52" y="45" width="1.5" height="7.5"/><polygon class="cls-1" points="33.77 15 33.77 0 41.27 0 51.77 10.5 48.32 11.37 41.05 13.18 33.77 15"/><path class="cls-1" d="M90.75,120h-27V52.49h27a10.48,10.48,0,0,1,10.52,10.44v46.54a10.52,10.52,0,0,1-7.52,10.08A10.19,10.19,0,0,1,90.75,120Z"/><path class="cls-6" d="M33.75,22.49A7.35,7.35,0,0,1,31,22V8a7.37,7.37,0,0,1,2.71-.51Z"/><rect class="cls-5" x="90.01" y="52.49" width="1.5" height="67.5"/><g class="cls-8"><path class="cls-5" d="M90.75,120h-27V106.32h27a10.48,10.48,0,0,0,10.52-10.44v13.59a10.52,10.52,0,0,1-7.52,10.08A10.19,10.19,0,0,1,90.75,120Z"/></g><path class="cls-6" d="M64.52,120.75h-9v-69h9Zm-7.5-1.5h6v-66H57Z"/></g></g><g id="back-3" data-name="back"><path class="cls-2" d="M215.6,36.73,201.33,13.87a8.26,8.26,0,0,0-7-3.87H170.41a16.12,16.12,0,0,0-13.65,7.54L144.33,37.25a11.28,11.28,0,0,0-1.72,6v68.52a8.23,8.23,0,0,0,8.24,8.23h58.56a8.24,8.24,0,0,0,8.24-8.24V43.85A13.49,13.49,0,0,0,215.6,36.73Z"/><polygon class="cls-1" points="172.53 0 162.71 14.99 197.24 14.99 187.91 0 172.53 0"/><rect class="cls-1" x="147.65" y="45" width="65" height="70" rx="3.27"/><rect class="cls-5" x="209.65" y="64.56" width="10.03" height="29.96" rx="4.01"/><rect class="cls-5" x="140.33" y="64.56" width="10.03" height="29.96" rx="4.01"/><rect class="cls-1" x="170.93" y="12.8" width="18.38" height="34.06"/><rect class="cls-5" x="175.14" y="0.01" width="10.03" height="29.96" rx="4.01"/><polygon class="cls-5" points="191.29 115 190.29 115 190.29 95.5 196.72 95.5 196.72 78.5 190.29 78.5 190.29 74.12 188.29 74.12 188.29 78.5 184.16 78.5 184.16 95.5 188.29 95.5 188.29 115 187.29 115 187.29 96.5 183.16 96.5 183.16 77.5 187.29 77.5 187.29 73.12 191.29 73.12 191.29 77.5 197.72 77.5 197.72 96.5 191.29 96.5 191.29 115"/><path class="cls-5" d="M191.3,71.12h-4v-.79L174.84,57.87l-.61-39.06,4-.07.58,37.45L191.3,68.67Zm-3-1h2v-1L177.82,56.61l-.58-36.85-2,0,.59,37.66L188.3,69.91Z"/><polygon class="cls-5" points="161.65 60.37 157.65 60.37 157.65 46.74 159.91 46.74 159.91 45 160.91 45 160.91 47.74 158.65 47.74 158.65 59.37 160.65 59.37 160.65 49.74 162.91 49.74 162.91 45 163.91 45 163.91 50.74 161.65 50.74 161.65 60.37"/><path class="cls-5" d="M188.3,106.81H157.64V91.44h11.09V81.76l-11.09-11.1V62.37h4V69l11.09,11.1V95.44H161.64v7.37H188.3Zm-29.66-1H187.3v-2H160.64V94.44h11.09V80.52l-11.09-11.1V63.37h-2v6.87l11.09,11.1v11.1H158.64Z"/><path class="cls-5" d="M208.43,106.81H190.3v-4h14.13V74.12H179.9V61.52l4,4v4.6h24.53Zm-17.13-1h16.13V71.12H182.9V65.94l-2-2v9.18h24.53v30.69H191.3Z"/><polygon class="cls-5" points="183.91 62.7 179.91 58.7 179.91 52.75 200.28 52.75 200.28 45 201.28 45 201.28 53.75 180.91 53.75 180.91 58.28 182.91 60.28 182.91 55.75 203.28 55.75 203.28 45 204.28 45 204.28 56.75 183.91 56.75 183.91 62.7"/><polygon class="cls-5" points="175.71 76.9 168.12 76.9 164.13 72.9 171.71 72.9 171.71 63.37 151.58 63.37 147.65 59.43 147.65 58.01 151.99 62.37 172.71 62.37 172.71 73.9 166.54 73.9 168.53 75.9 174.71 75.9 174.71 60.37 152.83 60.37 147.65 55.19 147.65 53.77 153.24 59.37 175.71 59.37 175.71 76.9"/><polygon class="cls-5" points="155.6 115 154.6 115 154.6 75.9 162.88 75.9 160.89 73.9 152.6 73.9 152.6 115 151.6 115 151.6 72.9 161.3 72.9 165.29 76.9 155.6 76.9 155.6 115"/></g></svg>