<svg id="Livello_1" data-name="Livello 1" xmlns="http://www.w3.org/2000/svg" viewBox="0 0 240 120"><defs><style>.cls-1{fill:#24334e;}.cls-2{fill:#f2ce5d;}.cls-3{fill:none;}.cls-4{opacity:0.5;}.cls-4,.cls-8{isolation:isolate;}.cls-5{fill:#101823;}.cls-6{fill:#cc9637;}.cls-7{fill:#a9d1dc;}.cls-8{opacity:0.49;}</style></defs><title>sprites-ape</title><g id="Livello_1-2" data-name="Livello 1-2"><g id="back"><path class="cls-1" d="M218.2,94.91a14.26,14.26,0,0,0,16-1,14.23,14.23,0,0,1-8.73,3l-7.29,22.36Z"/><path class="cls-2" d="M167.24,118.81a10.44,10.44,0,0,1-7.29-9.66,2.16,2.16,0,0,1,0-.36V62.61a10.33,10.33,0,0,1,10.2-10.44h33.44V44.72H167.24V32.34a5.06,5.06,0,0,1,1.94-4L194.06,9.16a5.84,5.84,0,0,1,5-1l8.9,2.25h0L218.16,0h7.27a14.38,14.38,0,0,1,10.26,4.37,14,14,0,0,1,1.09,1.35c.15.21.32.43.47.66a15.2,15.2,0,0,1,.17,16.89,13.53,13.53,0,0,1-.84,1.15,14.51,14.51,0,0,1-11.15,5.39V48.44h-7.27V69.07a14.15,14.15,0,0,1,7.27-2h0a14.28,14.28,0,0,1,8.11,2.49,12.38,12.38,0,0,1,1.64,1.35l.51.49a15.16,15.16,0,0,1,0,21.06,16.45,16.45,0,0,1-1.59,1.42,14.26,14.26,0,0,1-16,1v24.36h-48A9.87,9.87,0,0,1,167.24,118.81Z"/><path class="cls-1" d="M218.14,44.72h7.27V67.08a14.15,14.15,0,0,0-7.27,2Z"/><line class="cls-3" x1="167.22" y1="52.17" x2="167.22" y2="52.6"/><g class="cls-4"><path class="cls-5" d="M218.14,94.89a14.23,14.23,0,0,0,3.63,1.51v11.68l-3.63,11.17Z"/></g><path class="cls-1" d="M230.09,96.11a15.91,15.91,0,0,0,3.1-1.52A14.38,14.38,0,0,1,230.09,96.11Z"/><g class="cls-4"><path class="cls-5" d="M218.14,44.72h3.63V67.58a13.05,13.05,0,0,0-3.63,1.49Z"/></g><path class="cls-6" d="M218.64,74.53a7.28,7.28,0,0,1,2.65.49V88.93a7.06,7.06,0,0,1-2.65.51Z"/><path class="cls-5" d="M218.16,94.91V82h0a7.27,7.27,0,1,0,7.29-7.46A7.36,7.36,0,0,0,218.16,82V69a14.2,14.2,0,0,1,15.44.54,11.88,11.88,0,0,1,1.66,1.36l.51.49a15.16,15.16,0,0,1,0,21.06,16.45,16.45,0,0,1-1.59,1.42,14.33,14.33,0,0,1-16,1Z"/><path class="cls-6" d="M210.14,51.42h8.73V120h-8.73Zm7.27,1.49h-5.82V118.5h5.82Z"/><path class="cls-6" d="M202.86,51.43h8.73V120h-8.73Zm7.28,1.49h-5.82v65.59h5.82Z"/><path class="cls-5" d="M225.43,0A14.73,14.73,0,0,1,240,14.91a14.72,14.72,0,0,1-14.55,14.9Z"/><path class="cls-2" d="M225.43,7.45a7.37,7.37,0,0,1,7.28,7.46,7.37,7.37,0,0,1-7.28,7.45Z"/><path class="cls-7" d="M173.91,38.58h0a1.78,1.78,0,0,1-1.74-1.81V33.94a1.82,1.82,0,0,1,.82-1.53l17.32-11.07a1.75,1.75,0,0,1,1.51-.18l5.54,2a1.79,1.79,0,0,1,1.19,1.69V36.77h0a1.79,1.79,0,0,1-1.75,1.81H173.91Z"/><path class="cls-6" d="M172.42,38.31a2.21,2.21,0,0,1-.62-1.54V33.94a2.17,2.17,0,0,1,1-1.85L190.12,21a2.12,2.12,0,0,1,1.82-.21l5.54,2a2.16,2.16,0,0,1,1.43,2.05V36.77A2.16,2.16,0,0,1,196.8,39H173.91A2,2,0,0,1,172.42,38.31Zm18.09-16.66L173.18,32.72a1.44,1.44,0,0,0-.65,1.22v2.83a1.45,1.45,0,0,0,.4,1,1.41,1.41,0,0,0,1,.43H196.8a1.43,1.43,0,0,0,1.38-1.44V24.85a1.42,1.42,0,0,0-.94-1.35l-5.54-2a1.41,1.41,0,0,0-.45-.07A1.38,1.38,0,0,0,190.51,21.65Z"/><path class="cls-5" d="M203.59,38a.74.74,0,0,0,.73-.74V29.81a.73.73,0,1,0-1.46,0v7.46A.74.74,0,0,0,203.59,38Z"/><rect class="cls-6" x="202.86" y="44.72" width="1.45" height="7.45"/><polygon class="cls-1" points="218.35 13.1 211.3 11.3 207.96 10.44 218.14 0 225.41 0 225.41 14.91 218.35 13.1"/><path class="cls-1" d="M167.24,118.81a10.44,10.44,0,0,1-7.29-10V62.54a10.3,10.3,0,0,1,10.2-10.38h26.19v67.09H170.15A9.87,9.87,0,0,1,167.24,118.81Z"/><path class="cls-6" d="M225.43,7.44a7.2,7.2,0,0,1,2.63.51V21.86a7,7,0,0,1-2.63.49Z"/><rect class="cls-5" x="169.41" y="52.16" width="1.45" height="67.08"/><g class="cls-8"><path class="cls-5" d="M167.24,118.81a10.44,10.44,0,0,1-7.29-10V95.28a10.29,10.29,0,0,0,10.2,10.38h26.19v13.59H170.15A9.87,9.87,0,0,1,167.24,118.81Z"/></g><path class="cls-6" d="M195.59,51.43h8.73V120h-8.73Zm7.27,1.49H197v65.59h5.82Z"/></g></g><g id="Livello_1-2-2" data-name="Livello 1-2"><g id="back-2" data-name="back"><path class="cls-1" d="M21.86,119.25,14.57,96.89a14.23,14.23,0,0,1-8.73-3,14.26,14.26,0,0,0,16,1Z"/><path class="cls-2" d="M69.85,119.25h-48V94.89a14.26,14.26,0,0,1-16-1,16.45,16.45,0,0,1-1.59-1.42,15.16,15.16,0,0,1,0-21.06l.51-.49a12.38,12.38,0,0,1,1.64-1.35,14.28,14.28,0,0,1,8.11-2.49h0a14.15,14.15,0,0,1,7.27,2V48.44H14.57V29.81A14.09,14.09,0,0,1,5.36,26.4a14,14,0,0,1-1.94-2,13.53,13.53,0,0,1-.84-1.15A15.2,15.2,0,0,1,2.75,6.38c.15-.23.32-.45.47-.66A14,14,0,0,1,4.31,4.37,14.38,14.38,0,0,1,14.57,0h7.27L32,10.42h0l8.9-2.25a5.84,5.84,0,0,1,5,1L70.82,28.31a5.06,5.06,0,0,1,1.94,4V44.72H36.41v7.45H69.85a10.33,10.33,0,0,1,10.2,10.44v46.18a2.16,2.16,0,0,1,0,.36,10.44,10.44,0,0,1-7.29,9.66A9.87,9.87,0,0,1,69.85,119.25Z"/><path class="cls-1" d="M21.86,69.07a14.15,14.15,0,0,0-7.27-2V44.72h7.27Z"/><g class="cls-4"><path class="cls-5" d="M21.86,119.25l-3.63-11.17V96.4a14.23,14.23,0,0,0,3.63-1.51Z"/></g><path class="cls-1" d="M6.81,94.59a15.91,15.91,0,0,0,3.1,1.52A14.38,14.38,0,0,1,6.81,94.59Z"/><g class="cls-4"><path class="cls-5" d="M21.86,69.07a13.05,13.05,0,0,0-3.63-1.49V44.72h3.63Z"/></g><path class="cls-6" d="M21.36,89.44a7.06,7.06,0,0,1-2.65-.51V75a7.28,7.28,0,0,1,2.65-.49Z"/><path class="cls-5" d="M14.57,96.88a14.29,14.29,0,0,1-8.73-3,16.45,16.45,0,0,1-1.59-1.42,15.16,15.16,0,0,1,0-21.06l.51-.49a11.88,11.88,0,0,1,1.66-1.36A14.2,14.2,0,0,1,21.86,69V82a7.36,7.36,0,0,0-7.31-7.42,7.46,7.46,0,0,0,0,14.91A7.36,7.36,0,0,0,21.84,82h0V94.91A14.23,14.23,0,0,1,14.57,96.88Z"/><path class="cls-6" d="M29.86,120H21.13V51.42h8.73Zm-7.27-1.49h5.82V52.91H22.59Z"/><path class="cls-6" d="M37.14,120H28.41V51.43h8.73Zm-7.28-1.49h5.82V52.92H29.86Z"/><path class="cls-5" d="M14.57,29.81A14.72,14.72,0,0,1,0,14.91,14.73,14.73,0,0,1,14.57,0Z"/><path class="cls-2" d="M14.57,22.36a7.37,7.37,0,0,1-7.28-7.45,7.37,7.37,0,0,1,7.28-7.46Z"/><path class="cls-7" d="M66.08,38.58H43.2a1.79,1.79,0,0,1-1.75-1.81h0V24.84a1.79,1.79,0,0,1,1.19-1.69l5.54-2a1.75,1.75,0,0,1,1.51.18L67,32.41a1.82,1.82,0,0,1,.82,1.53v2.83a1.78,1.78,0,0,1-1.74,1.81h0Z"/><path class="cls-6" d="M66.09,39H43.2a2.16,2.16,0,0,1-2.11-2.18V24.84a2.16,2.16,0,0,1,1.43-2.05l5.54-2a2.12,2.12,0,0,1,1.82.21L67.2,32.09a2.17,2.17,0,0,1,1,1.85v2.83a2.21,2.21,0,0,1-.62,1.54A2,2,0,0,1,66.09,39ZM48.75,21.44a1.41,1.41,0,0,0-.45.07l-5.54,2a1.42,1.42,0,0,0-.94,1.35V36.77a1.43,1.43,0,0,0,1.38,1.44H66.09a1.41,1.41,0,0,0,1-.43,1.45,1.45,0,0,0,.4-1V33.94a1.44,1.44,0,0,0-.65-1.22L49.49,21.65A1.38,1.38,0,0,0,48.75,21.44Z"/><path class="cls-5" d="M36.41,38a.74.74,0,0,1-.73-.74V29.81a.73.73,0,1,1,1.46,0v7.46A.74.74,0,0,1,36.41,38Z"/><rect class="cls-6" x="35.68" y="44.72" width="1.45" height="7.45"/><polygon class="cls-1" points="14.59 14.91 14.59 0 21.86 0 32.05 10.44 28.7 11.3 21.65 13.1 14.59 14.91"/><path class="cls-1" d="M69.85,119.25H43.66V52.16H69.85a10.3,10.3,0,0,1,10.2,10.38v46.25a10.44,10.44,0,0,1-7.29,10A9.87,9.87,0,0,1,69.85,119.25Z"/><path class="cls-6" d="M14.57,22.35a7,7,0,0,1-2.63-.49V8a7.2,7.2,0,0,1,2.63-.51Z"/><rect class="cls-5" x="69.13" y="52.16" width="1.45" height="67.08"/><g class="cls-8"><path class="cls-5" d="M69.85,119.25H43.66V105.66H69.85a10.29,10.29,0,0,0,10.2-10.38v13.51a10.44,10.44,0,0,1-7.29,10A9.87,9.87,0,0,1,69.85,119.25Z"/></g><path class="cls-6" d="M44.41,120H35.68V51.43h8.73Zm-7.27-1.49H43V52.92H37.14Z"/></g></g><g id="back-3" data-name="back"><path class="cls-2" d="M155.91,36.73,141.5,13.87A8.34,8.34,0,0,0,134.44,10H110.31a16.32,16.32,0,0,0-13.78,7.54L84,37.25a11.29,11.29,0,0,0-1.73,6v68.52A8.27,8.27,0,0,0,90.58,120h59.07a8.28,8.28,0,0,0,8.32-8.24V43.85A13.41,13.41,0,0,0,155.91,36.73Z"/><polygon class="cls-1" points="112.45 0 102.54 14.99 137.38 14.99 127.96 0 112.45 0"/><path class="cls-1" d="M90.64,45h59a3.28,3.28,0,0,1,3.3,3.27v63.46a3.28,3.28,0,0,1-3.3,3.27h-59a3.28,3.28,0,0,1-3.3-3.27V48.27A3.28,3.28,0,0,1,90.64,45Z"/><path class="cls-5" d="M153.94,64.56h2a4,4,0,0,1,4.05,4V90.51a4,4,0,0,1-4.05,4h-2a4,4,0,0,1-4-4V68.57A4,4,0,0,1,153.94,64.56Z"/><path class="cls-5" d="M84,64.56h2a4,4,0,0,1,4,4V90.51a4,4,0,0,1-4,4H84a4,4,0,0,1-4-4V68.57A4,4,0,0,1,84,64.56Z"/><rect class="cls-1" x="110.83" y="12.8" width="18.54" height="34.06"/><path class="cls-5" d="M119.12,0h2a4,4,0,0,1,4,4V26a4,4,0,0,1-4,4h-2a4,4,0,0,1-4-4V4A4,4,0,0,1,119.12,0Z"/><polygon class="cls-5" points="131.38 115 130.37 115 130.37 95.5 136.86 95.5 136.86 78.5 130.37 78.5 130.37 74.12 128.36 74.12 128.36 78.5 124.18 78.5 124.18 95.5 128.36 95.5 128.36 115 127.35 115 127.35 96.5 123.17 96.5 123.17 77.5 127.35 77.5 127.35 73.12 131.38 73.12 131.38 77.5 137.87 77.5 137.87 96.5 131.38 96.5 131.38 115"/><path class="cls-5" d="M131.38,71.12h-4v-.79L114.78,57.87l-.62-39.06,4-.07.59,37.45,12.59,12.48Zm-3-1h2v-1L117.78,56.61l-.58-36.85-2,0,.59,37.66,12.58,12.46Z"/><polygon class="cls-5" points="101.47 60.37 97.43 60.37 97.43 46.74 99.71 46.74 99.71 45 100.72 45 100.72 47.74 98.44 47.74 98.44 59.37 100.46 59.37 100.46 49.74 102.74 49.74 102.74 45 103.75 45 103.75 50.74 101.47 50.74 101.47 60.37"/><path class="cls-5" d="M128.36,106.81H97.43V91.44h11.19V81.76L97.43,70.66V62.37h4V69l11.19,11.1V95.44H101.47v7.37h26.89Zm-29.92-1h28.91v-2H100.46V94.44h11.19V80.52l-11.19-11.1V63.37h-2v6.87l11.19,11.1v11.1H98.44Z"/><path class="cls-5" d="M148.67,106.81h-18.3v-4h14.26V74.12H119.89V61.52l4,4v4.6h24.74Zm-17.29-1h16.28V71.12H122.92V65.94l-2-2v9.18h24.74v30.69H131.38Z"/><polygon class="cls-5" points="123.93 62.7 119.89 58.7 119.89 52.75 140.44 52.75 140.44 45 141.45 45 141.45 53.75 120.9 53.75 120.9 58.28 122.92 60.28 122.92 55.75 143.47 55.75 143.47 45 144.48 45 144.48 56.75 123.93 56.75 123.93 62.7"/><polygon class="cls-5" points="115.65 76.9 108 76.9 103.98 72.9 111.62 72.9 111.62 63.37 91.31 63.37 87.34 59.43 87.34 58.01 91.73 62.37 112.63 62.37 112.63 73.9 106.41 73.9 108.42 75.9 114.64 75.9 114.64 60.37 92.57 60.37 87.34 55.19 87.34 53.77 92.99 59.37 115.65 59.37 115.65 76.9"/><polygon class="cls-5" points="95.37 115 94.36 115 94.36 75.9 102.72 75.9 100.7 73.9 92.35 73.9 92.35 115 91.34 115 91.34 72.9 101.12 72.9 105.14 76.9 95.37 76.9 95.37 115"/></g></svg>