<svg id="Livello_1" data-name="Livello 1" xmlns="http://www.w3.org/2000/svg" viewBox="0 0 400 180"><defs><style>.cls-1{fill:#f6f7e3;}.cls-2{fill:#a8d1db;}.cls-3{fill:#f1cd5c;}.cls-4{fill:#d68280;}</style></defs><title>title</title><g id="back"><path class="cls-1" d="M102.65,134.84H89V148H99.74v7.73H89v22.47H80.29V127.11h22.36Z"/><path class="cls-2" d="M130.3,178.17h-8.49l-2.47-14.31h-8.85l-2.32,14.29H100l9.36-51.06H121Zm-18.8-21.88h6.82l-3.4-18.45h-.29Z"/><path class="cls-3" d="M244.24,170.44h37.37v7.73H235.53V127.11h8.71Z"/><path class="cls-2" d="M253.17,148.52v-6.24c0-10.35,5.51-15.9,14.22-15.9s14.22,5.55,14.22,15.9v6.24c0,10.57-5.51,15.9-14.22,15.9C258.46,164.42,253.17,159.17,253.17,148.52Zm19.73.44v-7c0-5.11-1.45-7.95-5.51-7.95s-5.52,2.91-5.52,7.95v7c0,5,1.38,7.87,5.52,7.87S272.9,154,272.9,149Z"/><path class="cls-4" d="M273.37,93.7V73c0-10.35,5.51-15.89,14.22-15.89S301.82,62.63,301.82,73V93.7c0,10.57-5.52,15.9-14.23,15.9C278.67,109.57,273.37,104.35,273.37,93.7Zm19.73.44V72.62c0-5.11-1.45-8-5.51-8s-5.55,2.91-5.55,8V94.14c0,5,1.38,7.87,5.51,7.87S293.1,99.17,293.1,94.14Z"/><path class="cls-3" d="M62.15,127.11H53.44v8.76h8.71Zm-8.71,26.26h8.71v-8.75H53.44Zm-8.71-17.5v8.75h8.71v-8.75Zm17.42,0v8.75h8.7v-8.75Z"/><path class="cls-1" d="M8.71,108.88H0V57.81H8.71Z"/><path class="cls-2" d="M24.09,101H62.92v7.88H15.39V57.81h8.7Z"/><path class="cls-1" d="M109.49,95.5h.29l26-37.72h8.64v51.07h-8.71V71.6h-.37l-25.83,37.28H109L83.14,71.6h-.37v37.28H74.36V57.81H83.5Z"/><path class="cls-4" d="M180.19,80H159.82v6.69h17.47v7.77H159.82v6.69h21.1v7.74h-29.8V72.3h29.07Z"/><path class="cls-3" d="M186.91,65.69H151.12V57.81h80.39v7.88H195.62v43.23h-8.71Z"/><path class="cls-1" d="M231.51,100l-8.85,8.91H211.2L202.34,100V81.2l8.86-8.9h11.46l8.85,8.9ZM222.81,80H211v21.11h11.76Z"/><path class="cls-1" d="M267.27,100l-8.85,8.91H238.24V57.81h20.18l8.85,8.91Zm-8.71-34.43H247v35.6h11.61Z"/><path class="cls-1" d="M297.35,153.74l-8.85-8.9V136l8.85-8.9h20.84l8.86,8.9v6.64h-8.71v-7.81H297.2v10.8l21.35,4.75,8.85,8.89v10l-8.85,8.9H296.62l-8.85-8.9v-7.36h8.71v8.53h22.21v-12Z"/><polygon class="cls-1" points="228.81 127.11 153.02 127.11 146.78 166.94 146.49 166.94 140.1 127.11 131.25 127.11 140.32 178.17 152.08 178.17 159.9 134.84 228.81 134.84 228.81 127.11"/><path class="cls-4" d="M228.81,169.27l-8.86,8.9h-46.8l-8.87-8.9V150.5l8.87-8.9H220l8.86,8.9Zm-8.71-19.79H173V170.3h47.1Z"/><rect class="cls-2" x="347.45" y="56.79" width="7.68" height="7.72"/><rect class="cls-2" x="339.78" y="49.08" width="7.68" height="7.72"/><rect class="cls-2" x="377.09" y="56.97" width="7.68" height="7.72"/><rect class="cls-2" x="384.77" y="49.25" width="7.68" height="7.72"/><rect class="cls-2" x="376.92" y="86.74" width="7.68" height="7.72"/><rect class="cls-2" x="384.59" y="94.46" width="7.68" height="7.72"/><rect class="cls-2" x="347.28" y="86.57" width="7.68" height="7.72"/><rect class="cls-2" x="339.6" y="94.29" width="7.68" height="7.72"/><path class="cls-1" d="M333.77,21.67c-8.5,0-13.75-6.36-13.75-16.84V0h-7.67V4.83c0,10.48-5.25,16.84-13.77,16.84h-7.8v7.71h7.8c8.52,0,13.77,6.38,13.77,16.85v4.83h7.7V46.24c0-10.47,5.25-16.85,13.75-16.85h7.81V21.67Zm-15,6.86-2.59,5.65-2.54-5.68-4.83-3,4.83-3,2.54-5.67,2.55,5.67,4.82,3Z"/><path class="cls-2" d="M383.62,71.76c-8.51,0-13.75-6.36-13.75-16.84V42.38h-7.69V54.92c0,10.48-5.25,16.84-13.75,16.84H332.94v7.73h15.49c8.5,0,13.75,6.36,13.75,16.84v12.55h7.69V96.33c0-10.48,5.24-16.84,13.75-16.84h15.44V71.76Zm-15,6.86-2.57,5.68-2.55-5.68-4.82-3,4.82-3L366.05,67l2.56,5.68,4.82,3Z"/><path class="cls-4" d="M332,152.72v-.15c0-16.27,13.71-27.28,34-27.28s34,11.06,34,27.28v.15C400,169,386.29,180,366,180S332,169,332,152.72Zm59,0v-.15C391,141,380.91,133,366,133s-25,8-25,19.55v.15c0,11.6,10.08,19.55,25,19.55s25-8,25-19.55Z"/></g></svg>