<svg xmlns="http://www.w3.org/2000/svg" viewBox="0 0 20 80.71"><defs><style>.cls-1,.cls-2{fill:#faf4b8;}.cls-2{stroke:#cac27f;stroke-miterlimit:10;stroke-width:1.41px;}</style></defs><title>wall1</title><g id="Livello_2" data-name="Livello 2"><g id="idle"><rect class="cls-1" y="0.71" width="20" height="80"/><line class="cls-2" y1="0.71" x2="20" y2="0.71"/><line class="cls-2" y1="9.59" x2="20" y2="9.59"/><line class="cls-2" y1="18.48" x2="20" y2="18.48"/><line class="cls-2" y1="27.37" x2="20" y2="27.37"/><line class="cls-2" y1="36.26" x2="20" y2="36.26"/><line class="cls-2" y1="45.15" x2="20" y2="45.15"/><line class="cls-2" y1="54.04" x2="20" y2="54.04"/><line class="cls-2" y1="62.93" x2="20" y2="62.93"/><line class="cls-2" y1="71.82" x2="20" y2="71.82"/><line class="cls-2" x1="10" y1="0.71" x2="10" y2="9.59"/><line class="cls-2" x1="10" y1="18.48" x2="10" y2="27.37"/><line class="cls-2" x1="10" y1="36.26" x2="10" y2="45.15"/><line class="cls-2" x1="10" y1="54.04" x2="10" y2="62.93"/><line class="cls-2" x1="10" y1="71.82" x2="10" y2="80.71"/><line class="cls-2" x1="15.97" y1="9.47" x2="15.97" y2="18.36"/><line class="cls-2" x1="4.03" y1="9.47" x2="4.03" y2="18.36"/><line class="cls-2" x1="15.97" y1="27.37" x2="15.97" y2="36.26"/><line class="cls-2" x1="4.03" y1="27.37" x2="4.03" y2="36.26"/><line class="cls-2" x1="15.97" y1="45.27" x2="15.97" y2="54.16"/><line class="cls-2" x1="4.03" y1="45.27" x2="4.03" y2="54.16"/><line class="cls-2" x1="15.97" y1="63.17" x2="15.97" y2="72.06"/><line class="cls-2" x1="4.03" y1="63.17" x2="4.03" y2="72.06"/></g></g></svg>