<svg xmlns="http://www.w3.org/2000/svg" viewBox="0 0 480 800"><defs><style>.cls-1{fill:#24334e;}.cls-2{opacity:0.58;}.cls-3{fill:#a9d1dc;}</style></defs><title>background</title><g id="Livello_2" data-name="Livello 2"><g id="back"><rect class="cls-1" width="480" height="800"/><g class="cls-2"><rect class="cls-3" x="200.75" y="95.4" width="6.89" height="6.89"/><rect class="cls-3" x="193.86" y="88.51" width="6.89" height="6.89"/><rect class="cls-3" x="200.75" y="81.62" width="6.89" height="6.89"/><rect class="cls-3" x="207.64" y="88.51" width="6.89" height="6.89"/></g><g class="cls-2"><rect class="cls-3" x="73.11" y="643.44" width="6.89" height="6.89"/><rect class="cls-3" x="66.22" y="636.55" width="6.89" height="6.89"/><rect class="cls-3" x="73.11" y="629.66" width="6.89" height="6.89"/><rect class="cls-3" x="80" y="636.55" width="6.89" height="6.89"/></g><g class="cls-2"><rect class="cls-3" x="236.56" y="723.44" width="6.89" height="6.89"/><rect class="cls-3" x="229.67" y="716.56" width="6.89" height="6.89"/><rect class="cls-3" x="236.56" y="709.67" width="6.89" height="6.89"/><rect class="cls-3" x="243.44" y="716.56" width="6.89" height="6.89"/></g><g class="cls-2"><rect class="cls-3" x="396.2" y="483.44" width="6.89" height="6.89"/><rect class="cls-3" x="389.32" y="476.56" width="6.89" height="6.89"/><rect class="cls-3" x="396.2" y="469.67" width="6.89" height="6.89"/><rect class="cls-3" x="403.09" y="476.56" width="6.89" height="6.89"/></g><g class="cls-2"><path class="cls-3" d="M87.15,237.31c-6,0-9.61-4.42-9.61-11.7v-3.36H72.18v3.36c0,7.28-3.66,11.7-9.61,11.7H57.13v5.36h5.44c5.95,0,9.61,4.42,9.61,11.71v3.36h5.36v-3.36c0-7.29,3.66-11.71,9.61-11.71H92.6v-5.36Zm-10.51,4.77L74.87,246l-1.79-3.94L69.72,240l3.36-2.09L74.87,234l1.77,3.95L80,240Z"/></g><g class="cls-2"><path class="cls-3" d="M350.55,296.58c-5.94,0-9.6-4.43-9.6-11.7v-3.36h-5.36v3.36c0,7.27-3.67,11.7-9.61,11.7h-5.45v5.36H326c5.94,0,9.61,4.42,9.61,11.71V317H341v-3.35c0-7.29,3.66-11.71,9.6-11.71H356v-5.36Zm-10.5,4.76-1.78,3.94-1.79-3.94-3.35-2.08,3.35-2.09,1.79-3.94,1.78,3.94,3.37,2.09Z"/></g><g class="cls-2"><rect class="cls-3" x="380.72" y="144.01" width="6.55" height="6.55"/><rect class="cls-3" x="374.17" y="137.45" width="6.55" height="6.55"/><rect class="cls-3" x="406" y="144.15" width="6.55" height="6.55"/><rect class="cls-3" x="412.55" y="137.6" width="6.55" height="6.55"/><rect class="cls-3" x="405.85" y="169.43" width="6.55" height="6.55"/><rect class="cls-3" x="412.4" y="175.99" width="6.55" height="6.55"/><rect class="cls-3" x="380.57" y="169.29" width="6.55" height="6.55"/><rect class="cls-3" x="374.02" y="175.84" width="6.55" height="6.55"/><path class="cls-3" d="M411.57,156.72c-7.26,0-11.73-5.4-11.73-14.3V131.78h-6.55v10.64c0,8.9-4.48,14.3-11.74,14.3H368.33v6.55h13.22c7.26,0,11.74,5.41,11.74,14.31v10.64h6.55V177.58c0-8.9,4.47-14.31,11.73-14.31h13.21v-6.55Zm-12.83,5.82-2.18,4.82-2.17-4.82L390.27,160l4.12-2.54,2.17-4.82,2.18,4.82,4.1,2.54Z"/></g><g class="cls-2"><rect class="cls-3" x="380.72" y="624.01" width="6.55" height="6.55"/><rect class="cls-3" x="374.17" y="617.46" width="6.55" height="6.55"/><rect class="cls-3" x="406" y="624.16" width="6.55" height="6.55"/><rect class="cls-3" x="412.55" y="617.61" width="6.55" height="6.55"/><rect class="cls-3" x="405.85" y="649.44" width="6.55" height="6.55"/><rect class="cls-3" x="412.4" y="655.99" width="6.55" height="6.55"/><rect class="cls-3" x="380.57" y="649.29" width="6.55" height="6.55"/><rect class="cls-3" x="374.02" y="655.84" width="6.55" height="6.55"/><path class="cls-3" d="M411.57,636.73c-7.26,0-11.73-5.41-11.73-14.31V611.78h-6.55v10.64c0,8.9-4.48,14.31-11.74,14.31H368.33v6.54h13.22c7.26,0,11.74,5.41,11.74,14.31v10.64h6.55V657.58c0-8.9,4.47-14.31,11.73-14.31h13.21v-6.54Zm-12.83,5.82-2.18,4.81-2.17-4.81L390.27,640l4.12-2.54,2.17-4.81,2.18,4.81,4.1,2.54Z"/></g><g class="cls-2"><rect class="cls-3" x="140.72" y="384.01" width="6.55" height="6.55"/><rect class="cls-3" x="134.17" y="377.45" width="6.55" height="6.55"/><rect class="cls-3" x="166" y="384.15" width="6.55" height="6.55"/><rect class="cls-3" x="172.55" y="377.6" width="6.55" height="6.55"/><rect class="cls-3" x="165.85" y="409.43" width="6.55" height="6.55"/><rect class="cls-3" x="172.4" y="415.99" width="6.55" height="6.55"/><rect class="cls-3" x="140.57" y="409.29" width="6.55" height="6.55"/><rect class="cls-3" x="134.02" y="415.84" width="6.55" height="6.55"/><path class="cls-3" d="M171.57,396.72c-7.26,0-11.73-5.4-11.73-14.3V371.78h-6.55v10.64c0,8.9-4.48,14.3-11.74,14.3H128.33v6.55h13.22c7.26,0,11.74,5.41,11.74,14.31v10.64h6.55V417.58c0-8.9,4.47-14.31,11.73-14.31h13.21v-6.55Zm-12.83,5.82-2.18,4.82-2.17-4.82L150.27,400l4.12-2.54,2.17-4.82,2.18,4.82,4.1,2.54Z"/></g></g></g></svg>