<svg id="Livello_1" data-name="Livello 1" xmlns="http://www.w3.org/2000/svg" viewBox="0 0 160 80"><defs><style>.cls-1{fill:#f2ce5d;}.cls-2{fill:#d78381;}.cls-3{fill:#693535;}.cls-4{fill:#cc9637;}</style></defs><title>tree</title><g id="ostacles"><path class="cls-1" d="M65,80a10,10,0,0,1-3.14-19.49C58,60.16,55,56.44,55,52.51a7.5,7.5,0,1,1,15,0A7.07,7.07,0,0,1,69.55,55,3.42,3.42,0,0,1,70,55a5,5,0,0,1,3,9,10,10,0,0,1-8,16Z"/><polygon class="cls-2" points="58.59 71.41 48.59 61.41 38 50.83 38 38.5 26.45 38.5 16.45 48.5 0 48.5 0 30.18 7.85 30.18 16.19 38.86 23.55 31.5 65.75 31.5 79.25 13.5 85 13.5 85 16.5 80.75 16.5 68.19 33.24 76.45 41.5 88.55 41.5 117.53 12.53 122.47 17.47 104.17 35.78 126.25 53.44 123.75 56.56 101.33 38.62 91.45 48.5 73.55 48.5 63.55 38.5 42 38.5 42 49.17 51.41 58.59 51.73 58.92 56.36 54.29 57.78 55.71 53.15 60.34 61.41 68.59 58.59 71.41"/><polygon class="cls-3" points="80.75 16.5 68.19 33.3 67.35 32.46 80.75 14.53 85 14.53 85 16.5 80.75 16.5"/><polygon class="cls-3" points="122.47 17.47 105.26 34.69 104.17 33.81 121.49 16.49 122.47 17.47"/><polygon class="cls-3" points="26.45 38.5 16.45 48.5 0 48.5 0 46.53 16.45 46.53 26.45 36.53 38 36.53 38 38.5 26.45 38.5"/><polygon class="cls-3" points="101.33 38.62 91.45 48.5 73.55 48.5 63.55 38.5 42 38.5 42 36.53 63.55 36.53 73.55 46.53 91.45 46.53 101.33 36.65 123.75 54.59 125.29 52.67 126.25 53.44 123.75 56.56 101.33 38.62"/><polygon class="cls-3" points="58.59 71.41 48.59 61.41 38 50.83 38 48.86 48.59 59.44 58.59 69.44 60.42 67.61 61.41 68.59 58.59 71.41"/><path class="cls-1" d="M113.76,31.27h0c-.24-.12-.48-.26-.71-.4l-.15-.09c-.23-.15-.46-.3-.68-.46s-.43-.31-.63-.47l-.27-.23c-.14-.11-.27-.23-.4-.35l-.63-.61c-.12-.12-.23-.25-.34-.38-.29-.32-.57-.65-.83-1l-.47-.69q-.25-.39-.48-.81c-.14-.25-.27-.51-.39-.77l0-.11-.19-.44-.22-.54a14,14,0,0,1-.53-1.89,10,10,0,0,1-.21-1.33,13.9,13.9,0,0,1-.08-1.44,12,12,0,0,1,.07-1.34l.07-.59a3.4,3.4,0,0,1,.12-.71,13.64,13.64,0,0,0,7.45,9.6,22.87,22.87,0,0,0-.45,4.52Z"/><path class="cls-1" d="M116.47,46.9l-.4-.79-.39-.84-.32-.75A23,23,0,0,1,113.75,36a13.82,13.82,0,0,1,.06-1.58,3.82,3.82,0,0,1,.08-1v-.1a23,23,0,0,0,4.58,11.32A17.43,17.43,0,0,0,116.47,46.9Z"/><path class="cls-1" d="M154.47,51a8.52,8.52,0,0,0,.09-1.24,9.41,9.41,0,0,0-.64-3.44,22.83,22.83,0,0,0,5.92-13A21.78,21.78,0,0,1,160,36c0,.71,0,1.42-.1,2.12v.23a7.16,7.16,0,0,1-.12,1,23.16,23.16,0,0,1-.5,2.48c-.05.2-.1.41-.17.61l-.11.26-.2.65q-.11.33-.24.66l-.06.19-.3.8c-.16.38-.33.77-.51,1.14s-.27.53-.41.79-.28.52-.43.77c-.32.55-.67,1.09-1,1.61-.1.14-.2.29-.32.43s-.26.36-.4.53S154.69,50.74,154.47,51Z"/><path class="cls-1" d="M130.07,80a17.24,17.24,0,0,1-17.22-17.23v-.94a4.17,4.17,0,0,1,.07-.93l.1-.78A17.23,17.23,0,0,0,147.23,59a9.46,9.46,0,0,0,7-6.63v.06l.16.57a5.41,5.41,0,0,0,.12.66,2,2,0,0,0,.06.47v.37a4.69,4.69,0,0,1,0,.53,9.51,9.51,0,0,1-7.33,9.26A17.23,17.23,0,0,1,130.07,80Z"/><path class="cls-1" d="M130.07,74.69A17.23,17.23,0,0,1,113,60.12h0a18.08,18.08,0,0,1-.2-2.65,17.11,17.11,0,0,1,3.67-10.57,16.61,16.61,0,0,1,2-2.19,23,23,0,0,1-4.57-11.32h0c-.08-.7-.13-1.4-.14-2.1v-.56a22.87,22.87,0,0,1,.45-4.52,13.64,13.64,0,0,1-7.45-9.6h0a14.67,14.67,0,0,1,.37-1.45q.2-.59.42-1.14l.09-.21a9.36,9.36,0,0,1,.51-1l.32-.57.36-.55.38-.53c.13-.18.26-.35.4-.51l.39-.5a13.7,13.7,0,0,1,2.85-2.41l.4-.24.39-.22c.13-.07.33-.18.5-.25a8.48,8.48,0,0,1,.86-.41c.31-.13.62-.25.94-.35a6.73,6.73,0,0,1,.87-.27,2.91,2.91,0,0,0,.55-.13c.19,0,.44-.09.67-.12s.45-.07.68-.09.46,0,.69,0h.7a13.44,13.44,0,0,1,4.53.78A9.61,9.61,0,0,1,133.7,0h1a1.44,1.44,0,0,1,.54.07c.18.07.24,0,.36.07a2.44,2.44,0,0,0,.54.11c.18,0,.44.13.65.2h.13l.55.22a.72.72,0,0,1,.2.09l.61.29h0a5.74,5.74,0,0,1,.53.32c.21.13.42.27.63.43l.32.25a9.54,9.54,0,0,1,1.39,1.45l.29.37c.09.12.18.24.26.37a.57.57,0,0,1,.12.18,3.72,3.72,0,0,1,.21.39h0l.32.62c.12.25.23.51.33.77a6.2,6.2,0,0,1,.23.69h0V7c.06.19.1.38.14.57v.25l.1.65a4.72,4.72,0,0,1,.18.53,5.61,5.61,0,0,1,0,.58,9.52,9.52,0,0,1-.85,4,22.15,22.15,0,0,1,2.55.79,5.25,5.25,0,0,1,.55.22l.56.23.87.4c.29.14.64.32,1,.49l.64.37.12.07a8.65,8.65,0,0,1,.76.47c.27.17.53.34.78.53a22,22,0,0,1,2.21,1.77l.68.65.49.5.39.47a12.63,12.63,0,0,1,1,1.24l.48.64c.19.26.37.51.54.78s.27.4.39.61c.39.62.74,1.25,1.07,1.91s.5,1.05.72,1.59.42,1.1.6,1.66l.25.85.22.86.19.87.16.89.12.9a22.83,22.83,0,0,1-5.92,13,9.41,9.41,0,0,1,.64,3.44,8.28,8.28,0,0,1,0,1.22,7.31,7.31,0,0,1-.29,1.39,9.47,9.47,0,0,1-7,6.63A17.24,17.24,0,0,1,130.07,74.69Z"/><path class="cls-4" d="M116.47,46.9l-.4-.79-.39-.84-.32-.75A23,23,0,0,1,113.75,36a13.82,13.82,0,0,1,.06-1.58,3.82,3.82,0,0,1,.08-1v-.1a23,23,0,0,0,4.58,11.32A17.43,17.43,0,0,0,116.47,46.9Z"/><path class="cls-4" d="M113.76,31.27h0c-.24-.12-.48-.26-.71-.4l-.15-.09c-.23-.15-.46-.3-.68-.46s-.43-.31-.63-.47l-.27-.23c-.14-.11-.27-.23-.4-.35l-.63-.61c-.12-.12-.23-.25-.34-.38-.29-.32-.57-.65-.83-1l-.47-.69q-.25-.39-.48-.81c-.14-.25-.27-.51-.39-.77l0-.11-.19-.44-.22-.54a14,14,0,0,1-.53-1.89,10,10,0,0,1-.21-1.33,13.9,13.9,0,0,1-.08-1.44,12,12,0,0,1,.07-1.34l.07-.59a3.4,3.4,0,0,1,.12-.71,13.64,13.64,0,0,0,7.45,9.6,22.87,22.87,0,0,0-.45,4.52Z"/><path class="cls-4" d="M154.47,51a8.52,8.52,0,0,0,.09-1.24,9.41,9.41,0,0,0-.64-3.44,22.83,22.83,0,0,0,5.92-13A21.78,21.78,0,0,1,160,36c0,.71,0,1.42-.1,2.12v.23a7.16,7.16,0,0,1-.12,1,23.16,23.16,0,0,1-.5,2.48c-.05.2-.1.41-.17.61l-.11.26-.2.65q-.11.33-.24.66l-.06.19-.3.8c-.16.38-.33.77-.51,1.14s-.27.53-.41.79-.28.52-.43.77c-.32.55-.67,1.09-1,1.61-.1.14-.2.29-.32.43s-.26.36-.4.53S154.69,50.74,154.47,51Z"/><path class="cls-4" d="M130.07,80a17.24,17.24,0,0,1-17.22-17.23v-.94a4.17,4.17,0,0,1,.07-.93l.1-.78A17.23,17.23,0,0,0,147.23,59a9.46,9.46,0,0,0,7-6.63v.06l.16.57a5.41,5.41,0,0,0,.12.66,2,2,0,0,0,.06.47v.37a4.69,4.69,0,0,1,0,.53,9.51,9.51,0,0,1-7.33,9.26A17.23,17.23,0,0,1,130.07,80Z"/><path class="cls-1" d="M80,30a5,5,0,0,1-3-9A10,10,0,0,1,77,9a5,5,0,1,1,8-4,10,10,0,0,1,0,20A5,5,0,0,1,80,30Z"/><path class="cls-1" d="M81.45,28.55a5,5,0,0,1-3-9,10,10,0,0,1,0-12,5,5,0,0,1-2-4A4.82,4.82,0,0,1,77.29.8,4.94,4.94,0,0,1,80,0a5,5,0,0,1,5,5,10,10,0,0,1,7.76,16.31,10,10,0,0,1-6.31,2.24A5,5,0,0,1,81.45,28.55Z"/><path class="cls-4" d="M86.45,23.55a10,10,0,0,0,6.31-2.24,10,10,0,0,1-6.51,3.61A4.88,4.88,0,0,0,86.45,23.55Z"/><path class="cls-4" d="M80,30a5,5,0,0,1-3-9A10,10,0,0,1,77,9a5,5,0,0,1-1-7A5.08,5.08,0,0,1,77.29.8a4.82,4.82,0,0,0-.84,2.75,5,5,0,0,0,2,4,10,10,0,0,0,0,12,5,5,0,0,0,3,9,4.82,4.82,0,0,0,2.75-.84A5,5,0,0,1,80,30Z"/><path class="cls-1" d="M66.47,78.53a10,10,0,0,1-7.75-16.3A10.71,10.71,0,0,1,63.33,59c-3.85-.35-6.86-4.07-6.86-8A7.46,7.46,0,0,1,58,46.5a7.51,7.51,0,0,1,12,6h0A7.07,7.07,0,0,1,69.55,55,3.4,3.4,0,0,1,70,55a5,5,0,0,1,3,9,10,10,0,0,1-.23,12.3A10,10,0,0,1,66.47,78.53Z"/><path class="cls-4" d="M63.33,59a9.62,9.62,0,0,0-2.54,1.28A8.17,8.17,0,0,1,55,52.5a7.46,7.46,0,0,1,3-6A7.46,7.46,0,0,0,56.49,51C56.47,55,59.48,58.69,63.33,59Z"/><path class="cls-4" d="M65,80a10,10,0,0,1-6.28-17.77,10,10,0,0,0,14,14.07A10,10,0,0,1,65,80Z"/></g></svg>