<?xml version="1.0" standalone="no"?><!DOCTYPE svg PUBLIC "-//W3C//DTD SVG 1.1//EN" "http://www.w3.org/Graphics/SVG/1.1/DTD/svg11.dtd" ><svg version="1.1" xmlns="http://www.w3.org/2000/svg"><defs><font horiz-adv-x="0" id="font"><font-face ascent="750" bbox="-82 -259 1280 983" cap-height="700" descent="-250" font-family="Stonewall 50" font-weight="350" units-per-em="1000" x-height="500" /><missing-glyph horiz-adv-x="500" /><glyph d="M241 229H667V337H241ZM518 700H394L-5 0H124L282 281L450 593H454L623 281L782 0H917ZM451 699ZM916 0ZM449 -1Z" glyph-name="A" horiz-adv-x="912" unicode="A" /><glyph d="M284 700H124L-5 0H108L146 233L150 277L197 553H201L252 277L256 233L296 0H413ZM98 196H318V300H98Z" glyph-name="A.alt01" horiz-adv-x="408" /><glyph d="M171 210H494V314H171ZM397 700H263L-5 0H115L323 566H327L534 0H665Z" glyph-name="A.alt02" horiz-adv-x="660" /><glyph d="M214 210H537V314H214ZM523 700H399L0 0H134L455 571H459ZM917 700H459V0H927V106H579V315H877V419H579V594H917ZM506 700Z" glyph-name="AE" horiz-adv-x="959" unicode="&#198;" /><glyph d="M214 210H537V314H214ZM523 700H399L0 0H134L455 571H459ZM917 700H459V0H927V106H579V315H877V419H579V594H917ZM506 700ZM513 910 430 772H568L657 910ZM506 700Z" glyph-name="AEacute" horiz-adv-x="959" unicode="&#508;" /><glyph d="M214 210H537V314H214ZM523 700H399L0 0H134L455 571H459ZM917 700H459V0H927V106H579V315H877V419H579V594H917ZM506 700ZM372 772H638V870H372ZM506 700Z" glyph-name="AEmacron" horiz-adv-x="959" unicode="&#482;" /><glyph d="M241 229H667V337H241ZM518 700H394L-5 0H124L282 281L450 593H454L623 281L782 0H917ZM451 699ZM916 0ZM449 -1ZM479 909 396 771H534L623 909ZM472 699Z" glyph-name="Aacute" horiz-adv-x="912" unicode="&#193;" /><glyph d="M267 913V857H142V913H28V873L130 771H279L381 873V913ZM205 699ZM284 700H124L-5 0H108L146 233L150 277L197 553H201L252 277L256 233L296 0H413ZM98 196H318V300H98Z" glyph-name="Abreve" horiz-adv-x="408" unicode="&#258;" /><glyph d="M404 771 509 913H381L331 851H329L279 913H151L256 771ZM329 985ZM331 699ZM171 210H494V314H171ZM397 700H263L-5 0H115L323 566H327L534 0H665Z" glyph-name="Acaron" horiz-adv-x="660" unicode="&#461;" /><glyph d="M255 913 150 771H278L328 833H330L380 771H508L403 913ZM330 699ZM171 210H494V314H171ZM397 700H263L-5 0H115L323 566H327L534 0H665Z" glyph-name="Acircumflex" horiz-adv-x="660" unicode="&#194;" /><glyph d="M241 229H667V337H241ZM518 700H394L-5 0H124L282 281L450 593H454L623 281L782 0H917ZM451 699ZM916 0ZM449 -1ZM349 761C390 761 424 793 424 835C424 876 392 907 349 907C307 907 275 875 275 835C275 793 307 761 349 761ZM552 761C594 761 628 793 628 835C628 876 596 907 552 907C511 907 479 875 479 835C479 793 511 761 552 761ZM451 699Z" glyph-name="Adieresis" horiz-adv-x="912" unicode="&#196;" /><glyph d="M185 909 268 771H130L41 909ZM192 699ZM195 699ZM284 700H124L-5 0H108L146 233L150 277L197 553H201L252 277L256 233L296 0H413ZM98 196H318V300H98Z" glyph-name="Agrave" horiz-adv-x="408" unicode="&#192;" /><glyph d="M197 771H463V869H197ZM331 699ZM171 210H494V314H171ZM397 700H263L-5 0H115L323 566H327L534 0H665Z" glyph-name="Amacron" horiz-adv-x="660" unicode="&#256;" /><glyph d="M241 229H667V337H241ZM518 700H394L-5 0H124L282 281L450 593H454L623 281L782 0H917ZM451 699ZM916 0ZM449 -1ZM830 0V-96L919 -185H992V-109H917V0ZM917 0Z" glyph-name="Aogonek" horiz-adv-x="912" unicode="&#260;" /><glyph d="M95 875C95 816 140 771 204 771C270 771 314 816 314 877C314 936 271 982 203 982C141 982 95 936 95 875ZM160 877C160 903 178 922 204 922C232 922 249 903 249 877C249 850 231 830 205 830C178 830 160 850 160 877ZM204 699ZM284 700H124L-5 0H108L146 233L150 277L197 553H201L252 277L256 233L296 0H413ZM98 196H318V300H98Z" glyph-name="Aring" horiz-adv-x="408" unicode="&#197;" /><glyph d="M322 909H204L146 851V771H241V814H295L338 771H456L514 829V909H419V866H365ZM329 699ZM171 210H494V314H171ZM397 700H263L-5 0H115L323 566H327L534 0H665Z" glyph-name="Atilde" horiz-adv-x="660" unicode="&#195;" /><glyph d="M46 0H460L582 122V291L505 369L567 431V578L445 700H46ZM462 106H166V308H462ZM447 414H166V594H447Z" glyph-name="B" horiz-adv-x="612" unicode="B" /><glyph d="M46 0H300L422 122V291L345 369L407 431V578L285 700H46ZM302 106H166V309H302ZM287 413H166V594H287Z" glyph-name="B.alt01" horiz-adv-x="448" /><glyph d="M46 0H688L810 122V291L733 369L795 431V578L673 700H46ZM690 108H166V307H690ZM675 415H166V592H675Z" glyph-name="B.alt02" horiz-adv-x="840" /><glyph d="M46 0H557C736 0 810 84 810 193V195C810 281 767 345 662 363V365C748 382 791 446 791 519V521C791 612 725 700 554 700H46ZM166 106V304H544C651 304 690 263.4141 690 206V204C690 142.6263 647 106 544 106ZM166 410V594H536C644 594 671 549 671 509V507C671 460.4796 650 410 536 410Z" glyph-name="B.w02" horiz-adv-x="836" /><glyph d="M46 0H810V413H658L690 336V700H46ZM690 108H166V307H690ZM570 413H166V592H570Z" glyph-name="B.w03" horiz-adv-x="846" /><glyph d="M46 0H244C380.6786 0 422 60 422 173V242C422 308 394 345 329 362V364C386 383 407 419 407 486V539C407 645 357.4457 700 213 700H46ZM166 104V309H229C282 309 302 291 302 243V170C302 120 286 104 234 104ZM166 413V596H220C268 596 287 579 287 538V484C287 432 270 413 220 413Z" glyph-name="B.w04" horiz-adv-x="442" /><glyph d="M46 0H442V413H364L382 336V700H46ZM322 104H166V309H322ZM262 413H166V596H262Z" glyph-name="B.w05" horiz-adv-x="472" /><glyph d="M434 365C514.9637 386.9902 555 447.4575 555 517C555 609 495 700 323 700H46V0H339C509 0 574 96 574 194C574 287.4471 520.9871 349.0021 434 363ZM315 596C409 596 437 549 437 500C437 454 414 407 315 407H166V596ZM326 104H166V309H333C416 309 454 266.6923 454 209C454 152.1651 419 104 326 104Z" glyph-name="B.w06" horiz-adv-x="600" /><glyph d="M46 0H616V413H470L495 336V700H46ZM496 104H166V309H496ZM375 413H166V596H375Z" glyph-name="B.w07" horiz-adv-x="652" /><glyph d="M318 282V106H166V594H318V418H438V578L316 700H168L46 578V122L168 0H316L438 122V282Z" glyph-name="C" horiz-adv-x="480" unicode="C" /><glyph d="M794 262V108H166V592H794V438H914V578L792 700H168L46 578V122L168 0H792L914 122V262ZM457 700ZM457 0Z" glyph-name="C.alt01" horiz-adv-x="960" /><glyph d="M535 252V106H166V594H535V448H655V578L533 700H168L46 578V122L168 0H533L655 122V252Z" glyph-name="C.alt02" horiz-adv-x="701" /><glyph d="M502 81C296 81 161 189 161 350C161 516 290 619 498 619C669 619 772 555 798 443H930C892 634 725 725 503 725C224 725 36 573 36 349C36 122 214 -25 495 -25C763 -25 906 94 939 276H806C784 161 694 81 502 81Z" glyph-name="C.w02" horiz-adv-x="971" /><glyph d="M836 108H166V592H836V700H46V0H836Z" glyph-name="C.w03" horiz-adv-x="866" /><glyph d="M418 443V492C418 634 345 710 228 710C111 710 38 634 38 492V208C38 62 109 -10 228 -10C345 -10 418 63 418 208V276H298V202C298 133 280 94 228 94C176 94 158 133 158 202V497C158 566 176 606 228 606C280 606 298 567 298 497V443Z" glyph-name="C.w04" horiz-adv-x="448" /><glyph d="M346 104H166V596H346V700H46V0H346Z" glyph-name="C.w05" horiz-adv-x="370" /><glyph d="M370 87C236 87 164 198 164 352C164 509 240 613 372 613C472 613 522.054 560.4872 537 458H667C651.4047 632.6679 530 718 372 718C159 718 38 570 38 351C38 138 147 -18 370 -18C533 -18 650.2379 72.446 671 251H546C531.1069 141.4294 465 87 370 87Z" glyph-name="C.w06" horiz-adv-x="703" /><glyph d="M566 104H166V596H566V700H46V0H566Z" glyph-name="C.w07" horiz-adv-x="596" /><glyph d="M391 910 308 772H446L535 910ZM384 700ZM370 87C236 87 164 198 164 352C164 509 240 613 372 613C472 613 522.054 560.4872 537 458H667C651.4047 632.6679 530 718 372 718C159 718 38 570 38 351C38 138 147 -18 370 -18C533 -18 650.2379 72.446 671 251H546C531.1069 141.4294 465 87 370 87Z" glyph-name="Cacute" horiz-adv-x="709" unicode="&#262;" /><glyph d="M561 772 666 914H538L488 852H486L436 914H308L413 772ZM486 986ZM488 700ZM502 81C296 81 161 189 161 350C161 516 290 619 498 619C669 619 772 555 798 443H930C892 634 725 725 503 725C224 725 36 573 36 349C36 122 214 -25 495 -25C763 -25 906 94 939 276H806C784 161 694 81 502 81Z" glyph-name="Ccaron" horiz-adv-x="971" unicode="&#268;" /><glyph d="M318 282V106H166V594H318V418H438V578L316 700H168L46 578V122L168 0H316L438 122V282ZM363 -117 274 -29 285 -84V16H209V-104H276V-182H209V-258H274L363 -169ZM246 0Z" glyph-name="Ccedilla" horiz-adv-x="480" unicode="&#199;" /><glyph d="M406 914 301 772H429L479 834H481L531 772H659L554 914ZM481 700ZM794 262V108H166V592H794V438H914V578L792 700H168L46 578V122L168 0H792L914 122V262ZM457 700ZM457 0Z" glyph-name="Ccircumflex" horiz-adv-x="956" unicode="&#264;" /><glyph d="M324 762C369 762 402 794 402 838C402 881 367 913 324 913C280 913 248 880 248 838C248 794 282 762 324 762ZM324 700ZM566 104H166V596H566V700H46V0H566Z" glyph-name="Cdotaccent" horiz-adv-x="596" unicode="&#266;" /><glyph d="M513 106H166V594H513ZM633 578 511 700H46V0H511L633 122Z" glyph-name="D" horiz-adv-x="679" unicode="D" /><glyph d="M326 106H166V594H326ZM446 578 324 700H46V0H324L446 122Z" glyph-name="D.alt01" horiz-adv-x="492" /><glyph d="M755 108H166V592H755ZM875 578 753 700H46V0H753L875 122ZM431 700Z" glyph-name="D.alt02" horiz-adv-x="921" /><glyph d="M46 0H457C702 0 883 137 883 362C883 586 709 700 456 700H46ZM166 106V594H445C628 594 758 521.6213 758 361C758 194.3074 644 106 456 106Z" glyph-name="D.w02" horiz-adv-x="919" /><glyph d="M228 700H46V0H228C349 0 426 73 426 218V482C426 624 349 700 228 700ZM228 596C285 596 306 557 306 487V212C306 143 285 104 228 104H166V596Z" glyph-name="D.w04" horiz-adv-x="464" /><glyph d="M46 0H300C511 0 646 146 646 353C646 560 510 700 302 700H46ZM166 104V596H298C444 596 521 492 521 353C521 216 440 104 296 104Z" glyph-name="D.w06" horiz-adv-x="684" /><glyph d="M389 772 494 914H366L316 852H314L264 914H136L241 772ZM314 986ZM316 700ZM46 0H300C511 0 646 146 646 353C646 560 510 700 302 700H46ZM166 104V596H298C444 596 521 492 521 353C521 216 440 104 296 104Z" glyph-name="Dcaron" horiz-adv-x="684" unicode="&#270;" /><glyph d="M726 700H46V0H736V108H166V308H686V416H166V592H726ZM421 701ZM511 0ZM321 0Z" glyph-name="E" horiz-adv-x="756" unicode="E" /><glyph d="M354 700H46V0H364V106H166V318H314V424H166V594H354Z" glyph-name="E.alt01" horiz-adv-x="392" /><glyph d="M504 700H46V0H514V106H166V315H464V419H166V594H504Z" glyph-name="E.alt02" horiz-adv-x="542" /><glyph d="M291 911 208 773H346L435 911ZM284 701ZM504 700H46V0H514V106H166V315H464V419H166V594H504Z" glyph-name="Eacute" horiz-adv-x="542" unicode="&#201;" /><glyph d="M726 700H46V0H736V108H166V308H686V416H166V592H726ZM421 701ZM511 0ZM321 0ZM483 915V859H358V915H244V875L346 773H495L597 875V915ZM421 701Z" glyph-name="Ebreve" horiz-adv-x="768" unicode="&#276;" /><glyph d="M726 700H46V0H736V108H166V308H686V416H166V592H726ZM421 701ZM511 0ZM321 0ZM494 773 599 915H471L421 853H419L369 915H241L346 773ZM419 987ZM421 701Z" glyph-name="Ecaron" horiz-adv-x="768" unicode="&#282;" /><glyph d="M726 700H46V0H736V108H166V308H686V416H166V592H726ZM421 701ZM511 0ZM321 0ZM346 915 241 773H369L419 835H421L471 773H599L494 915ZM421 701Z" glyph-name="Ecircumflex" horiz-adv-x="768" unicode="&#202;" /><glyph d="M354 700H46V0H364V106H166V318H314V424H166V594H354ZM99 763C140 763 174 795 174 837C174 878 142 909 99 909C57 909 25 877 25 837C25 795 57 763 99 763ZM302 763C344 763 378 795 378 837C378 878 346 909 302 909C261 909 229 877 229 837C229 795 261 763 302 763ZM201 701Z" glyph-name="Edieresis" horiz-adv-x="384" unicode="&#203;" /><glyph d="M192 763C237 763 270 795 270 839C270 882 235 914 192 914C148 914 116 881 116 839C116 795 150 763 192 763ZM192 701ZM354 700H46V0H364V106H166V318H314V424H166V594H354Z" glyph-name="Edotaccent" horiz-adv-x="392" unicode="&#278;" /><glyph d="M190 911 273 773H135L46 911ZM197 701ZM200 701ZM354 700H46V0H364V106H166V318H314V424H166V594H354Z" glyph-name="Egrave" horiz-adv-x="392" unicode="&#200;" /><glyph d="M147 773H413V871H147ZM281 701ZM504 700H46V0H514V106H166V315H464V419H166V594H504Z" glyph-name="Emacron" horiz-adv-x="542" unicode="&#274;" /><glyph d="M164 0V539H168L722 0H840V700H722V161H718L164 700H46V0ZM474 701ZM342 0ZM410 -142V-250H722L844 -128V450H724V-142ZM627 451Z" glyph-name="Eng" horiz-adv-x="890" unicode="&#330;" /><glyph d="M504 700H46V0H514V106H166V315H464V419H166V594H504ZM427 0V-96L516 -185H589V-109H514V0ZM514 0Z" glyph-name="Eogonek" horiz-adv-x="544" unicode="&#280;" /><glyph d="M0 300H208V406H0ZM228 700H46V0H228C349 0 426 73 426 218V482C426 624 349 700 228 700ZM228 596C285 596 306 557 306 487V212C306 143 285 104 228 104H166V596Z" glyph-name="Eth" horiz-adv-x="460" unicode="&#208;" /><glyph d="M450 375V445H10V375ZM450 255V325H10V255ZM451 87C317 87 245 198 245 352C245 509 321 613 453 613C553 613 603.054 560.4872 618 458H748C732.4047 632.6679 611 718 453 718C240 718 119 570 119 351C119 138 228 -18 451 -18C614 -18 731.2379 72.446 752 251H627C612.1069 141.4294 546 87 451 87Z" glyph-name="Euro" horiz-adv-x="790" unicode="&#8364;" /><glyph d="M730 700H46V0H166V296H690V404H166V592H730ZM424 700ZM511 0ZM321 0Z" glyph-name="F" horiz-adv-x="750" unicode="F" /><glyph d="M354 700H46V0H166V308H314V414H166V594H354Z" glyph-name="F.alt01" horiz-adv-x="382" /><glyph d="M507 700H46V0H166V303H467V409H166V594H507Z" glyph-name="F.alt02" horiz-adv-x="535" /><glyph d="M444 356H240V250H324V106H166V594H324V487H444V578L322 700H168L46 578V122L168 0H322L444 122Z" glyph-name="G" horiz-adv-x="486" unicode="G" /><glyph d="M897 358H470V250H777V108H166V592H777V487H897V578L775 700H168L46 578V122L168 0H775L897 122ZM482 700ZM460 0Z" glyph-name="G.alt01" horiz-adv-x="939" /><glyph d="M660 356H335V250H540V106H166V594H540V487H660V578L538 700H168L46 578V122L168 0H538L660 122Z" glyph-name="G.alt02" horiz-adv-x="702" /><glyph d="M821 134V0H927V374H475V270H846L811 289V275C810 166 686 81 496 81C292 81 161 188 161 347V349C161 513 290 619 507 619C650 619 754 573 785 461H925C885 646 716 725 507 725C216 725 36 572 36 348V346C36 126 207 -25 476 -25C643 -25 763 34 825 125Z" glyph-name="G.w02" horiz-adv-x="973" /><glyph d="M907 402H285V294H787V108H166V592H877V700H46V0H907Z" glyph-name="G.w03" horiz-adv-x="953" /><glyph d="M315 165V0H417V377H214V273H324L297 301V197C297 134 280 96 227 96C175 96 158 133 158 203V498C158 566 180 606 232 606C281 606 297 574 297 525V473H417V523C417 642 355 710 234 710C111 710 38 638 38 497V205C38 64 83 -8 190 -8C267 -8 308 32 323 113Z" glyph-name="G.w04" horiz-adv-x="455" /><glyph d="M420 400H227V296H300V104H166V596H390V700H46V0H420Z" glyph-name="G.w05" horiz-adv-x="462" /><glyph d="M566 158V0H666V379H351V275H551V266C551 203 514 87 371 87C232 87 163 197 163 350C163 508 238 613 371 613C466 613 523 567 540 473H664C642 637 532 718 372 718C162 718 38 567 38 349C38 132 159 -18 356 -18C458 -18 532 33 569 110Z" glyph-name="G.w06" horiz-adv-x="712" /><glyph d="M618 400H305V296H498V104H166V596H588V700H46V0H618Z" glyph-name="G.w07" horiz-adv-x="660" /><glyph d="M393 914V858H268V914H154V874L256 772H405L507 874V914ZM331 700ZM618 400H305V296H498V104H166V596H588V700H46V0H618Z" glyph-name="Gbreve" horiz-adv-x="674" unicode="&#286;" /><glyph d="M440 914 335 772H463L513 834H515L565 772H693L588 914ZM515 700ZM821 134V0H927V374H475V270H846L811 289V275C810 166 686 81 496 81C292 81 161 188 161 347V349C161 513 290 619 507 619C650 619 754 573 785 461H925C885 646 716 725 507 725C216 725 36 572 36 348V346C36 126 207 -25 476 -25C643 -25 763 34 825 125Z" glyph-name="Gcircumflex" horiz-adv-x="973" unicode="&#284;" /><glyph d="M484 762C529 762 562 794 562 838C562 881 527 913 484 913C440 913 408 880 408 838C408 794 442 762 484 762ZM484 700ZM897 358H470V250H777V108H166V592H777V487H897V578L775 700H168L46 578V122L168 0H775L897 122ZM482 700ZM460 0Z" glyph-name="Gdotaccent" horiz-adv-x="939" unicode="&#288;" /><glyph d="M166 0V300H503V0H623V700H503V406H166V700H46V0Z" glyph-name="H" horiz-adv-x="669" unicode="H" /><glyph d="M166 0V300H315V0H435V700H315V406H166V700H46V0Z" glyph-name="H.alt01" horiz-adv-x="481" /><glyph d="M166 0V337L146 300H728V0H848V700H728V408H146L166 368V700H46V0ZM438 700ZM367 0Z" glyph-name="H.alt02" horiz-adv-x="894" /><glyph d="M0 504H894V602H0ZM166 0V337L146 300H728V0H848V700H728V408H146L166 368V700H46V0ZM438 700ZM367 0Z" glyph-name="Hbar" horiz-adv-x="894" unicode="&#294;" /><glyph d="M166 914 61 772H189L239 834H241L291 772H419L314 914ZM241 700ZM166 0V300H315V0H435V700H315V406H166V700H46V0Z" glyph-name="Hcircumflex" horiz-adv-x="481" unicode="&#292;" /><glyph d="M166 700H46V0H166ZM107 700ZM166 0Z" glyph-name="I" horiz-adv-x="212" unicode="I" /><glyph d="M166 700H46V0H166ZM107 700ZM166 0Z" glyph-name="I.alt01" horiz-adv-x="212" /><glyph d="M166 700H46V0H166ZM107 700ZM166 0Z" glyph-name="I.alt02" horiz-adv-x="212" /><glyph d="M166 700H46V0H166ZM107 700ZM166 0ZM114 910 31 772H169L258 910ZM107 700Z" glyph-name="Iacute" horiz-adv-x="212" unicode="&#205;" /><glyph d="M166 700H46V0H166ZM107 700ZM166 0ZM169 914V858H44V914H-70V874L32 772H181L283 874V914ZM107 700Z" glyph-name="Ibreve" horiz-adv-x="212" unicode="&#300;" /><glyph d="M166 700H46V0H166ZM107 700ZM166 0ZM180 772 285 914H157L107 852H105L55 914H-73L32 772ZM105 986ZM107 700Z" glyph-name="Icaron" horiz-adv-x="212" unicode="&#463;" /><glyph d="M166 700H46V0H166ZM107 700ZM166 0ZM32 914 -73 772H55L105 834H107L157 772H285L180 914ZM107 700Z" glyph-name="Icircumflex" horiz-adv-x="212" unicode="&#206;" /><glyph d="M166 700H46V0H166ZM107 700ZM166 0ZM5 762C46 762 80 794 80 836C80 877 48 908 5 908C-37 908 -69 876 -69 836C-69 794 -37 762 5 762ZM208 762C250 762 284 794 284 836C284 877 252 908 208 908C167 908 135 876 135 836C135 794 167 762 208 762ZM107 700Z" glyph-name="Idieresis" horiz-adv-x="212" unicode="&#207;" /><glyph d="M166 700H46V0H166ZM107 700ZM166 0ZM107 762C152 762 185 794 185 838C185 881 150 913 107 913C63 913 31 880 31 838C31 794 65 762 107 762ZM107 700Z" glyph-name="Idotaccent" horiz-adv-x="212" unicode="&#304;" /><glyph d="M166 700H46V0H166ZM107 700ZM166 0ZM97 910 180 772H42L-47 910ZM104 700ZM107 700Z" glyph-name="Igrave" horiz-adv-x="212" unicode="&#204;" /><glyph d="M166 700H46V0H166ZM107 700ZM166 0ZM-27 772H239V870H-27ZM107 700Z" glyph-name="Imacron" horiz-adv-x="212" unicode="&#298;" /><glyph d="M166 700H46V0H166ZM107 700ZM166 0ZM100 910H-18L-76 852V772H19V815H73L116 772H234L292 830V910H197V867H143ZM107 700Z" glyph-name="Itilde" horiz-adv-x="212" unicode="&#296;" /><glyph d="M18 108V0H330L452 122V700H332V108ZM235 701Z" glyph-name="J" horiz-adv-x="498" unicode="J" /><glyph d="M18 106V0H158L280 122V700H160V106Z" glyph-name="J.alt01" horiz-adv-x="326" /><glyph d="M18 106V0H218L340 122V700H220V106Z" glyph-name="J.alt02" horiz-adv-x="386" /><glyph d="M432 271V700H312V280C312 129 230 97 134 97C96 97 55 102 16 107V2C62 -5 107 -9 148 -9C314 -9 432 57 432 271Z" glyph-name="J.w02" horiz-adv-x="496" /><glyph d="M20 108V0H534V700H414V108Z" glyph-name="J.w03" horiz-adv-x="580" /><glyph d="M276 169V700H156V175C156 85 59 91 14 112V11C118 -30 276 2 276 169Z" glyph-name="J.w04" horiz-adv-x="322" /><glyph d="M18 104V0H158H280V700H160V104Z" glyph-name="J.w05" horiz-adv-x="326" /><glyph d="M330 202V700H210V221C210 129 160 104 94 104C73 104 42 107 18 112V0C41 -6 77 -10 111 -10C234 -10 330 45 330 202Z" glyph-name="J.w06" horiz-adv-x="376" /><glyph d="M18 104V0H340V700H220V104Z" glyph-name="J.w07" horiz-adv-x="386" /><glyph d="M18 108V0H330L452 122V700H332V108ZM235 701ZM160 915 55 773H183L233 835H235L285 773H413L308 915ZM235 701Z" glyph-name="Jcircumflex" horiz-adv-x="498" unicode="&#308;" /><glyph d="M166 700H46V0H166ZM837 700H649L154 366L330 361ZM855 0 326 389 165 366 659 0ZM393 700ZM304 0Z" glyph-name="K" horiz-adv-x="850" unicode="K" /><glyph d="M166 700H46V0H166ZM162 362 319 0H450L285 375V376L442 700H318L161 371Z" glyph-name="K.alt01" horiz-adv-x="445" /><glyph d="M166 700H46V0H166ZM613 700H464L148 361H289ZM631 0 298 379H148L475 0Z" glyph-name="K.alt02" horiz-adv-x="626" /><glyph d="M166 700H46V0H701V108H166ZM105 700ZM252 0Z" glyph-name="L" horiz-adv-x="721" unicode="L" /><glyph d="M166 700H46V0H348V106H166Z" glyph-name="L.alt01" horiz-adv-x="368" /><glyph d="M166 700H46V0H485V106H166Z" glyph-name="L.alt02" horiz-adv-x="511" /><glyph d="M166 700H46V0H701V108H166ZM105 700ZM252 0ZM112 910 29 772H167L256 910ZM105 700Z" glyph-name="Lacute" horiz-adv-x="721" unicode="&#313;" /><glyph d="M166 700H46V0H348V106H166ZM287.7935 546.6649C336.5532 546.6649 372.3104 581.3385 372.3104 629.0147C372.3104 675.6073 334.3861 710.2809 287.7935 710.2809C240.1173 710.2809 205.4437 674.5238 205.4437 629.0147C205.4437 581.3385 242.2844 546.6649 287.7935 546.6649ZM287.7935 479.4848Z" glyph-name="Ldot" horiz-adv-x="368" unicode="&#319;" /><glyph d="M48 220 422 370 387 455 14 305ZM230 700H110V0H765V108H230ZM169 700ZM316 0Z" glyph-name="Lslash" horiz-adv-x="785" unicode="&#321;" /><glyph d="M167 700H46V0H160V457H165L405 0H412L647 457H652V0H768V700H643L414 230H410Z" glyph-name="M" horiz-adv-x="814" unicode="M" /><glyph d="M194 700H46V0H158V425H163L275 0H290L408 423H413V0H529V700H388L288 294H292ZM281 285H306V309H281Z" glyph-name="M.alt01" horiz-adv-x="575" /><glyph d="M172 700H46V0H162V511H167L524 0H530L886 511H891V0H1011V700H892L534 183H530ZM531 700ZM402 0Z" glyph-name="M.alt02" horiz-adv-x="1057" /><glyph d="M164 0V539H168L722 0H840V700H722V161H718L164 700H46V0ZM474 701ZM342 0Z" glyph-name="N" horiz-adv-x="886" unicode="N" /><glyph d="M152 0V443H156L326 0H440V700H334V271H330L166 700H46V0Z" glyph-name="N.alt01" horiz-adv-x="486" /><glyph d="M158 0V503H162L503 0H619V700H507V197H503L162 700H46V0Z" glyph-name="N.alt02" horiz-adv-x="665" /><glyph d="M164 0V539H168L722 0H840V700H722V161H718L164 700H46V0ZM474 701ZM342 0ZM483 911 400 773H538L627 911ZM476 701Z" glyph-name="Nacute" horiz-adv-x="890" unicode="&#323;" /><glyph d="M164 0V539H168L722 0H840V700H722V161H718L164 700H46V0ZM474 701ZM342 0ZM549 773 654 915H526L476 853H474L424 915H296L401 773ZM474 987ZM476 701Z" glyph-name="Ncaron" horiz-adv-x="890" unicode="&#327;" /><glyph d="M164 0V539H168L722 0H840V700H722V161H718L164 700H46V0ZM474 701ZM342 0ZM469 911H351L293 853V773H388V816H442L485 773H603L661 831V911H566V868H512ZM476 701Z" glyph-name="Ntilde" horiz-adv-x="890" unicode="&#209;" /><glyph d="M815 108H166V592H815ZM935 578 813 700H168L46 578V122L168 0H813L935 122ZM493 700ZM474 0Z" glyph-name="O" horiz-adv-x="981" unicode="O" /><glyph d="M328 106H166V594H328ZM448 578 326 700H168L46 578V122L168 0H326L448 122Z" glyph-name="O.alt01" horiz-adv-x="494" /><glyph d="M565 106H166V594H565ZM685 578 563 700H168L46 578V122L168 0H563L685 122Z" glyph-name="O.alt02" horiz-adv-x="731" /><glyph d="M505 -25C785 -25 974 126 974 349V351C974 574 785 725 505 725C225 725 36 574 36 351V349C36 126 225 -25 505 -25ZM505 81C300 81 161 190 161 349V351C161 510 300 619 505 619C710 619 849 510 849 351V349C849 190 710 81 505 81Z" glyph-name="O.w02" horiz-adv-x="1010" /><glyph d="M815 108H166V592H815ZM935 700H46V0H935Z" glyph-name="O.w03" horiz-adv-x="981" /><glyph d="M234 -10C354 -10 430 63 430 208V492C430 634 354 710 234 710C114 710 38 634 38 492V208C38 62 111 -10 234 -10ZM234 94C177 94 158 133 158 202V497C158 566 177 606 234 606C290 606 310 567 310 497V202C310 133 290 94 234 94Z" glyph-name="O.w04" horiz-adv-x="468" /><glyph d="M315 104H166V596H315ZM435 700H46V0H435Z" glyph-name="O.w05" horiz-adv-x="481" /><glyph d="M372 -18C576 -18 707 123 707 349C707 578 576 718 372 718C169 718 38 578 38 349C38 125 169 -18 372 -18ZM372 87C241 87 163 189 163 349C163 514 241 613 372 613C505 613 582 514 582 349C582 186 505 87 372 87Z" glyph-name="O.w06" horiz-adv-x="745" /><glyph d="M555 104H166V596H555ZM675 700H46V0H675Z" glyph-name="O.w07" horiz-adv-x="721" /><glyph d="M380 -18C566 -18 685 123 685 349C685 578 566 718 380 718C177 718 46 578 46 349C46 125 177 -18 380 -18ZM380 87C249 87 171 189 171 349C171 514 249 613 380 613C513 613 590 514 590 349C590 186 513 87 380 87ZM1270 700H590V0H1280V108H710V308H1230V416H710V592H1270ZM965 701ZM1055 0ZM865 0ZM598 700Z" glyph-name="OE" horiz-adv-x="1312" unicode="&#338;" /><glyph d="M259 910 176 772H314L403 910ZM252 700ZM315 104H166V596H315ZM435 700H46V0H435Z" glyph-name="Oacute" horiz-adv-x="481" unicode="&#211;" /><glyph d="M428 914V858H303V914H189V874L291 772H440L542 874V914ZM366 700ZM555 104H166V596H555ZM675 700H46V0H675Z" glyph-name="Obreve" horiz-adv-x="731" unicode="&#334;" /><glyph d="M324 772 429 914H301L251 852H249L199 914H71L176 772ZM249 986ZM251 700ZM328 106H166V594H328ZM448 578 326 700H168L46 578V122L168 0H326L448 122Z" glyph-name="Ocaron" horiz-adv-x="500" unicode="&#465;" /><glyph d="M431 914 326 772H454L504 834H506L556 772H684L579 914ZM506 700ZM505 -25C785 -25 974 126 974 349V351C974 574 785 725 505 725C225 725 36 574 36 351V349C36 126 225 -25 505 -25ZM505 81C300 81 161 190 161 349V351C161 510 300 619 505 619C710 619 849 510 849 351V349C849 190 710 81 505 81Z" glyph-name="Ocircumflex" horiz-adv-x="1010" unicode="&#212;" /><glyph d="M815 108H166V592H815ZM935 578 813 700H168L46 578V122L168 0H813L935 122ZM493 700ZM474 0ZM391 762C432 762 466 794 466 836C466 877 434 908 391 908C349 908 317 876 317 836C317 794 349 762 391 762ZM594 762C636 762 670 794 670 836C670 877 638 908 594 908C553 908 521 876 521 836C521 794 553 762 594 762ZM493 700Z" glyph-name="Odieresis" horiz-adv-x="981" unicode="&#214;" /><glyph d="M369 910 452 772H314L225 910ZM376 700ZM379 700ZM372 -18C576 -18 707 123 707 349C707 578 576 718 372 718C169 718 38 578 38 349C38 125 169 -18 372 -18ZM372 87C241 87 163 189 163 349C163 514 241 613 372 613C505 613 582 514 582 349C582 186 505 87 372 87Z" glyph-name="Ograve" horiz-adv-x="745" unicode="&#210;" /><glyph d="M815 108H166V592H815ZM935 578 813 700H168L46 578V122L168 0H813L935 122ZM493 700ZM474 0ZM390 910 325 772H459L531 910ZM581 910 512 772H644L719 910ZM493 700Z" glyph-name="Ohungarumlaut" horiz-adv-x="981" unicode="&#336;" /><glyph d="M97 772H363V870H97ZM231 700ZM234 -10C354 -10 430 63 430 208V492C430 634 354 710 234 710C114 710 38 634 38 492V208C38 62 111 -10 234 -10ZM234 94C177 94 158 133 158 202V497C158 566 177 606 234 606C290 606 310 567 310 497V202C310 133 290 94 234 94Z" glyph-name="Omacron" horiz-adv-x="460" unicode="&#332;" /><glyph d="M38 80V-28L707 620V728ZM372 -18C576 -18 707 123 707 349C707 578 576 718 372 718C169 718 38 578 38 349C38 125 169 -18 372 -18ZM372 87C241 87 163 189 163 349C163 514 241 613 372 613C505 613 582 514 582 349C582 186 505 87 372 87ZM372 700Z" glyph-name="Oslash" horiz-adv-x="745" unicode="&#216;" /><glyph d="M38 20V-88L707 680V788ZM379 910 296 772H434L523 910ZM372 700ZM572 106H173V594H572ZM692 578 570 700H175L53 578V122L175 0H570L692 122Z" glyph-name="Oslashacute" horiz-adv-x="745" unicode="&#510;" /><glyph d="M357 910H239L181 852V772H276V815H330L373 772H491L549 830V910H454V867H400ZM364 700ZM565 106H166V594H565ZM685 578 563 700H168L46 578V122L168 0H563L685 122Z" glyph-name="Otilde" horiz-adv-x="731" unicode="&#213;" /><glyph d="M657 382H166V592H657ZM655 274 777 396V578L655 700H46V0H166V274ZM283 750Z" glyph-name="P" horiz-adv-x="807" unicode="P" /><glyph d="M298 400H166V594H298ZM296 294 418 416V578L296 700H46V0H166V294Z" glyph-name="P.alt01" horiz-adv-x="456" /><glyph d="M458 400H166V594H458ZM456 294 578 416V578L456 700H46V0H166V294Z" glyph-name="P.alt02" horiz-adv-x="608" /><glyph d="M46 0H166V272H522C724 272 782 385 782 485V487C782 587 724 700 522 700H46ZM166 378V594H504C622 594 657 538 657 487V485C657 434 622 378 504 378Z" glyph-name="P.w02" horiz-adv-x="810" /><glyph d="M657 378H166V592H657ZM777 270V700H46V0H166V270Z" glyph-name="P.w03" horiz-adv-x="823" /><glyph d="M46 0H166V296H216C354.043 296 412 362 412 473V529C412 648 351.9681 700 214 700H46ZM166 400V596H221C270 596 292 577 292 525V474C292 425 269 400 221 400Z" glyph-name="P.w04" horiz-adv-x="428" /><glyph d="M298 400H166V596H298ZM418 296V700H46V0H166V296Z" glyph-name="P.w05" horiz-adv-x="464" /><glyph d="M329 700H46V0H166V281H328C479 281 574 363 574 492C574 619 478 700 329 700ZM315 385H166V596H315C397 596 449 555 449 490C449 424 397 385 315 385Z" glyph-name="P.w06" horiz-adv-x="600" /><glyph d="M458 404H166V596H458ZM578 300V700H46V0H166V300Z" glyph-name="P.w07" horiz-adv-x="624" /><glyph d="M392 256 311 175 650 -164 731 -83ZM815 108H166V592H815ZM935 578 813 700H168L46 578V122L168 0H813L935 122ZM493 700ZM474 0Z" glyph-name="Q" horiz-adv-x="981" unicode="Q" /><glyph d="M315 96 234 15 423 -174 504 -93ZM328 106H166V594H328ZM448 578 326 700H168L46 578V122L168 0H326L448 122Z" glyph-name="Q.alt01" horiz-adv-x="500" /><glyph d="M424 246 343 165 682 -174 763 -93ZM565 106H166V594H565ZM685 578 563 700H168L46 578V122L168 0H563L685 122Z" glyph-name="Q.alt02" horiz-adv-x="731" /><glyph d="M586 254 510 178 850 -162 926 -86ZM505 -25C785 -25 974 126 974 349V351C974 574 785 725 505 725C225 725 36 574 36 351V349C36 126 225 -25 505 -25ZM505 81C300 81 161 190 161 349V351C161 510 300 619 505 619C710 619 849 510 849 351V349C849 190 710 81 505 81Z" glyph-name="Q.w02" horiz-adv-x="1010" /><glyph d="M815 108H166V592H815ZM935 700H46V0H935ZM386 254 310 178 650 -162 726 -86Z" glyph-name="Q.w03" horiz-adv-x="981" /><glyph d="M334 103 257 26 404 -121 481 -44ZM234 -10C354 -10 430 63 430 208V492C430 634 354 710 234 710C114 710 38 634 38 492V208C38 62 111 -10 234 -10ZM234 94C177 94 158 133 158 202V497C158 566 177 606 234 606C290 606 310 567 310 497V202C310 133 290 94 234 94Z" glyph-name="Q.w04" horiz-adv-x="466" /><glyph d="M315 104H166V596H315ZM435 700H46V0H435ZM248 94 173 18 362 -171 438 -96Z" glyph-name="Q.w05" horiz-adv-x="481" /><glyph d="M413 265 332 184 629 -113 710 -32ZM372 -18C576 -18 707 123 707 349C707 578 576 718 372 718C169 718 38 578 38 349C38 125 169 -18 372 -18ZM372 87C241 87 163 189 163 349C163 514 241 613 372 613C505 613 582 514 582 349C582 186 505 87 372 87Z" glyph-name="Q.w06" horiz-adv-x="745" /><glyph d="M565 104H166V596H565ZM685 700H46V0H685ZM307 255 230 178 570 -162 647 -85Z" glyph-name="Q.w07" horiz-adv-x="731" /><glyph d="M298 400H166V594H298ZM296 294 418 416V578L296 700H46V0H166V294ZM196 342 334 0H460L312 359Z" glyph-name="R" horiz-adv-x="454" unicode="R" /><glyph d="M657 382H166V592H657ZM655 274 777 396V578L655 700H46V0H166V274ZM501 312 684 0H823L628 329ZM366 701ZM354 0Z" glyph-name="R.alt01" horiz-adv-x="813" /><glyph d="M458 390H166V594H458ZM456 284 578 406V578L456 700H46V0H166V284ZM330 327 493 0H622L451 344Z" glyph-name="R.alt02" horiz-adv-x="614" /><glyph d="M415 312 674 0H826L551 329ZM46 0H166V276H517C719 276 777 388 777 487V489C777 588 719 700 517 700H46ZM166 380V596H499C617 596 652 540 652 489V487C652 436 617 380 499 380Z" glyph-name="R.w02" horiz-adv-x="811" /><glyph d="M657 378H166V592H657ZM777 270V700H46V0H166V270ZM511 312 699 0H831L636 329Z" glyph-name="R.w03" horiz-adv-x="831" /><glyph d="M184 342 322 0H448L300 359ZM46 0H166V296H217C355.043 296 413 362 413 473V529C413 648 352.9681 700 215 700H46ZM166 400V596H222C271 596 293 577 293 525V474C293 425 270 400 222 400Z" glyph-name="R.w04" horiz-adv-x="438" /><glyph d="M298 400H166V596H298ZM418 296V700H46V0H166V296ZM193 342 331 0H457L309 359Z" glyph-name="R.w05" horiz-adv-x="457" /><glyph d="M323 700H46V0H166V281H322C473 281 568 363.0556 568 492C568 618.9484 472 700 323 700ZM309 385H166V596H309C391 596 443 555 443 490C443 424 391 385 309 385ZM277 327 475 0H614L403 344Z" glyph-name="R.w06" horiz-adv-x="604" /><glyph d="M458 390H166V596H458ZM578 286V700H46V0H166V286ZM332 327 495 0H624L453 344Z" glyph-name="R.w07" horiz-adv-x="624" /><glyph d="M220 911 137 773H275L364 911ZM213 701ZM184 342 322 0H448L300 359ZM46 0H166V296H217C355.043 296 413 362 413 473V529C413 648 352.9681 700 215 700H46ZM166 400V596H222C271 596 293 577 293 525V474C293 425 270 400 222 400Z" glyph-name="Racute" horiz-adv-x="444" unicode="&#340;" /><glyph d="M378 773 483 915H355L305 853H303L253 915H125L230 773ZM303 987ZM305 701ZM458 390H166V596H458ZM578 286V700H46V0H166V286ZM332 327 495 0H624L453 344Z" glyph-name="Rcaron" horiz-adv-x="624" unicode="&#344;" /><glyph d="M454 270V106H148V223H28V122L150 0H452L574 122V259L452 381L158 446V594H449V487H569V578L447 700H160L38 578V457L160 335Z" glyph-name="S" horiz-adv-x="604" unicode="S" /><glyph d="M291 298V106H150V233H30V122L152 0H289L411 122V284L289 406H160V594H286V477H406V578L284 700H162L40 578V420L162 298Z" glyph-name="S.alt01" horiz-adv-x="441" /><glyph d="M687 263V108H150V213H30V122L152 0H685L807 122V254L685 376L160 449V592H682V497H802V578L680 700H162L40 578V458L162 336ZM414 700ZM423 0Z" glyph-name="S.alt02" horiz-adv-x="837" /><glyph d="M22 247C54 60 175 -25 457 -25C710 -25 825 60 825 204V206C825 351 713 399 450 411C232 423 183 444 183 508V510C183 580 248 620 409 620C570 620 670 583 688 482H822C792 647 657 725 411 725C176 725 58 639 58 507V505C58 360 171 317 393 302C628 290 700 278 700 197V195C700 120 629 81 460 81C278 81 182 122 158 247Z" glyph-name="S.w02" horiz-adv-x="855" /><glyph d="M693 299V106H46V0H813V405H176V594H808V700H56V299Z" glyph-name="S.w03" horiz-adv-x="859" /><glyph d="M24 233V179C24 57 71 -8 209 -8C328 -8 388 60 388 174V210C388 323 321 373 258 406C202 435 152 459 152 516V533C152 576 167 604 206 604C246 604 261 583 261 536V477H379V540C379 645 326 708 207 708C88 708 32 641 32 530V519C32 409 95 358 160 325C220 295 268 264 268 207V165C268 125 253 96 208 96C159 96 144 123 144 169V233Z" glyph-name="S.w04" horiz-adv-x="412" /><glyph d="M241 300V104H34V0H361V404H164V596H356V700H44V300Z" glyph-name="S.w05" horiz-adv-x="395" /><glyph d="M22 246C34 64 131 -18 311 -18C489 -18 579 77 579 197C579 323 501 376 384 401L281 423C200 440 167 469 167 526C167 586 221 621 300 621C391 621 449 576 452 481H573C561 642 464 718 306 718C146 718 46 638 46 516C46 397 120 338 232 315L331 294C412 277 455 254 455 185C455 112 387 84 311 84C210 84 146 134 143 246Z" glyph-name="S.w06" horiz-adv-x="609" /><glyph d="M414 300V104H40V0H534V404H170V596H529V700H50V300Z" glyph-name="S.w07" horiz-adv-x="574" /><glyph d="M462 910 379 772H517L606 910ZM455 700ZM22 247C54 60 175 -25 457 -25C710 -25 825 60 825 204V206C825 351 713 399 450 411C232 423 183 444 183 508V510C183 580 248 620 409 620C570 620 670 583 688 482H822C792 647 657 725 411 725C176 725 58 639 58 507V505C58 360 171 317 393 302C628 290 700 278 700 197V195C700 120 629 81 460 81C278 81 182 122 158 247Z" glyph-name="Sacute" horiz-adv-x="871" unicode="&#346;" /><glyph d="M295 772 400 914H272L222 852H220L170 914H42L147 772ZM220 986ZM222 700ZM241 300V104H34V0H361V404H164V596H356V700H44V300Z" glyph-name="Scaron" horiz-adv-x="417" unicode="&#352;" /><glyph d="M454 270V106H148V223H28V122L150 0H452L574 122V259L452 381L158 446V594H449V487H569V578L447 700H160L38 578V457L160 335ZM412 -117 323 -29 334 -84V16H258V-104H325V-182H258V-258H323L412 -169ZM295 0Z" glyph-name="Scedilla" horiz-adv-x="604" unicode="&#350;" /><glyph d="M352 914 247 772H375L425 834H427L477 772H605L500 914ZM427 700ZM687 263V108H150V213H30V122L152 0H685L807 122V254L685 376L160 449V592H682V497H802V578L680 700H162L40 578V458L162 336ZM414 700ZM423 0Z" glyph-name="Scircumflex" horiz-adv-x="837" unicode="&#348;" /><glyph d="M347 0H467V592H796V700H18V592H347ZM405 700ZM407 0Z" glyph-name="T" horiz-adv-x="814" unicode="T" /><glyph d="M138 0H258V594H379V700H17V594H138Z" glyph-name="T.alt01" horiz-adv-x="396" /><glyph d="M241 0H361V594H583V700H18V594H241Z" glyph-name="T.alt02" horiz-adv-x="601" /><glyph d="M96 404V300H506V404ZM241 0H361V594H583V700H18V594H241Z" glyph-name="Tbar" horiz-adv-x="601" unicode="&#358;" /><glyph d="M347 0H467V592H796V700H18V592H347ZM405 700ZM407 0ZM478 772 583 914H455L405 852H403L353 914H225L330 772ZM403 986ZM405 700Z" glyph-name="Tcaron" horiz-adv-x="814" unicode="&#356;" /><glyph d="M316 -117 227 -29 238 -84V16H162V-104H229V-182H162V-258H227L316 -169ZM199 0ZM138 0H258V594H379V700H17V594H138Z" glyph-name="Tcedilla" horiz-adv-x="396" unicode="&#354;" /><glyph d="M458 250H166V446H458ZM456 146 578 268V428L456 550H46V0H166V146ZM46 323H166V700H46Z" glyph-name="Thorn" horiz-adv-x="608" unicode="&#222;" /><glyph d="M166 700H46V122L168 0H318L440 122V700H320V106H166Z" glyph-name="U" horiz-adv-x="486" unicode="U" /><glyph d="M166 700H46V122L168 0H732L854 122V700H734V108H166ZM436 700ZM438 0ZM437 0Z" glyph-name="U.alt01" horiz-adv-x="900" /><glyph d="M166 700H46V122L168 0H495L617 122V700H497V106H166Z" glyph-name="U.alt02" horiz-adv-x="663" /><glyph d="M46 700V325C46 122 191 -25 450 -25C709 -25 854 122 854 325V700H734V332C734 193.1067 629 81 450 81C270 81 166 193.1067 166 332V700Z" glyph-name="U.w02" horiz-adv-x="900" /><glyph d="M166 700H46V0H854V700H734V106H166Z" glyph-name="U.w03" horiz-adv-x="900" /><glyph d="M44 700V207C44 56 114.2755 -10 238 -10C355.7732 -10 430 56 430 207V700H310V208C310 123 291.5135 94 238 94C184.4474 94 164 124 164 208V700Z" glyph-name="U.w04" horiz-adv-x="474" /><glyph d="M166 700H46V0H435V700H315V104H166Z" glyph-name="U.w05" horiz-adv-x="471" /><glyph d="M46 700V256C46 86 146.2474 -18 332 -18C515 -18 617 86 617 256V700H497V260C497 155 440 86 332 86C224.2456 86 166 155 166 260V700Z" glyph-name="U.w06" horiz-adv-x="663" /><glyph d="M166 700H46V0H647V700H527V104H166Z" glyph-name="U.w07" horiz-adv-x="693" /><glyph d="M338 910 255 772H393L482 910ZM331 700ZM166 700H46V122L168 0H495L617 122V700H497V106H166Z" glyph-name="Uacute" horiz-adv-x="663" unicode="&#218;" /><glyph d="M513 914V858H388V914H274V874L376 772H525L627 874V914ZM451 700ZM166 700H46V0H854V700H734V106H166Z" glyph-name="Ubreve" horiz-adv-x="900" unicode="&#364;" /><glyph d="M420 772 525 914H397L347 852H345L295 914H167L272 772ZM345 986ZM347 700ZM166 700H46V0H647V700H527V104H166Z" glyph-name="Ucaron" horiz-adv-x="693" unicode="&#467;" /><glyph d="M173 914 68 772H196L246 834H248L298 772H426L321 914ZM248 700ZM166 700H46V0H435V700H315V104H166Z" glyph-name="Ucircumflex" horiz-adv-x="471" unicode="&#219;" /><glyph d="M166 700H46V122L168 0H318L440 122V700H320V106H166ZM141 760C182 760 216 792 216 834C216 875 184 906 141 906C99 906 67 874 67 834C67 792 99 760 141 760ZM344 760C386 760 420 792 420 834C420 875 388 906 344 906C303 906 271 874 271 834C271 792 303 760 344 760ZM243 698Z" glyph-name="Udieresis" horiz-adv-x="486" unicode="&#220;" /><glyph d="M457 910 540 772H402L313 910ZM464 700ZM467 700ZM46 700V325C46 122 191 -25 450 -25C709 -25 854 122 854 325V700H734V332C734 193.1067 629 81 450 81C270 81 166 193.1067 166 332V700Z" glyph-name="Ugrave" horiz-adv-x="900" unicode="&#217;" /><glyph d="M330 910 265 772H399L471 910ZM521 910 452 772H584L659 910ZM433 700ZM166 700H46V122L168 0H732L854 122V700H734V108H166ZM436 700ZM438 0ZM437 0Z" glyph-name="Uhungarumlaut" horiz-adv-x="900" unicode="&#368;" /><glyph d="M103 772H369V870H103ZM237 700ZM44 700V207C44 56 114.2755 -10 238 -10C355.7732 -10 430 56 430 207V700H310V208C310 123 291.5135 94 238 94C184.4474 94 164 124 164 208V700Z" glyph-name="Umacron" horiz-adv-x="482" unicode="&#362;" /><glyph d="M166 700H46V122L168 0H318L440 122V700H320V106H166ZM205 0V-96L294 -185H367V-109H292V0ZM292 0Z" glyph-name="Uogonek" horiz-adv-x="486" unicode="&#370;" /><glyph d="M222 876C222 817 267 772 331 772C397 772 441 817 441 878C441 937 398 983 330 983C268 983 222 937 222 876ZM287 878C287 904 305 923 331 923C359 923 376 904 376 878C376 851 358 831 332 831C305 831 287 851 287 878ZM331 700ZM46 700V256C46 86 146.2474 -18 332 -18C515 -18 617 86 617 256V700H497V260C497 155 440 86 332 86C224.2456 86 166 155 166 260V700Z" glyph-name="Uring" horiz-adv-x="663" unicode="&#366;" /><glyph d="M323 910H205L147 852V772H242V815H296L339 772H457L515 830V910H420V867H366ZM330 700ZM46 700V256C46 86 146.2474 -18 332 -18C515 -18 617 86 617 256V700H497V260C497 155 440 86 332 86C224.2456 86 166 155 166 260V700Z" glyph-name="Utilde" horiz-adv-x="663" unicode="&#360;" /><glyph d="M394 0H518L917 700H788L462 120H458L130 700H-5Z" glyph-name="V" horiz-adv-x="912" unicode="V" /><glyph d="M120 0H282L409 700H295L209 154H205L117 700H-5Z" glyph-name="V.alt01" horiz-adv-x="404" /><glyph d="M263 0H397L665 700H545L337 134H333L126 700H-5Z" glyph-name="V.alt02" horiz-adv-x="660" /><glyph d="M126 700H-2L250 0H368ZM558 700 285 0H400L672 700ZM689 700H567L848 0H970ZM1129 700 887 0H998L1250 700ZM322 112H335V117H322ZM613 563H626V568H613ZM919 111H932V116H919ZM619 700ZM620 0Z" glyph-name="W" horiz-adv-x="1248" unicode="W" /><glyph d="M97 0H223L301 435H303L377 0H499L599 700H485L428 235H426L351 700H253L180 234H178L120 700H-2Z" glyph-name="W.alt01" horiz-adv-x="597" /><glyph d="M122 700H-2L167 0H282ZM377 700 210 0H316L481 700ZM514 700H407L572 0H682ZM770 700 611 0H721L890 700Z" glyph-name="W.alt02" horiz-adv-x="888" /><glyph d="M465 910 382 772H520L609 910ZM458 700ZM122 700H-2L167 0H282ZM377 700 210 0H316L481 700ZM514 700H407L572 0H682ZM770 700 611 0H721L890 700Z" glyph-name="Wacute" horiz-adv-x="888" unicode="&#7810;" /><glyph d="M224.5 914 119.5 772H247.5L297.5 834H299.5L349.5 772H477.5L372.5 914ZM299.5 700ZM97 0H223L301 435H303L377 0H499L599 700H485L428 235H426L351 700H253L180 234H178L120 700H-2Z" glyph-name="Wcircumflex" horiz-adv-x="597" unicode="&#372;" /><glyph d="M126 700H-2L250 0H368ZM558 700 285 0H400L672 700ZM689 700H567L848 0H970ZM1129 700 887 0H998L1250 700ZM322 112H335V117H322ZM613 563H626V568H613ZM919 111H932V116H919ZM619 700ZM620 0ZM517 762C558 762 592 794 592 836C592 877 560 908 517 908C475 908 443 876 443 836C443 794 475 762 517 762ZM720 762C762 762 796 794 796 836C796 877 764 908 720 908C679 908 647 876 647 836C647 794 679 762 720 762ZM619 700Z" glyph-name="Wdieresis" horiz-adv-x="1248" unicode="&#7812;" /><glyph d="M126 700H-2L250 0H368ZM558 700 285 0H400L672 700ZM689 700H567L848 0H970ZM1129 700 887 0H998L1250 700ZM322 112H335V117H322ZM613 563H626V568H613ZM919 111H932V116H919ZM619 700ZM620 0ZM609 910 692 772H554L465 910ZM616 700ZM619 700Z" glyph-name="Wgrave" horiz-adv-x="1248" unicode="&#7808;" /><glyph d="M723 700 443 414 395 389 0 0H158L454 301L494 319L881 700ZM187 700H18L405 319L433 301L730 0H899L504 389L468 414Z" glyph-name="X" horiz-adv-x="899" unicode="X" /><glyph d="M141 700H11L156 303L204 309L302 0H432L286 399L230 419ZM299 700 210 419 147 396 2 0H126L225 312L277 300L423 700Z" glyph-name="X.alt01" horiz-adv-x="434" /><glyph d="M157 700H19L280 309L302 316L506 0H644L382 393L346 408ZM487 700 298 402 266 399 0 0H138L342 322L360 303L625 700Z" glyph-name="X.alt02" horiz-adv-x="644" /><glyph d="M428 353 149 700H-5L367 244V0H487V244L865 700H714L430 353ZM428 700ZM426 0Z" glyph-name="Y" horiz-adv-x="860" unicode="Y" /><glyph d="M221 433 132 700H6L156 291V0H276V290L420 700H310L223 433Z" glyph-name="Y.alt01" horiz-adv-x="426" /><glyph d="M302 384 132 700H-2L243 261V0H363V261L607 700H473L304 384Z" glyph-name="Y.alt02" horiz-adv-x="605" /><glyph d="M318 910 235 772H373L462 910ZM311 700ZM302 384 132 700H-2L243 261V0H363V261L607 700H473L304 384Z" glyph-name="Yacute" horiz-adv-x="605" unicode="&#221;" /><glyph d="M428 353 149 700H-5L367 244V0H487V244L865 700H714L430 353ZM428 700ZM426 0ZM353 914 248 772H376L426 834H428L478 772H606L501 914ZM428 700Z" glyph-name="Ycircumflex" horiz-adv-x="860" unicode="&#374;" /><glyph d="M428 353 149 700H-5L367 244V0H487V244L865 700H714L430 353ZM428 700ZM426 0ZM326 762C367 762 401 794 401 836C401 877 369 908 326 908C284 908 252 876 252 836C252 794 284 762 326 762ZM529 762C571 762 605 794 605 836C605 877 573 908 529 908C488 908 456 876 456 836C456 794 488 762 529 762ZM428 700Z" glyph-name="Ydieresis" horiz-adv-x="860" unicode="&#376;" /><glyph d="M214 910 297 772H159L70 910ZM221 700ZM224 700ZM221 433 132 700H6L156 291V0H276V290L420 700H310L223 433Z" glyph-name="Ygrave" horiz-adv-x="426" unicode="&#7922;" /><glyph d="M22 0H793V108H144L101 104H22ZM45 592H680L711 596H770V700H45ZM81 10 770 596 703 687 22 104ZM412 700ZM292 0Z" glyph-name="Z" horiz-adv-x="815" unicode="Z" /><glyph d="M18 0H370V106L18 104ZM41 594H347V700H41ZM347 596 236 630 18 104 129 70Z" glyph-name="Z.alt01" horiz-adv-x="386" /><glyph d="M135 66 542 596V700H40V596H473L445 649L26 104V0H557V104H96Z" glyph-name="Z.alt02" horiz-adv-x="583" /><glyph d="M213 910 130 772H268L357 910ZM206 700ZM18 0H370V106L18 104ZM41 594H347V700H41ZM347 596 236 630 18 104 129 70Z" glyph-name="Zacute" horiz-adv-x="404" unicode="&#377;" /><glyph d="M370 772 475 914H347L297 852H295L245 914H117L222 772ZM295 986ZM297 700ZM135 66 542 596V700H40V596H473L445 649L26 104V0H557V104H96Z" glyph-name="Zcaron" horiz-adv-x="583" unicode="&#381;" /><glyph d="M22 0H793V108H144L101 104H22ZM45 592H680L711 596H770V700H45ZM81 10 770 596 703 687 22 104ZM412 700ZM292 0ZM416 762C461 762 494 794 494 838C494 881 459 913 416 913C372 913 340 880 340 838C340 794 374 762 416 762ZM416 700Z" glyph-name="Zdotaccent" horiz-adv-x="823" unicode="&#379;" /><glyph d="M241 229H667V337H241ZM518 700H394L-5 0H124L282 281L450 593H454L623 281L782 0H917ZM451 699ZM916 0ZM449 -1Z" glyph-name="a" horiz-adv-x="912" unicode="a" /><glyph d="M253 910 170 772H308L397 910ZM246 700Z" glyph-name="acute" horiz-adv-x="476" unicode="&#180;" /><glyph d="M214 210H537V314H214ZM523 700H399L0 0H134L455 571H459ZM917 700H459V0H927V106H579V315H877V419H579V594H917ZM506 700Z" glyph-name="ae" horiz-adv-x="959" unicode="&#230;" /><glyph d="M166 313H334V417H168L46 295V122L168 0H340V104H166ZM345 596V417H290V323H343L465 445V578L343 700H290V596ZM167 596H339V700H169L47 578V435L169 313H339V417H167ZM355 389H220L505 0H637ZM617 375H494L257 0H377Z" glyph-name="ampersand" horiz-adv-x="627" unicode="&amp;" /><glyph d="M609 257V404L319 115H360L70 405L70 258L340 -12ZM307 167 343 130 381 171ZM396 96 396 700H284L284 96Z" glyph-name="arrowdown" horiz-adv-x="679" unicode="&#8595;" /><glyph d="M131.1981 439.6468 235.1427 543.5914 235.8499 134.1766 206.8585 163.168 616.9804 163.168 513.0357 59.2233H131.1981ZM281.1047 162.4609 229.4859 161.7538 231.6072 217.6152ZM167.9676 175.1888 595.0601 602.2813 674.2561 523.0854 247.1636 95.9929Z" glyph-name="arrowdownleft" horiz-adv-x="675" unicode="&#8601;" /><glyph d="M642.8019 439.6468 538.8573 543.5914 538.1501 134.1766 567.1415 163.168 157.0196 163.168 260.9643 59.2233H642.8019ZM492.8953 162.4609 544.5141 161.7538 542.3928 217.6152ZM606.0324 175.1888 178.9399 602.2813 99.7439 523.0854 526.8364 95.9929Z" glyph-name="arrowdownright" horiz-adv-x="742.8019" unicode="&#8600;" /><glyph d="M369 81H516L227 371V330L517 620H370L100 350ZM279 383 242 347 283 309ZM208 294H812V406H208Z" glyph-name="arrowleft" horiz-adv-x="912" unicode="&#8592;" /><glyph d="M543 81H396L685 371V330L395 620H542L812 350ZM633 383 670 347 629 309ZM704 294H100V406H704Z" glyph-name="arrowright" horiz-adv-x="912" unicode="&#8594;" /><glyph d="M70 443 70 296 360 585H319L609 295L609 442L339 712ZM372 533 336 570 298 529ZM283 604 283 0H395L395 604Z" glyph-name="arrowup" horiz-adv-x="679" unicode="&#8593;" /><glyph d="M100.1981 221.3532 204.1427 117.4086 204.8499 526.8234 175.8585 497.832H585.9804L482.0357 601.7767H100.1981ZM250.1047 498.5391 198.4859 499.2462 200.6072 443.3848ZM136.9676 485.8112 564.0601 58.7187 643.2561 137.9146 216.1636 565.0071Z" glyph-name="arrowupleft" horiz-adv-x="743.2561" unicode="&#8598;" /><glyph d="M642.8019 222.3532 538.8573 118.4086 538.1501 527.8234 567.1415 498.832H157.0196L260.9643 602.7767H642.8019ZM492.8953 499.5391 544.5141 500.2462 542.3928 444.3848ZM606.0324 486.8112 178.9399 59.7187 99.7439 138.9146 526.8364 566.0071Z" glyph-name="arrowupright" horiz-adv-x="742.8019" unicode="&#8599;" /><glyph d="M187 700 20 318H140L247 571L354 318H473L302 700Z" glyph-name="asciicircum" horiz-adv-x="493" unicode="^" /><glyph d="M196 450H78L20 392V312H115V355H169L212 312H330L388 370V450H293V407H239ZM203 700Z" glyph-name="asciitilde" horiz-adv-x="408" unicode="~" /><glyph d="M390 552H281L358 629L320 667L242 591V700H188V591L110 667L72 629L149 552H40V496H149L72 419L110 381L188 457V348H242V457L320 381L358 419L281 496H390Z" glyph-name="asterisk" horiz-adv-x="430" unicode="*" /><glyph d="M759 302V578L637 700H168L46 578V122L168 0H650V94H154V606H651V246L637 180ZM557 180H637L692 272H461ZM456 274H323V418H456ZM535 403 427 512H328L220 403V288L328 180H427L535 288ZM465 270H559V512H465Z" glyph-name="at" horiz-adv-x="805" unicode="@" /><glyph d="M46 0H460L582 122V291L505 369L567 431V578L445 700H46ZM462 106H166V308H462ZM447 414H166V594H447Z" glyph-name="b" horiz-adv-x="612" unicode="b" /><glyph d="M0 800H110L482 -100H372Z" glyph-name="backslash" horiz-adv-x="482" unicode="\" /><glyph d="M215 900H105V-200H215Z" glyph-name="bar" horiz-adv-x="320" unicode="|" /><glyph d="M285 122C376 122 450 197 450 287C450 378 376 452 285 452C194 452 120 378 120 287C120 197 194 122 285 122Z" glyph-name="blackcircle" horiz-adv-x="570" /><glyph d="M285 74 508 297 285 520 62 297Z" glyph-name="blackdiamond" horiz-adv-x="570" /><glyph d="M376 -2 690 666H50Z" glyph-name="blackdownpointingtriangle" horiz-adv-x="740" /><glyph d="M30.1944 326 633.2627 12V652Z" glyph-name="blackleftpointingtriangle" horiz-adv-x="740" /><glyph d="M708.8056 338 105.7373 652V12Z" glyph-name="blackrightpointingtriangle" horiz-adv-x="740" /><glyph d="M127 132H443V448H127Z" glyph-name="blacksquare" horiz-adv-x="570" /><glyph d="M141 74 504 297 141 520Z" glyph-name="blacktriangle" horiz-adv-x="570" /><glyph d="M364 668 50 0H690Z" glyph-name="blackuppointingtriangle" horiz-adv-x="740" /><glyph d="M20 290H63C115 290 133 262 122 220L82 65C49 -61 143 -138 279 -138H416V-34H280C220 -34 191 -2 202 49L246 245C261 314 210 341 174 350C210 359 261 386 246 455L202 652C191 703 220 735 280 735H416V839H279C143 839 50 762 82 636L122 480C133 438 115 410 63 410H20Z" glyph-name="braceleft" horiz-adv-x="436" unicode="{" /><glyph d="M416 411H373C321 411 303 439 314 481L354 636C387 762 293 839 157 839H20V735H156C216 735 245 703 234 652L190 456C175 387 226 360 262 351C226 342 175 315 190 246L234 49C245 -2 216 -34 156 -34H20V-138H157C293 -138 386 -61 354 65L314 221C303 263 321 291 373 291H416Z" glyph-name="braceright" horiz-adv-x="436" unicode="}" /><glyph d="M384 -34H160V735H384V839H40V-138H384Z" glyph-name="bracketleft" horiz-adv-x="404" unicode="[" /><glyph d="M20 735H244V-34H20V-138H364V839H20Z" glyph-name="bracketright" horiz-adv-x="404" unicode="]" /><glyph d="M263 914V858H138V914H24V874L126 772H275L377 874V914ZM201 700Z" glyph-name="breve" horiz-adv-x="400" unicode="&#728;" /><glyph d="M215 900H105V410H215ZM105 290V-200H215V290Z" glyph-name="brokenbar" horiz-adv-x="320" unicode="&#166;" /><glyph d="M318 282V106H166V594H318V418H438V578L316 700H168L46 578V122L168 0H316L438 122V282Z" glyph-name="c" horiz-adv-x="480" unicode="c" /><glyph d="M274 772 379 914H251L201 852H199L149 914H21L126 772ZM199 986ZM201 700Z" glyph-name="caron" horiz-adv-x="400" unicode="&#711;" /><glyph d="M281 -118 192 -30 203 -85V15H127V-105H194V-183H127V-259H192L281 -170ZM164 -1Z" glyph-name="cedilla" horiz-adv-x="400" unicode="&#184;" /><glyph d="M348 282V204H166V496H348V418H468V478L346 600H168L46 478V222L168 100H346L468 222V282ZM232 0H282V700H232Z" glyph-name="cent" horiz-adv-x="500" unicode="&#162;" /><glyph d="M126 914 21 772H149L199 834H201L251 772H379L274 914ZM201 700Z" glyph-name="circumflex" horiz-adv-x="400" unicode="&#710;" /><glyph d="M105 60C151 60 184 95 184 140C184 186 151 220 105 220C59 220 26 186 26 140C26 95 60 60 105 60ZM105 420C151 420 184 455 184 500C184 546 151 580 105 580C59 580 26 546 26 500C26 455 60 420 105 420Z" glyph-name="colon" horiz-adv-x="210" unicode=":" /><glyph d="M68 13 -82 -137H22L138 -21C165 6 184 34 184 70C184 116 151 150 105 150C59 150 26 118 26 74C26 29 61 -7 107 -7Z" glyph-name="comma" horiz-adv-x="210" unicode="," /><glyph d="M417 -25C637 -25 800 125 800 350C800 575 637 725 417 725C197 725 34 575 34 350C34 125 197 -25 417 -25ZM417 629C583 629 696 515 696 350C696 186 582 71 417 71C252 71 138 186 138 350C138 515 251 629 417 629ZM485 312V244H353V456H485V388H595V428L473 550H365L243 428V272L365 150H473L595 272V312Z" glyph-name="copyright" horiz-adv-x="834" unicode="&#169;" /><glyph d="M321 279H171V441H321ZM430 418 308 540H184L62 418V302L184 180H308L430 302ZM181 475 80 576 30 526 131 425ZM462 526 412 576 319 483 369 433ZM462 194 361 295 311 245 412 144ZM129 293 30 194 80 144 179 243Z" glyph-name="currency" horiz-adv-x="492" unicode="&#164;" /><glyph d="M513 106H166V594H513ZM633 578 511 700H46V0H511L633 122Z" glyph-name="d" horiz-adv-x="679" unicode="d" /><glyph d="M210 168 288 354 216 514 361 448H369V594H361L216 529L289 692V700H126V692L199 529L54 594H46V448H54L199 514L127 354L205 168Z" glyph-name="dagger" horiz-adv-x="415" unicode="&#8224;" /><glyph d="M284 8 216 184 361 119H369V265H361L216 199L283 350L216 501L361 435H369V581H361L216 516L284 692V700H131V692L199 516L54 581H46V435H54L199 501L132 350L199 199L54 265H46V119H54L199 184L131 8V0H284Z" glyph-name="daggerdbl" horiz-adv-x="415" unicode="&#8225;" /><glyph d="M305 429H145V601H305ZM414 578 292 700H158L36 578V452L158 330H292L414 452Z" glyph-name="degree" horiz-adv-x="450" unicode="&#176;" /><glyph d="M142 762C183 762 217 794 217 836C217 877 185 908 142 908C100 908 68 876 68 836C68 794 100 762 142 762ZM345 762C387 762 421 794 421 836C421 877 389 908 345 908C304 908 272 876 272 836C272 794 304 762 345 762ZM244 700Z" glyph-name="dieresis" horiz-adv-x="476" unicode="&#168;" /><glyph d="M242 98C285 98 319 132 319 175C319 218 286 252 242 252C199 252 165 218 165 175C165 132 199 98 242 98ZM242 454C285 454 319 489 319 532C319 574 286 608 242 608C199 608 165 574 165 532C165 489 199 454 242 454ZM30 302H454V404H30Z" glyph-name="divide" horiz-adv-x="484" unicode="&#247;" /><glyph d="M278 -100H328V800H278ZM456 270V106H150V223H30V122L152 0H454L576 122V259L454 381L160 446V594H451V487H571V578L449 700H162L40 578V457L162 335Z" glyph-name="dollar" horiz-adv-x="606" unicode="$" /><glyph d="M201 762C246 762 279 794 279 838C279 881 244 913 201 913C157 913 125 880 125 838C125 794 159 762 201 762ZM201 700Z" glyph-name="dotaccent" horiz-adv-x="400" unicode="&#729;" /><glyph d="M726 700H46V0H736V108H166V308H686V416H166V592H726ZM421 701ZM511 0ZM321 0Z" glyph-name="e" horiz-adv-x="756" unicode="e" /><glyph d="M493 313V104H239V0H491L613 122V295L491 417H239V313ZM166 313H280V417H168L46 295V122L168 0H280V104H166ZM479 596V417H239V313H477L599 435V578L477 700H239V596ZM180 596H280V700H182L60 578V435L182 313H280V417H180Z" glyph-name="eight" horiz-adv-x="659" unicode="8" /><glyph d="M677 104H168V596H677ZM797 700H48V0H797ZM100 412V308H769V412Z" glyph-name="eight.alt01" horiz-adv-x="843" /><glyph d="M221 -10C330 -10 409 45 409 165V231C409 307 379 348 316 371C367 391 397 432 397 500V542C397 658 324 710 221 710C118 710 45 658 45 542V499C45 431 73 390 126 371C63 348 32 306 32 230V163C32 41 110 -10 221 -10ZM222 416C183 416 164 442 164 495V523C164 578 185 606 221 606C258 606 278 584 278 532V497C278 443 259 416 222 416ZM221 94C177 94 152 117 152 174V238C152 298 179 322 222 322C264 322 289 296 289 239V175C289 116 265 94 221 94Z" glyph-name="eight.alt02" horiz-adv-x="441" /><glyph d="M105 -10C151 -10 184 25 184 70C184 116 151 150 105 150C59 150 26 116 26 70C26 25 60 -10 105 -10ZM345 -10C391 -10 424 25 424 70C424 116 391 150 345 150C299 150 266 116 266 70C266 25 300 -10 345 -10ZM585 -10C631 -10 664 25 664 70C664 116 631 150 585 150C539 150 506 116 506 70C506 25 540 -10 585 -10Z" glyph-name="ellipsis" horiz-adv-x="690" unicode="&#8230;" /><glyph d="M34.473 300H1102.1509V406H34.473Z" glyph-name="emdash" horiz-adv-x="1136.1509" unicode="&#8212;" /><glyph d="M34.1954 406H693.0617V300H34.1954Z" glyph-name="endash" horiz-adv-x="727.0617" unicode="&#8211;" /><glyph d="M30 402H454V504H30ZM30 202H454V304H30Z" glyph-name="equal" horiz-adv-x="484" unicode="=" /><glyph d="M180 700H60V230H180ZM119 -10C165 -10 198 25 198 70C198 116 165 150 119 150C73 150 40 116 40 70C40 25 74 -10 119 -10Z" glyph-name="exclam" horiz-adv-x="238" unicode="!" /><glyph d="M58 0H178V470H58ZM119 710C73 710 40 675 40 630C40 584 73 550 119 550C165 550 198 584 198 630C198 675 164 710 119 710Z" glyph-name="exclamdown" horiz-adv-x="238" unicode="&#161;" /><glyph d="M730 700H46V0H166V296H690V404H166V592H730ZM424 700ZM511 0ZM321 0Z" glyph-name="f" horiz-adv-x="750" unicode="f" /><glyph d="M564 316 442 438H164V596H527V700H44V456L166 334H444V104H152V206H32V122L154 0H442L564 122Z" glyph-name="five" horiz-adv-x="604" unicode="5" /><glyph d="M314 333V104H46V0H434V437H176V596H429V700H56V333ZM166 24V206H46V24Z" glyph-name="five.alt01" horiz-adv-x="480" /><glyph d="M387 81C253 81 173 120 155 204H26C44 56 156 -25 386 -25C604 -25 743 75 743 238C743 402 631 487 447 487C319 487 198 447 155 380H165L196 602L177 594H698V700H100L51 277H167C212 360 296 397 413 397C539 397 619 342 619 238C619 136 534 81 387 81Z" glyph-name="five.alt02" horiz-adv-x="777" /><glyph d="M250 -200V596H448V700H252L130 578V-200ZM360 321V425H30V321Z" glyph-name="florin" horiz-adv-x="468" unicode="&#402;" /><glyph d="M483 700H343L363 632V0H483ZM30 180H557V284H30ZM103 218 417 634 343 700 30 284Z" glyph-name="four" horiz-adv-x="587" unicode="4" /><glyph d="M334 0H454V700H334ZM46 304V200H452V304ZM46 200H166V700H46Z" glyph-name="four.alt01" horiz-adv-x="500" /><glyph d="M652 700H532V0H652ZM24 170H806V274H24ZM103 208 612 634 532 700 24 274Z" glyph-name="four.alt02" horiz-adv-x="824" /><glyph d="M444 356H240V250H324V106H166V594H324V487H444V578L322 700H168L46 578V122L168 0H322L444 122Z" glyph-name="g" horiz-adv-x="486" unicode="g" /><glyph d="M236 910 319 772H181L92 910ZM243 700ZM246 700Z" glyph-name="grave" horiz-adv-x="476" unicode="`" /><glyph d="M433 413 51 580V460L304 353L51 246V127L433 298Z" glyph-name="greater" horiz-adv-x="484" unicode="&gt;" /><glyph d="M20 350 221 98H341L143 350L341 602H221ZM243 350 444 98H564L366 350L564 602H444Z" glyph-name="guillemotleft" horiz-adv-x="584" /><glyph d="M564 350 363 602H243L441 350L243 98H363ZM341 350 140 602H20L218 350L20 98H140Z" glyph-name="guillemotright" horiz-adv-x="584" /><glyph d="M20 350 221 98H341L143 350L341 602H221Z" glyph-name="guilsinglleft" horiz-adv-x="361" unicode="&#8249;" /><glyph d="M341 352 140 604H20L218 352L20 100H140Z" glyph-name="guilsinglright" horiz-adv-x="361" unicode="&#8250;" /><glyph d="M166 0V300H503V0H623V700H503V406H166V700H46V0Z" glyph-name="h" horiz-adv-x="669" unicode="h" /><glyph d="M71 910 6 772H140L212 910ZM262 910 193 772H325L400 910ZM174 700Z" glyph-name="hungarumlaut" horiz-adv-x="400" unicode="&#733;" /><glyph d="M34 300H328V406H34Z" glyph-name="hyphen" horiz-adv-x="362" unicode="-" /><glyph d="M166 700H46V0H166ZM107 700ZM166 0Z" glyph-name="i" horiz-adv-x="212" unicode="i" /><glyph d="M18 108V0H330L452 122V700H332V108ZM235 701Z" glyph-name="j" horiz-adv-x="498" unicode="j" /><glyph d="M166 700H46V0H166ZM837 700H649L154 366L330 361ZM855 0 326 389 165 366 659 0ZM393 700ZM304 0Z" glyph-name="k" horiz-adv-x="850" unicode="k" /><glyph d="M166 700H46V0H701V108H166ZM105 700ZM252 0Z" glyph-name="l" horiz-adv-x="721" unicode="l" /><glyph d="M51 294 433 127V247L180 354L433 461V580L51 409Z" glyph-name="less" horiz-adv-x="484" unicode="&lt;" /><glyph d="M30 302H454V404H30ZM454 143V404H352V143Z" glyph-name="logicalnot" horiz-adv-x="484" unicode="&#172;" /><glyph d="M167 700H46V0H160V457H165L405 0H412L647 457H652V0H768V700H643L414 230H410Z" glyph-name="m" horiz-adv-x="814" unicode="m" /><glyph d="M67 772H333V870H67ZM201 700Z" glyph-name="macron" horiz-adv-x="400" unicode="&#175;" /><glyph d="M30 302H454V404H30Z" glyph-name="minus" horiz-adv-x="484" unicode="&#8722;" /><glyph d="M127.667 166.7595 427.4802 466.5727 355.3553 538.6976 55.5421 238.8843ZM427.4802 238.8843 127.667 538.6976 55.5421 466.5727 355.3553 166.7595Z" glyph-name="multiply" horiz-adv-x="484" unicode="&#215;" /><glyph d="M164 0V539H168L722 0H840V700H722V161H718L164 700H46V0ZM474 701ZM342 0Z" glyph-name="n" horiz-adv-x="886" unicode="n" /><glyph d="M46 394 168 272H664V104H466V0H662L784 122V244L662 376H166V596H664V186H784V578L662 700H168L46 578ZM658 104H166V206H46V122L168 0H656Z" glyph-name="nine" horiz-adv-x="830" unicode="9" /><glyph d="M166 376V596H474V376ZM46 272H474V0H594V700H46ZM527 104H46V0H527Z" glyph-name="nine.alt01" horiz-adv-x="640" /><glyph d="M279 508V197C279 118 255 94 212 94C173 94 150 115 150 166V206H30V163C30 40 102 -10 211 -10C324 -10 399 49 399 190V512C399 649 330 710 214 710C100 710 30 652 30 529V419C30 304 101 255 188 255C252 255 286 281 306 320L290 441C290 378 256 354 212 354C166 354 150 380 150 438V522C150 577 169 606 212 606C255 606 278 582 278 517Z" glyph-name="nine.alt02" horiz-adv-x="445" /><glyph d="M471 700H356L128 0H243ZM876 700H761L533 0H648ZM84 550V455H984V550ZM20 245V150H920V245Z" glyph-name="numbersign" horiz-adv-x="1004" unicode="#" /><glyph d="M471 700H356L128 0H243ZM766 700H651L423 0H538ZM84 550V455H874V550ZM20 245V150H810V245Z" glyph-name="numbersign.alt01" horiz-adv-x="894" /><glyph d="M391 700H276L48 0H163ZM606 700H491L263 0H378ZM84 550V455H634V550ZM20 245V150H570V245Z" glyph-name="numbersign.alt02" horiz-adv-x="654" /><glyph d="M772 442H632V598H772ZM886 578 764 700H640L518 578V462L640 340H764L886 462ZM523 170H881V262H523ZM523 0H881V92H523ZM152 0V443H156L326 0H440V700H334V271H330L166 700H46V0Z" glyph-name="numero" horiz-adv-x="932" unicode="&#8470;" /><glyph d="M815 108H166V592H815ZM935 578 813 700H168L46 578V122L168 0H813L935 122ZM493 700ZM474 0Z" glyph-name="o" horiz-adv-x="981" unicode="o" /><glyph d="M108 0V-96L197 -185H270V-109H195V0ZM195 0Z" glyph-name="ogonek" horiz-adv-x="400" unicode="&#731;" /><glyph d="M194 0H314V700H40V594H194ZM468 106H40V0H468Z" glyph-name="one" horiz-adv-x="488" unicode="1" /><glyph d="M114 0H234V700H20V596H114Z" glyph-name="one.alt01" horiz-adv-x="280" /><glyph d="M269 0H389V700H284C252 620 178 565 66 565H24V461H81C175 461 241 492 269 528Z" glyph-name="one.alt02" horiz-adv-x="435" /><glyph d="M295 439H145V601H295ZM384 578 262 700H158L36 578V462L158 340H262L384 462ZM305 340H404V700H305ZM36 161H404V260H36Z" glyph-name="ordfeminine" horiz-adv-x="450" unicode="&#170;" /><glyph d="M295 439H145V601H295ZM404 578 282 700H158L36 578V462L158 340H282L404 462ZM36 161H404V260H36Z" glyph-name="ordmasculine" horiz-adv-x="440" unicode="&#186;" /><glyph d="M657 382H166V592H657ZM655 274 777 396V578L655 700H46V0H166V274ZM283 750Z" glyph-name="p" horiz-adv-x="807" unicode="p" /><glyph d="M204 322V0H314V700H204L40 536V486ZM491 700H381V0H491Z" glyph-name="paragraph" horiz-adv-x="571" unicode="&#182;" /><glyph d="M162 350C162 619 264 720 437 734V842C202 826 40 685 40 350C40 15 202 -126 437 -142V-34C264 -20 162 81 162 350Z" glyph-name="parenleft" horiz-adv-x="457" unicode="(" /><glyph d="M295 350C295 81 193 -20 20 -34V-142C255 -126 417 15 417 350C417 685 255 826 20 842V734C193 720 295 619 295 350Z" glyph-name="parenright" horiz-adv-x="457" unicode=")" /><glyph d="M292 410H138V600H292ZM394 578 272 700H158L36 578V432L158 310H272L394 432ZM634 700H564L259 0H332ZM756 100H602V290H756ZM858 268 736 390H622L500 268V122L622 0H736L858 122Z" glyph-name="percent" horiz-adv-x="894" unicode="%" /><glyph d="M105 -10C151 -10 184 25 184 70C184 116 151 150 105 150C59 150 26 116 26 70C26 25 60 -10 105 -10Z" glyph-name="period" horiz-adv-x="210" unicode="." /><glyph d="M105 270C151 270 184 305 184 350C184 396 151 430 105 430C59 430 26 396 26 350C26 305 60 270 105 270Z" glyph-name="periodcentered" horiz-adv-x="210" unicode="&#183;" /><glyph d="M30 302H454V404H30ZM293 141V565H191V141Z" glyph-name="plus" horiz-adv-x="484" unicode="+" /><glyph d="M30 302H454V404H30ZM293 41V565H191V41ZM30 0H454V102H30Z" glyph-name="plusminus" horiz-adv-x="484" unicode="&#177;" /><glyph d="M392 256 311 175 650 -164 731 -83ZM815 108H166V592H815ZM935 578 813 700H168L46 578V122L168 0H813L935 122ZM493 700ZM474 0Z" glyph-name="q" horiz-adv-x="981" unicode="q" /><glyph d="M183 230H303V337L294 298L446 450V578L324 700H146L24 578V477H144V596H326V436L335 486L183 334ZM245 -10C291 -10 324 25 324 70C324 116 291 150 245 150C199 150 166 116 166 70C166 25 200 -10 245 -10Z" glyph-name="question" horiz-adv-x="480" unicode="?" /><glyph d="M297 470H177V363L186 402L34 250V122L156 0H334L456 122V223H336V104H154V264L145 214L297 366ZM235 710C189 710 156 675 156 630C156 584 189 550 235 550C281 550 314 584 314 630C314 675 280 710 235 710Z" glyph-name="questiondown" horiz-adv-x="480" unicode="&#191;" /><glyph d="M32 700V434H144V700ZM222 700V434H334V700Z" glyph-name="quotedbl" horiz-adv-x="366" unicode="&quot;" /><glyph d="M390 161H242V20H298L210 -92H302L390 30ZM190 161H42V20H98L10 -92H102L190 30Z" glyph-name="quotedblbase" horiz-adv-x="410" unicode="&#8222;" /><glyph d="M20 447H168V588H112L200 700H108L20 578ZM220 447H368V588H312L400 700H308L220 578Z" glyph-name="quotedblleft" horiz-adv-x="410" unicode="&#8220;" /><glyph d="M390 700H242V559H298L210 447H302L390 569ZM190 700H42V559H98L10 447H102L190 569Z" glyph-name="quotedblright" horiz-adv-x="410" unicode="&#8221;" /><glyph d="M20 447H168V588H112L200 700H108L20 578Z" glyph-name="quoteleft" horiz-adv-x="210" unicode="&#8216;" /><glyph d="M190 700H42V559H98L10 447H102L190 569Z" glyph-name="quoteright" horiz-adv-x="210" unicode="&#8217;" /><glyph d="M190 161H42V20H98L10 -92H102L190 30Z" glyph-name="quotesinglbase" horiz-adv-x="210" unicode="&#8218;" /><glyph d="M32 700V434H144V700Z" glyph-name="quotesingle" horiz-adv-x="176" unicode="'" /><glyph d="M298 400H166V594H298ZM296 294 418 416V578L296 700H46V0H166V294ZM196 342 334 0H460L312 359Z" glyph-name="r" horiz-adv-x="454" unicode="r" /><glyph d="M417 -25C637 -25 800 125 800 350C800 575 637 725 417 725C197 725 34 575 34 350C34 125 197 -25 417 -25ZM417 629C583 629 696 515 696 350C696 186 582 71 417 71C252 71 138 186 138 350C138 515 251 629 417 629ZM353 456H485V388H595V428L473 550H365L243 428V180H353ZM353 350V399H243V378L297 256H473L595 378V418H485V350ZM492 181H604L516 323H404Z" glyph-name="registered" horiz-adv-x="834" unicode="&#174;" /><glyph d="M92 876C92 817 137 772 201 772C267 772 311 817 311 878C311 937 268 983 200 983C138 983 92 937 92 876ZM157 878C157 904 175 923 201 923C229 923 246 904 246 878C246 851 228 831 202 831C175 831 157 851 157 878ZM201 700Z" glyph-name="ring" horiz-adv-x="400" unicode="&#730;" /><glyph d="M454 270V106H148V223H28V122L150 0H452L574 122V259L452 381L158 446V594H449V487H569V578L447 700H160L38 578V457L160 335Z" glyph-name="s" horiz-adv-x="604" unicode="s" /><glyph d="M703 420V278H444V174H701L823 292V402L701 524H176V664H698V577H818V648L696 770H178L56 648V542L178 420ZM703 174V30H166V127H46V46L168 -76H701L823 46V158L701 278H176V420H475V524H178L56 402V296L178 174Z" glyph-name="section" horiz-adv-x="869" unicode="&#167;" /><glyph d="M105 420C151 420 184 455 184 500C184 546 151 580 105 580C59 580 26 546 26 500C26 455 60 420 105 420ZM68 13 -82 -137H22L138 -21C165 6 184 34 184 70C184 116 151 150 105 150C59 150 26 118 26 74C26 29 61 -7 107 -7Z" glyph-name="semicolon" horiz-adv-x="210" unicode=";" /><glyph d="M156 486V596H609L612 632L221 0H353L719 596V700H36V486Z" glyph-name="seven" horiz-adv-x="745" unicode="7" /><glyph d="M222 0H342V700H20V596H222ZM118 392V288H446V392Z" glyph-name="seven.alt01" horiz-adv-x="466" /><glyph d="M370 618C214 430 118 217 118 10V0H244V19C244 229 324 439 486 617V700H24V594H370Z" glyph-name="seven.alt02" horiz-adv-x="506" /><glyph d="M454 326 332 448H166V596H399V700H168L46 578V466L168 344H334V104H166V514H46V122L168 0H332L454 122Z" glyph-name="six" horiz-adv-x="490" unicode="6" /><glyph d="M474 344V104H166V344ZM594 448H166V700H46V0H594ZM113 596H594V700H113Z" glyph-name="six.alt01" horiz-adv-x="640" /><glyph d="M171 227V217C198 310 295 375 431 375C577 375 653 325 653 231C653 138 563 78 427 78C293 78 205 128 171 227ZM424 725C179 725 36 586 36 348C36 112 180 -25 427 -25C633 -25 777 80 777 231C777 389 659 477 450 477C311 477 202 427 154 344C157 516 241 621 422 621C549 621 600 584 627 527H769C724 659 611 725 424 725Z" glyph-name="six.alt02" horiz-adv-x="819" /><glyph d="M482 800H372L0 -100H110Z" glyph-name="slash" horiz-adv-x="482" unicode="/" /><glyph glyph-name="space" horiz-adv-x="151" unicode=" " /><glyph d="M544 104H245V596H424V448H544V578L422 700H247L125 578V122V0H544ZM40 0H145V104H40ZM40 288H394V392H40Z" glyph-name="sterling" horiz-adv-x="586" unicode="&#163;" /><glyph d="M347 0H467V592H796V700H18V592H347ZM405 700ZM407 0Z" glyph-name="t" horiz-adv-x="814" unicode="t" /><glyph d="M47 700V596H489V700ZM399 313V104H142V214H22V122L144 0H397L519 122V295L397 417H150V313ZM150 417 221 351 489 596 418 662Z" glyph-name="three" horiz-adv-x="553" unicode="3" /><glyph d="M30 700V596H257V419H70V315H257V104H20V0H377V700Z" glyph-name="three.alt01" horiz-adv-x="423" /><glyph d="M410 618C557 618 622 578 622 514C622 436 544 405 423 405H337V310H426C550 310 646 292 646 195C646 126 565 81 409 81C249 81 176 117 157 223H32C51 50 150 -25 407 -25C663 -25 771 77 771 191C771 304 682 353 568 364C662 373 747 419 747 519C747 638 643 725 412 725C191 725 54 643 43 474H167C179 572 254 617 410 618Z" glyph-name="three.alt02" horiz-adv-x="807" /><glyph d="M194 910H76L18 852V772H113V815H167L210 772H328L386 830V910H291V867H237ZM201 700Z" glyph-name="tilde" horiz-adv-x="400" unicode="&#732;" /><glyph d="M248 638V700H30V638H103V389H175V638ZM479 389H481L594 571V389H662V700H594L481 515L373 700H300V389H368V571Z" glyph-name="trademark" horiz-adv-x="722" unicode="&#8482;" /><glyph d="M146 486V596H368V446L26 104L122 44L488 410V578L366 700H148L26 578V486ZM26 0H489V104H26Z" glyph-name="two" horiz-adv-x="527" unicode="2" /><glyph d="M166 280H762V700H51V596H642V384H46V0H772V104H166ZM171 486V670H51V486Z" glyph-name="two.alt01" horiz-adv-x="818" /><glyph d="M156 98 302 300C371.2096 395.7558 395 452.6838 395 532V535C395 648 334 710 219 710C98 710 39 642 39 521V486H158V519C158 587 178 606 217 606C255 606 275 584 275 527V526C275 461 252 418 191 333L24 98V0H396V104H138Z" glyph-name="two.alt02" horiz-adv-x="432" /><glyph d="M166 700H46V122L168 0H318L440 122V700H320V106H166Z" glyph-name="u" horiz-adv-x="486" unicode="u" /><glyph d="M34.1954 -100H693.0617V-206H34.1954Z" glyph-name="underscore" horiz-adv-x="727.0617" unicode="_" /><glyph d="M60 182H506L283 545Z" glyph-name="uni25B4" horiz-adv-x="566" unicode="&#9652;" /><glyph d="M60 182H506L283 545ZM283 431 401 240H165Z" glyph-name="uni25B5" horiz-adv-x="566" unicode="&#9653;" /><glyph d="M102 586V140L465 363Z" glyph-name="uni25B8" horiz-adv-x="566" unicode="&#9656;" /><glyph d="M102 586V140L465 363ZM351 363 160 245V481Z" glyph-name="uni25B9" horiz-adv-x="566" unicode="&#9657;" /><glyph d="M506 544H60L283 181Z" glyph-name="uni25BE" horiz-adv-x="566" unicode="&#9662;" /><glyph d="M506 544H60L283 181ZM283 295 165 486H401Z" glyph-name="uni25BF" horiz-adv-x="566" unicode="&#9663;" /><glyph d="M464 140V586L101 363Z" glyph-name="uni25C2" horiz-adv-x="566" unicode="&#9666;" /><glyph d="M464 140V586L101 363ZM215 363 406 481V245Z" glyph-name="uni25C3" horiz-adv-x="566" unicode="&#9667;" /><glyph d="M394 0H518L917 700H788L462 120H458L130 700H-5Z" glyph-name="v" horiz-adv-x="912" unicode="v" /><glyph d="M126 700H-2L250 0H368ZM558 700 285 0H400L672 700ZM689 700H567L848 0H970ZM1129 700 887 0H998L1250 700ZM322 112H335V117H322ZM613 563H626V568H613ZM919 111H932V116H919ZM619 700ZM620 0Z" glyph-name="w" horiz-adv-x="1248" unicode="w" /><glyph d="M285 74 508 297 285 520 62 297ZM146 297 285 436 424 297 285 158Z" glyph-name="whitediamond" horiz-adv-x="570" /><glyph d="M376 -2 690 666H50ZM374 166 165 595H578Z" glyph-name="whitedownpointingtriangle" horiz-adv-x="740" /><glyph d="M30 326 633 12V652ZM562 535V127L180 328Z" glyph-name="whiteleftpointingtriangle" horiz-adv-x="740" /><glyph d="M709 338 106 652V12ZM177 129V537L559 336Z" glyph-name="whiterightpointingtriangle" horiz-adv-x="740" /><glyph d="M127 132H443V448H127ZM187 388H383V192H187Z" glyph-name="whitesquare" horiz-adv-x="570" /><glyph d="M141 74 504 297 141 520ZM201 413 390 297 201 181Z" glyph-name="whitetriangle" horiz-adv-x="570" /><glyph d="M364 668 50 0H690ZM366 500 575 71H162Z" glyph-name="whiteuppointingtriangle" horiz-adv-x="740" /><glyph d="M723 700 443 414 395 389 0 0H158L454 301L494 319L881 700ZM187 700H18L405 319L433 301L730 0H899L504 389L468 414Z" glyph-name="x" horiz-adv-x="899" unicode="x" /><glyph d="M428 353 149 700H-5L367 244V0H487V244L865 700H714L430 353ZM428 700ZM426 0Z" glyph-name="y" horiz-adv-x="860" unicode="y" /><glyph d="M505 205V275H145V205ZM505 85V155H145V85ZM324 384 154 700H20L265 261V0H385V261L629 700H495L326 384Z" glyph-name="yen" horiz-adv-x="665" unicode="&#165;" /><glyph d="M22 0H793V108H144L101 104H22ZM45 592H680L711 596H770V700H45ZM81 10 770 596 703 687 22 104ZM412 700ZM292 0Z" glyph-name="z" horiz-adv-x="815" unicode="z" /><glyph d="M474 104H166V596H474ZM594 578 472 700H168L46 578V122L168 0H472L594 122Z" glyph-name="zero" horiz-adv-x="640" unicode="0" /><glyph d="M334 104H166V596H334ZM454 700H46V0H454Z" glyph-name="zero.alt01" horiz-adv-x="500" /><glyph d="M427 -25C664 -25 818 127 818 350C818 573 664 725 427 725C190 725 36 573 36 350C36 127 190 -25 427 -25ZM427 619C592 619 694 517 694 350C694 185 592 81 427 81C262 81 160 185 160 350C160 517 262 619 427 619Z" glyph-name="zero.alt02" horiz-adv-x="854" /></font>
</defs>
</svg>
